<?xml version="1.0" encoding="UTF-8" standalone="no"?>
<svg
   xmlns:dc="http://purl.org/dc/elements/1.1/"
   xmlns:cc="http://creativecommons.org/ns#"
   xmlns:rdf="http://www.w3.org/1999/02/22-rdf-syntax-ns#"
   xmlns:svg="http://www.w3.org/2000/svg"
   xmlns="http://www.w3.org/2000/svg"
   xmlns:sodipodi="http://sodipodi.sourceforge.net/DTD/sodipodi-0.dtd"
   xmlns:inkscape="http://www.inkscape.org/namespaces/inkscape"
   width="18px"
   height="25px"
   viewBox="0 0 18 25"
   version="1.1"
   id="svg2"
   inkscape:version="0.48.4 r9939"
   sodipodi:docname="pin-open.svg">
  <metadata
     id="metadata13">
    <rdf:RDF>
      <cc:Work
         rdf:about="">
        <dc:format>image/svg+xml</dc:format>
        <dc:type
           rdf:resource="http://purl.org/dc/dcmitype/StillImage" />
        <dc:title></dc:title>
      </cc:Work>
    </rdf:RDF>
  </metadata>
  <sodipodi:namedview
     pagecolor="#ffffff"
     bordercolor="#666666"
     borderopacity="1"
     objecttolerance="10"
     gridtolerance="10"
     guidetolerance="10"
     inkscape:pageopacity="0"
     inkscape:pageshadow="2"
     inkscape:window-width="1680"
     inkscape:window-height="964"
     id="namedview11"
     showgrid="false"
     inkscape:zoom="9.44"
     inkscape:cx="-11.709746"
     inkscape:cy="12.5"
     inkscape:window-x="0"
     inkscape:window-y="27"
     inkscape:window-maximized="1"
     inkscape:current-layer="Lot1" />
  <defs
     id="defs4" />
  <g
     id="Lot1"
     stroke="none"
     stroke-width="1"
     fill="none"
     fill-rule="evenodd">
    <g
       id="UI"
       transform="translate(-393.000000, -322.000000)"
       fill-rule="nonzero"
       fill="#000000"
       style="fill:#ff2249;fill-opacity:1">
      <g
         id="TRANSVERSE"
         transform="translate(189.000000, 201.000000)"
         style="fill:#ff2249;fill-opacity:1">
        <g
           id="pin"
           transform="translate(204.000000, 121.000000)"
           style="fill:#ff2249;fill-opacity:1">
          <path
             d="M0,9 C0,4.02971525 4.02971525,0 9,0 C13.9702847,0 18,4.02971525 18,9 C18,12.755117 15.6781625,16.0605294 12.2586161,17.3883042 L9.94865762,24.3163048 C9.64471085,25.2278984 8.35528915,25.2278984 8.05134238,24.3163048 L5.74138386,17.3883042 C2.32183747,16.0605294 0,12.755117 0,9 Z M10.5153424,16.2936952 C10.6158523,15.9922472 10.853648,15.7565109 11.1559589,15.6586269 C14.0211583,14.7309161 16,12.0567104 16,9 C16,5.13428475 12.8657153,2 9,2 C5.13428475,2 2,5.13428475 2,9 C2,12.0567104 3.97884168,14.7309161 6.84404109,15.6586269 C7.146352,15.7565109 7.38414774,15.9922472 7.48465762,16.2936952 L9,20.8384924 L10.5153424,16.2936952 Z M9,14 C6.23857625,14 4,11.7614237 4,9 C4,6.23857625 6.23857625,4 9,4 C11.7614237,4 14,6.23857625 14,9 C14,11.7614237 11.7614237,14 9,14 Z"
             id="Pin"
             style="fill:#ff2249;fill-opacity:1" />
        </g>
      </g>
    </g>
  </g>
</svg>
