<?xml version="1.0" encoding="UTF-8" standalone="no"?>
<svg width="307px" height="227px" viewBox="0 0 307 227" version="1.1" xmlns="http://www.w3.org/2000/svg" xmlns:xlink="http://www.w3.org/1999/xlink">
    <defs></defs>
    <g id="Lot1" stroke="none" stroke-width="1" fill="none" fill-rule="evenodd">
        <g id="UI-Qui-sommes-nous" transform="translate(-989.000000, -1801.000000)">
            <g id="QUI-SOMMES-NOUS" transform="translate(409.000000, 258.000000)">
                <g id="VISUEL-96-2001" transform="translate(580.000000, 1543.000000)">
                    <path d="M246.949587,40.0292969 L51.4045725,40.0292969 C47.2282867,40.0292969 43.8423339,43.4194595 43.8423339,47.597516 L43.8423339,159.689278 C43.8423339,163.868721 47.2282867,167.254722 51.4045725,167.254722 L246.949587,167.254722 C251.125873,167.254722 254.514598,163.868721 254.514598,159.689278 L254.514598,47.597516 C254.514598,43.4194595 251.125873,40.0292969 246.949587,40.0292969" id="Fill-24" fill="#FFC64C"></path>
                    <path d="M299.224,180.213 C298.87,181.572 297.125,182.569 294.475,182.997 L284.099,176.176 C285.254,174.093 286.241,171.906 287.045,169.633 C289.662,170.359 292.084,171.397 293.991,172.651 C298.216,175.43 299.666,178.519 299.224,180.213 L299.224,180.213 Z M289.779,193.548 C288.398,194.628 284.99,194.518 280.761,191.74 C278.988,190.575 277.215,188.918 275.605,186.993 C277.309,185.416 278.882,183.701 280.315,181.871 L290.573,188.614 C291.07,190.956 290.809,192.743 289.779,193.548 L289.779,193.548 Z M273.43,169.162 C275.476,168.608 277.784,168.412 280.16,168.524 C279.635,169.858 279.041,171.157 278.369,172.409 L273.43,169.162 Z M248.635,152.861 C247.056,151.823 244.937,152.261 243.901,153.84 C242.864,155.417 243.302,157.537 244.879,158.574 L248.351,160.857 C247.697,161.102 246.993,161.242 246.255,161.242 C242.954,161.242 240.27,158.556 240.27,155.254 C240.27,151.953 242.954,149.269 246.255,149.269 C249.551,149.269 252.232,151.942 252.244,155.234 L248.635,152.861 Z M265.476,163.933 L258.42,159.294 C258.844,158.022 259.082,156.667 259.082,155.254 C259.082,148.184 253.328,142.431 246.255,142.431 C239.185,142.431 233.432,148.184 233.432,155.254 C233.432,162.326 239.185,168.08 246.255,168.08 C249.445,168.08 252.359,166.903 254.606,164.969 L261.679,169.618 C257.822,173.756 252.344,176.362 246.255,176.362 C234.617,176.362 225.148,166.894 225.148,155.254 C225.148,143.618 234.617,134.151 246.255,134.151 C257.895,134.151 267.364,143.618 267.364,155.254 C267.364,158.349 266.678,161.282 265.476,163.933 L265.476,163.933 Z M271.76,181.218 C270.661,179.084 269.858,176.873 269.484,174.75 L274.585,178.104 C273.703,179.195 272.76,180.235 271.76,181.218 L271.76,181.218 Z M246.255,191.673 C226.174,191.673 209.838,175.336 209.838,155.254 C209.838,135.174 226.174,118.838 246.255,118.838 C266.336,118.838 282.673,135.174 282.673,155.254 C282.673,157.502 282.458,159.7 282.066,161.837 C279.088,161.57 276.107,161.672 273.326,162.204 C273.897,159.981 274.202,157.652 274.202,155.254 C274.202,139.848 261.664,127.314 246.255,127.314 C230.846,127.314 218.31,139.848 218.31,155.254 C218.31,170.663 230.846,183.2 246.255,183.2 C252.582,183.2 258.423,181.084 263.112,177.525 C263.791,180.264 264.928,183.005 266.381,185.587 C260.611,189.428 253.691,191.673 246.255,191.673 L246.255,191.673 Z M297.747,166.94 C295.259,165.302 292.153,163.961 288.795,163.042 C289.257,160.514 289.511,157.914 289.511,155.254 C289.511,131.404 270.107,112 246.255,112 C222.405,112 203,131.404 203,155.254 C203,179.106 222.405,198.511 246.255,198.511 C255.128,198.511 263.383,195.822 270.255,191.221 C272.337,193.745 274.657,195.909 277.006,197.453 C280.605,199.819 284.263,201.023 287.513,201.023 C289.972,201.023 292.198,200.333 293.985,198.938 C295.406,197.829 298.096,194.933 297.587,189.312 C303.629,187.67 305.361,183.771 305.839,181.939 C307.169,176.842 304.068,171.095 297.747,166.94 L297.747,166.94 Z" id="Fill-32" fill="#FF8054"></path>
                    <path d="M192.459924,213.500964 L182.64177,213.500964 C175.9281,211.189994 177.128851,201.962759 177.128851,201.962759 L177.128851,181.689753 L120.796136,181.689753 L120.796136,201.962759 C120.796136,201.962759 121.999661,211.189994 115.28599,213.500964 L105.465063,213.500964 C101.993144,213.500964 99.1784496,216.31824 99.1784496,219.793018 C99.1784496,223.269183 101.993144,226.083684 105.465063,226.083684 L192.459924,226.083684 C195.931843,226.083684 198.750697,223.269183 198.750697,219.793018 C198.750697,216.31824 195.931843,213.500964 192.459924,213.500964" id="Fill-26" fill="#FFC64C"></path>
                    <g id="etoiles" fill="#FF8054">
                        <path d="M39.1148,66.482 C36.8008,68.797 35.1098,72.025 33.8738,75.519 C32.6258,72.086 30.9298,68.912 28.6278,66.609 C26.4058,64.388 23.6598,62.732 20.8098,61.498 C23.7678,60.295 26.6128,58.642 28.8798,56.375 C31.1038,54.152 32.7448,51.028 33.9558,47.603 C35.1728,50.984 36.8218,54.08 39.0528,56.312 C41.2978,58.556 44.0688,60.202 46.9478,61.41 C44.0798,62.629 41.3258,64.272 39.1148,66.482 M64.3268,57.885 C64.3028,57.886 64.2828,57.885 64.2388,57.886 C60.3508,57.938 49.2648,56.854 43.8868,51.478 C38.5228,46.11 37.3588,30.824 37.3598,25.269 L37.3598,25.177 C37.3598,23.291 35.8318,21.761 33.9468,21.758 L33.9408,21.758 C32.0578,21.758 30.5288,23.282 30.5228,25.166 L30.5228,25.257 C30.5068,30.864 29.3198,46.27 24.0458,51.54 C17.7708,57.815 4.0518,57.885 3.5818,57.885 L3.5428,57.885 C1.6718,57.885 0.1478,59.391 0.1268,61.265 C0.1048,63.148 1.6128,64.694 3.4958,64.722 C3.6348,64.724 17.3468,65.001 23.7938,71.444 C29.1498,76.8 30.4668,91.525 30.5228,96.747 C30.5428,98.621 32.0678,100.129 33.9408,100.129 L33.9478,100.129 C35.8228,100.126 37.3458,98.61 37.3598,96.734 C37.3968,91.461 38.6528,76.616 43.9488,71.316 C50.2748,64.994 63.9888,64.728 64.3478,64.722 L64.3688,64.722 C66.2538,64.699 67.7638,63.154 67.7448,61.269 C67.7248,59.393 66.1988,57.885 64.3268,57.885" id="Fill-58"></path>
                        <path d="M73.5328,26.4645 C72.7818,27.2155 72.1368,28.1105 71.5838,29.0985 C71.0348,28.1425 70.3998,27.2705 69.6648,26.5345 C68.9698,25.8405 68.2028,25.2365 67.3908,24.7105 C68.2578,24.1705 69.0748,23.5425 69.8058,22.8115 C70.5158,22.1015 71.1308,21.2605 71.6618,20.3325 C72.1888,21.2465 72.7958,22.0755 73.4958,22.7765 C74.2078,23.4885 74.9958,24.1025 75.8288,24.6335 C75.0068,25.1605 74.2308,25.7665 73.5328,26.4645 M88.9038,21.1475 L88.8748,21.1475 C88.8448,21.1465 88.8118,21.1475 88.7788,21.1475 C86.6788,21.1475 80.9708,20.5815 78.3308,17.9435 C76.0678,15.6765 75.0538,8.4945 75.0538,4.0935 L75.0538,4.0435 C75.0538,2.1575 73.5268,0.6285 71.6408,0.6255 L71.6358,0.6255 C69.7518,0.6255 68.2228,2.1495 68.2178,4.0335 L68.2178,4.0725 C68.2058,8.5215 67.1948,15.7555 64.9718,17.9765 C62.3658,20.5835 56.5308,21.1475 54.4418,21.1475 C54.4148,21.1465 54.3908,21.1475 54.3658,21.1475 C52.4968,21.1475 50.9758,22.6505 50.9518,24.5225 C50.9288,26.4045 52.4348,27.9525 54.3168,27.9835 C56.3328,28.0175 62.1508,28.6925 64.8298,31.3695 C67.0878,33.6285 68.1698,40.5315 68.2178,44.7145 C68.2358,46.5895 69.7608,48.0985 71.6358,48.0985 L71.6388,48.0985 C73.5148,48.0975 75.0398,46.5815 75.0538,44.7055 C75.0868,40.4815 76.1358,33.5295 78.3658,31.2995 C81.0088,28.6585 86.8738,28.0115 88.9208,27.9845 L88.9458,27.9845 C88.9498,27.9845 88.9608,27.9865 88.9588,27.9835 L88.9638,27.9835 L88.9688,27.9835 L88.9738,27.9835 L88.9788,27.9835 C89.1478,27.9795 89.3138,27.9635 89.4748,27.9365 L89.4758,27.9365 C89.4768,27.9365 89.4788,27.9355 89.4798,27.9355 C89.4818,27.9345 89.4828,27.9345 89.4848,27.9345 C89.4878,27.9345 89.4888,27.9345 89.4898,27.9335 C89.4918,27.9335 89.4918,27.9325 89.4938,27.9335 C91.1148,27.6505 92.3388,26.2285 92.3218,24.5295 C92.3018,22.6545 90.7758,21.1475 88.9038,21.1475" id="Fill-59"></path>
                    </g>
                </g>
            </g>
        </g>
    </g>
</svg>