<?xml version="1.0" encoding="UTF-8"?>
<svg width="86px" height="109px" viewBox="0 0 86 109" version="1.1" xmlns="http://www.w3.org/2000/svg" xmlns:xlink="http://www.w3.org/1999/xlink">
    <defs></defs>
    <g id="Lot1" stroke="none" stroke-width="1" fill="none" fill-rule="evenodd">
        <g id="UI-Page-404" transform="translate(-374.000000, -66.000000)">
            <g id="Alien" transform="translate(414.585916, 120.050483) rotate(25.000000) translate(-414.585916, -120.050483) translate(382.085916, 70.050483)">
                <path d="M10.1943643,48.6602735 C10.2985079,35.9894342 20.2424351,25.7511088 32.493858,25.7511088 C44.7452809,25.7511088 54.689208,35.9894342 54.7933516,48.6602735 L10.1943643,48.6602735 Z" id="Combined-Shape" fill="#1BBA96"></path>
                <path d="M25.519302,48.6602735 C25.5514069,44.7541673 28.6168735,41.597945 32.393684,41.597945 C36.1704944,41.597945 39.2359611,44.7541673 39.268066,48.6602735 L25.519302,48.6602735 Z" id="Combined-Shape-Copy-3" fill="#FFFFFF"></path>
                <path d="M0.0389565464,86.4958489 C0.190531363,68.0542001 14.6633227,53.1529297 32.4945361,53.1529297 C50.3257495,53.1529297 64.7985408,68.0542001 64.9501157,86.4958489 L0.0389565464,86.4958489 Z" id="Combined-Shape-Copy-2" fill="#1BBA96" transform="translate(32.494536, 69.824389) rotate(-180.000000) translate(-32.494536, -69.824389) "></path>
                <path d="M14.6543986,71.4836775 C14.7362283,61.5277153 22.5495515,53.4830721 32.1759622,53.4830721 C41.802373,53.4830721 49.6156962,61.5277153 49.6975258,71.4836775 L14.6543986,71.4836775 Z" id="Combined-Shape-Copy-4" fill="#FFFFFF" transform="translate(32.175962, 62.483375) rotate(-180.000000) translate(-32.175962, -62.483375) "></path>
                <path d="M11.5545254,15.9770877 C11.5545254,28.3757061 21.2533917,38.4267723 33.2175495,38.4267723 C45.1817073,38.4267723 54.8805736,28.3757061 54.8805736,15.9770877 L49.7833914,15.9770877 C49.7833914,25.4583842 42.3666114,33.1444936 33.2175495,33.1444936 C24.0684876,33.1444936 16.6517076,25.4583842 16.6517076,15.9770877 L11.5545254,15.9770877 Z" id="Oval-11" fill="#1BBA96" fill-rule="nonzero"></path>
                <path d="M14.0172509,19.4784028 C8.91488944,19.4784028 4.77860825,15.1919187 4.77860825,9.90427262 C4.77860825,4.61662652 8.91488944,0.330142421 14.0172509,0.330142421 C19.1196123,0.330142421 23.2558935,4.61662652 23.2558935,9.90427262 C23.2558935,15.1919187 19.1196123,19.4784028 14.0172509,19.4784028 Z" id="Path" fill="#FFFFFF"></path>
                <path d="M55.2551468,99.7830731 C55.2551468,87.3844547 45.5562805,77.3333885 33.5921227,77.3333885 C21.6279649,77.3333885 11.9290986,87.3844547 11.9290986,99.7830731 L17.0262808,99.7830731 C17.0262808,90.3017766 24.4430608,82.6156672 33.5921227,82.6156672 C42.7411846,82.6156672 50.1579646,90.3017766 50.1579646,99.7830731 L55.2551468,99.7830731 Z" id="Oval-11-Copy" fill="#1BBA96" fill-rule="nonzero"></path>
                <ellipse id="Oval-12-Copy-2" fill="#414143" cx="11.2775155" cy="10.234415" rx="3.50431272" ry="3.63156663"></ellipse>
                <path d="M53.2018385,19.8085452 C48.0994771,19.8085452 43.9631959,15.5220611 43.9631959,10.234415 C43.9631959,4.94676894 48.0994771,0.660284841 53.2018385,0.660284841 C58.3042,0.660284841 62.4404811,4.94676894 62.4404811,10.234415 C62.4404811,15.5220611 58.3042,19.8085452 53.2018385,19.8085452 Z" id="Path-Copy" fill="#FFFFFF"></path>
                <ellipse id="Oval-12-Copy-3" fill="#414143" cx="56.2601478" cy="10.234415" rx="3.50431272" ry="3.63156663"></ellipse>
            </g>
        </g>
    </g>
</svg>