<?xml version="1.0" encoding="UTF-8" standalone="no"?>
<svg width="509px" height="167px" viewBox="0 0 509 167" version="1.1" xmlns="http://www.w3.org/2000/svg" xmlns:xlink="http://www.w3.org/1999/xlink">
    <defs></defs>
    <g id="Lot1" stroke="none" stroke-width="1" fill="none" fill-rule="evenodd" fill-opacity="0.0800000057">
        <g id="UI-KIT-page-404" transform="translate(-2341.000000, -515.000000)" fill="#FFFFFF">
            <path d="M2833.2019,515 L2571.78951,515 C2562.59511,515 2555.07013,522.52587 2555.07013,531.72644 L2555.07013,531.72644 C2555.07013,540.92701 2562.59511,548.452879 2571.78951,548.452879 L2591.7404,548.452879 C2602.43066,548.455164 2611.17745,555.981034 2611.17745,565.179319 C2611.17745,572.373904 2605.81747,578.528942 2598.36786,580.87535 L2410.89206,580.87535 C2401.69766,580.87535 2394.17269,588.40122 2394.17269,597.60179 C2394.17269,606.80236 2401.69766,614.328229 2410.89206,614.328229 L2459.08616,614.328229 C2473.14496,614.330514 2484.64824,621.856384 2484.64824,631.054669 C2484.64824,640.252954 2473.14268,647.781109 2459.08159,647.781109 L2361.12217,647.781109 L2357.71938,647.781109 C2348.52269,647.781109 2341,655.306979 2341,664.507549 C2341,673.705834 2348.52269,681.231704 2357.71938,681.231704 L2698.71152,681.231704 C2707.90821,681.231704 2715.43318,673.705834 2715.43318,664.507549 C2715.43318,655.306979 2707.90821,647.781109 2698.71152,647.781109 L2673.3664,647.781109 C2659.30532,647.778824 2647.80204,640.252954 2647.80204,631.054669 C2647.80204,621.856384 2659.30532,614.330514 2673.3664,614.328229 L2751.88878,614.328229 C2761.08318,614.328229 2768.60587,606.80236 2768.60587,597.60179 C2768.60587,588.40122 2761.08318,580.87535 2751.88878,580.87535 L2748.05663,580.87535 C2740.60702,578.528942 2735.24476,572.373904 2735.24476,565.179319 C2735.24476,555.981034 2743.99155,548.455164 2754.68181,548.452879 L2833.2019,548.452879 C2842.3963,548.452879 2849.92128,540.92701 2849.92128,531.72644 L2849.92128,531.72644 C2849.92128,522.52587 2842.3963,515 2833.2019,515" id="cloud_05"></path>
        </g>
    </g>
</svg>