<?xml version="1.0" encoding="UTF-8" standalone="no"?>
<svg width="635px" height="208px" viewBox="0 0 635 208" version="1.1" xmlns="http://www.w3.org/2000/svg" xmlns:xlink="http://www.w3.org/1999/xlink">
    <defs></defs>
    <g id="Lot1" stroke="none" stroke-width="1" fill="none" fill-rule="evenodd" opacity="0.08">
        <g id="UI-KIT-page-404" transform="translate(-2004.000000, -78.000000)" fill="#FFFFFF">
            <path d="M2617.60039,78 L2291.71229,78 C2280.25014,78 2270.86918,87.382078 2270.86918,98.8519105 L2270.86918,98.8519105 C2270.86918,110.321743 2280.25014,119.703821 2291.71229,119.703821 L2316.58394,119.703821 C2329.91088,119.706669 2340.81501,129.088747 2340.81501,140.555731 C2340.81501,149.524816 2334.13303,157.197954 2324.84602,160.123089 L2091.1305,160.123089 C2079.66836,160.123089 2070.28739,169.505167 2070.28739,180.975 C2070.28739,192.444832 2079.66836,201.82691 2091.1305,201.82691 L2151.21137,201.82691 C2168.73768,201.829758 2183.07817,211.211836 2183.07817,222.67882 C2183.07817,234.145805 2168.73484,243.530731 2151.20567,243.530731 L2029.08518,243.530731 L2024.8431,243.530731 C2013.37812,243.530731 2004,252.912809 2004,264.382641 C2004,275.849626 2013.37812,285.231704 2024.8431,285.231704 L2449.93881,285.231704 C2461.4038,285.231704 2470.78476,275.849626 2470.78476,264.382641 C2470.78476,252.912809 2461.4038,243.530731 2449.93881,243.530731 L2418.34247,243.530731 C2400.81331,243.527883 2386.47282,234.145805 2386.47282,222.67882 C2386.47282,211.211836 2400.81331,201.829758 2418.34247,201.82691 L2516.2319,201.82691 C2527.69404,201.82691 2537.07216,192.444832 2537.07216,180.975 C2537.07216,169.505167 2527.69404,160.123089 2516.2319,160.123089 L2511.45458,160.123089 C2502.16757,157.197954 2495.48275,149.524816 2495.48275,140.555731 C2495.48275,129.088747 2506.38687,119.706669 2519.71382,119.703821 L2617.60039,119.703821 C2629.06253,119.703821 2638.4435,110.321743 2638.4435,98.8519105 L2638.4435,98.8519105 C2638.4435,87.382078 2629.06253,78 2617.60039,78" id="cloud_02"></path>
        </g>
    </g>
</svg>