<?xml version="1.0" encoding="UTF-8" standalone="no"?>
<svg width="389px" height="92px" viewBox="0 0 389 92" version="1.1" xmlns="http://www.w3.org/2000/svg" xmlns:xlink="http://www.w3.org/1999/xlink">
    <defs></defs>
    <g id="Lot1" stroke="none" stroke-width="1" fill="none" fill-rule="evenodd" opacity="0.06">
        <g id="UI-KIT-page-404" transform="translate(-2444.000000, -316.000000)" fill="#000000">
            <path d="M2817.79219,316 L2507.58402,316 C2499.21765,316 2492.37206,322.848484 2492.37206,331.216314 C2492.37206,339.586222 2499.21765,346.434706 2507.58402,346.434706 L2551.4249,346.434706 C2564.21442,346.434706 2574.67914,353.281112 2574.67914,361.648941 C2574.67914,370.016771 2564.21234,376.865255 2551.42074,376.865255 L2462.30754,376.865255 L2459.20989,376.865255 C2450.84351,376.865255 2444,383.711661 2444,392.07949 C2444,400.449398 2450.84351,407.297883 2459.20989,407.297883 L2769.41806,407.297883 C2777.78235,407.297883 2784.62794,400.449398 2784.62794,392.07949 C2784.62794,383.711661 2777.78235,376.865255 2769.41806,376.865255 L2746.35911,376.865255 C2733.56959,376.863177 2723.10487,370.016771 2723.10487,361.648941 C2723.10487,353.281112 2733.56959,346.434706 2746.35911,346.434706 L2817.79219,346.434706 C2826.15649,346.434706 2833,339.586222 2833,331.216314 C2833,322.848484 2826.15649,316 2817.79219,316" id="cloud_04"></path>
        </g>
    </g>
</svg>