<?xml version="1.0" encoding="UTF-8" standalone="no"?>
<svg width="475px" height="155px" viewBox="0 0 475 155" version="1.1" xmlns="http://www.w3.org/2000/svg" xmlns:xlink="http://www.w3.org/1999/xlink">
    <defs></defs>
    <g id="Lot1" stroke="none" stroke-width="1" fill="none" fill-rule="evenodd">
        <g id="UI-KIT-page-404" transform="translate(-1805.000000, -380.000000)" fill="#FFFFFF">
            <path d="M1874.83053,78 L1544.57133,78 C1532.95545,78 1523.44866,87.5063849 1523.44866,99.1281858 C1523.44866,110.747101 1532.95545,120.256372 1544.57133,120.256372 L1569.77081,120.256372 C1583.27939,120.256372 1594.33266,129.762757 1594.33266,141.381671 C1594.33266,150.469591 1587.55817,158.24728 1578.14948,161.211171 L1341.29917,161.211171 C1329.68329,161.211171 1320.1765,170.717556 1320.1765,182.336471 C1320.1765,193.958271 1329.68329,203.467542 1341.29917,203.467542 L1402.18012,203.467542 C1419.9444,203.467542 1434.48012,212.973927 1434.48012,224.592842 C1434.48012,236.211757 1419.9444,245.721028 1402.18012,245.721028 L1278.42164,245.721028 L1274.11979,245.721028 C1262.5039,245.721028 1253,255.227413 1253,266.849214 C1253,278.471015 1262.5039,287.9774 1274.11979,287.9774 L1436.10738,287.9774 C1453.87166,287.9774 1468.40738,297.483785 1468.40738,309.105585 C1468.40738,320.7245 1453.87166,330.230885 1436.10738,330.230885 L1444.60146,330.230885 L1413.67482,330.230885 C1402.05894,330.233771 1392.55504,339.740156 1392.55504,351.361957 C1392.55504,362.980872 1402.05894,372.487257 1413.67771,372.487257 L1507.96082,372.487257 C1517.29738,372.487257 1524.93454,381.996528 1524.93454,393.615443 C1524.93454,405.237243 1517.29738,414.743628 1507.96082,414.743628 L1486.05337,414.743628 C1474.43748,414.743628 1464.93358,424.252899 1464.93358,435.871814 C1464.93358,447.490729 1474.43748,457 1486.05337,457 L1702.57156,457 C1714.19032,457 1723.69423,447.490729 1723.69423,435.871814 C1723.69423,424.252899 1714.19032,414.743628 1702.57156,414.743628 L1650.23373,414.743628 C1640.90005,414.743628 1633.26288,405.237243 1633.26288,393.615443 C1633.26288,381.996528 1640.90005,372.487257 1650.23661,372.487257 L1738.85027,372.487257 C1750.46615,372.487257 1759.97005,362.980872 1759.97005,351.361957 C1759.97005,339.740156 1750.46615,330.230885 1738.85027,330.230885 L1706.82725,330.230885 C1689.06586,330.230885 1674.53302,320.721614 1674.53302,309.105585 C1674.53302,297.48667 1689.06874,287.9774 1706.83302,287.9774 L1812.04244,287.9774 C1823.65832,287.9774 1833.16511,278.471015 1833.16511,266.849214 C1833.16511,255.227413 1823.65832,245.721028 1812.04244,245.721028 L1672.89999,245.721028 C1655.13571,245.718142 1640.60576,236.211757 1640.60576,224.592842 C1640.60576,212.973927 1655.1386,203.467542 1672.90576,203.467542 L1802.77224,203.467542 C1814.38812,203.467542 1823.89491,193.958271 1823.89491,182.336471 C1823.89491,170.717556 1814.38812,161.211171 1802.77224,161.211171 L1767.25811,161.211171 C1757.84942,158.244394 1751.07493,150.469591 1751.07493,141.381671 C1751.07493,129.762757 1762.1282,120.256372 1775.63678,120.256372 L1874.83053,120.256372 C1886.44641,120.256372 1895.9532,110.747101 1895.9532,99.1281858 C1895.9532,87.5063849 1886.44641,78 1874.83053,78" id="cloud_01" opacity="0.06" transform="translate(1574.476598, 267.500000) rotate(-180.000000) translate(-1574.476598, -267.500000) "></path>
            <path d="M2263.94551,380 L2020.19586,380 C2011.62269,380 2004.60615,387.017373 2004.60615,395.596292 L2004.60615,395.596292 C2004.60615,404.175211 2011.62269,411.192584 2020.19586,411.192584 L2038.79874,411.192584 C2048.76669,411.194714 2056.92249,418.212087 2056.92249,426.788875 C2056.92249,433.497347 2051.92467,439.23651 2044.9784,441.424379 L1870.1697,441.424379 C1861.59653,441.424379 1854.57999,448.441752 1854.57999,457.020671 C1854.57999,465.59959 1861.59653,472.616963 1870.1697,472.616963 L1915.10749,472.616963 C1928.21638,472.619093 1938.94242,479.636466 1938.94242,488.213255 C1938.94242,496.790044 1928.21425,503.809547 1915.10323,503.809547 L1823.76259,503.809547 L1820.58971,503.809547 C1812.01441,503.809547 1805,510.826919 1805,519.405839 C1805,527.982627 1812.01441,535 1820.58971,535 L2138.54219,535 C2147.11748,535 2154.13402,527.982627 2154.13402,519.405839 C2154.13402,510.826919 2147.11748,503.809547 2138.54219,503.809547 L2114.90955,503.809547 C2101.79852,503.807416 2091.07248,496.790044 2091.07248,488.213255 C2091.07248,479.636466 2101.79852,472.619093 2114.90955,472.616963 L2188.12644,472.616963 C2196.6996,472.616963 2203.71401,465.59959 2203.71401,457.020671 C2203.71401,448.441752 2196.6996,441.424379 2188.12644,441.424379 L2184.55322,441.424379 C2177.60695,439.23651 2172.607,433.497347 2172.607,426.788875 C2172.607,418.212087 2180.7628,411.194714 2190.73075,411.192584 L2263.94551,411.192584 C2272.51868,411.192584 2279.53522,404.175211 2279.53522,395.596292 L2279.53522,395.596292 C2279.53522,387.017373 2272.51868,380 2263.94551,380" id="cloud_03" opacity="0.08" transform="translate(2042.267610, 457.500000) rotate(-180.000000) translate(-2042.267610, -457.500000) "></path>
        </g>
    </g>
</svg>