<?xml version="1.0" encoding="UTF-8"?>
<svg width="25px" height="45px" viewBox="0 0 25 45" version="1.1" xmlns="http://www.w3.org/2000/svg" xmlns:xlink="http://www.w3.org/1999/xlink">
    <defs></defs>
    <g id="Lot1" stroke="none" stroke-width="1" fill="none" fill-rule="evenodd">
        <g id="UI-Page-404" transform="translate(-249.000000, -250.000000)" fill="#FFC64C">
            <path d="M253.349402,274.564843 L258.369851,274.564843 C258.799195,274.564843 259.206664,274.753876 259.485459,275.082742 C259.763825,275.411177 259.885208,275.845781 259.817868,276.272617 L258.237316,286.252542 L268.635073,268.807957 L265.811526,268.807957 C265.32342,268.807957 264.867484,268.563681 264.594694,268.156266 C264.322333,267.748852 264.269147,267.231384 264.453581,266.776495 L270.045345,252.950733 L258.782467,252.950733 L253.349402,274.564843 Z M255.595629,295.027057 C255.428781,295.027057 255.25936,294.998141 255.094228,294.937719 C254.434556,294.696033 254.037381,294.017153 254.148041,293.319283 L256.651189,277.515576 L251.466036,277.515576 C251.01396,277.515576 250.587189,277.305826 250.309252,276.946749 C250.031744,276.587672 249.933952,276.119836 250.044612,275.678327 L256.219272,251.113484 C256.383975,250.458773 256.969444,250 257.641125,250 L272.225091,250 C272.713196,250 273.169133,250.244276 273.441923,250.65169 C273.713855,251.059536 273.767469,251.576573 273.583036,252.031461 L267.991271,265.857223 L271.224003,265.857223 C271.751998,265.857223 272.239674,266.142931 272.499597,266.605588 C272.759948,267.068245 272.753085,267.635777 272.481153,268.091529 L256.853637,294.310197 C256.582563,294.765086 256.099175,295.027057 255.595629,295.027057 L255.595629,295.027057 Z" id="eclair"></path>
        </g>
    </g>
</svg>