<?xml version="1.0" encoding="UTF-8"?>
<svg width="389px" height="92px" viewBox="0 0 389 92" version="1.1" xmlns="http://www.w3.org/2000/svg" xmlns:xlink="http://www.w3.org/1999/xlink">
    <defs></defs>
    <g id="Lot1" stroke="none" stroke-width="1" fill="none" fill-rule="evenodd" opacity="0.06">
        <g id="UI-Page-404" transform="translate(-2959.000000, -185.000000)" fill="#000000">
            <path d="M3332.79219,185 L3022.58402,185 C3014.21765,185 3007.37206,191.848484 3007.37206,200.216314 C3007.37206,208.586222 3014.21765,215.434706 3022.58402,215.434706 L3066.4249,215.434706 C3079.21442,215.434706 3089.67914,222.281112 3089.67914,230.648941 C3089.67914,239.016771 3079.21234,245.865255 3066.42074,245.865255 L2977.30754,245.865255 L2974.20989,245.865255 C2965.84351,245.865255 2959,252.711661 2959,261.07949 C2959,269.449398 2965.84351,276.297883 2974.20989,276.297883 L3284.41806,276.297883 C3292.78235,276.297883 3299.62794,269.449398 3299.62794,261.07949 C3299.62794,252.711661 3292.78235,245.865255 3284.41806,245.865255 L3261.35911,245.865255 C3248.56959,245.863177 3238.10487,239.016771 3238.10487,230.648941 C3238.10487,222.281112 3248.56959,215.434706 3261.35911,215.434706 L3332.79219,215.434706 C3341.15649,215.434706 3348,208.586222 3348,200.216314 C3348,191.848484 3341.15649,185 3332.79219,185" id="Nuage"></path>
        </g>
    </g>
</svg>