<?xml version="1.0" encoding="UTF-8"?>
<svg width="28px" height="43px" viewBox="0 0 28 43" version="1.1" xmlns="http://www.w3.org/2000/svg" xmlns:xlink="http://www.w3.org/1999/xlink">
    <defs></defs>
    <g id="Lot1" stroke="none" stroke-width="1" fill="none" fill-rule="evenodd">
        <g id="UI-Page-404" transform="translate(-397.000000, -252.000000)" fill="#FFC64C">
            <path d="M404.67664,275.317688 C407.793568,276.104122 409.205742,276.616238 410.235249,277.303253 C411.332524,278.034093 412.041858,278.983253 412.181452,279.906441 C412.282901,280.575601 412.076756,281.23218 411.568698,281.857108 C411.128003,282.399659 410.046959,282.826963 408.911133,282.551021 C407.167017,282.126151 405.86035,280.227021 405.232176,277.203021 C405.086901,276.503021 404.901452,275.874441 404.67664,275.317688 L404.67664,275.317688 Z M418.487945,288.858731 C416.374959,290.890963 413.610263,291.992702 410.915771,291.892876 C404.653104,291.650209 400.529394,287.83247 399.884176,281.68018 L399.772988,280.638093 C399.354611,276.781398 399.301452,275.383021 400.343945,274.833978 C400.451887,274.77676 400.628003,274.706151 400.839829,274.706151 C400.966032,274.706151 401.10522,274.731717 401.249684,274.799485 C401.907075,275.109108 402.467481,276.170267 402.787249,277.710267 C403.914553,283.135775 406.73809,284.591775 408.320292,284.977282 C410.253104,285.447601 412.385568,284.811717 413.507191,283.432006 C414.463249,282.255195 414.858901,280.906325 414.650727,279.532702 C414.402379,277.892064 413.3258,276.361804 411.62064,275.225166 C410.027887,274.162789 407.95751,273.540702 404.196582,272.626441 C402.521046,272.219021 401.431481,271.509282 401.282147,270.727717 C401.193278,270.26105 401.455829,269.798035 401.761394,269.581746 C402.725162,268.900818 405.869684,269.458789 408.64493,269.951833 C410.06035,270.203427 411.524061,270.463543 413.012524,270.64534 C416.214263,271.036528 417.529046,273.097572 417.583829,273.185224 L419.723191,271.897224 C419.646495,271.768992 417.812292,268.768528 413.439829,268.182557 C412.662321,267.560876 410.119191,265.534731 407.966437,263.900586 C405.593742,262.098847 404.535423,260.52963 405.136003,259.702209 C405.825858,258.752644 407.552119,259.738325 407.891365,259.946093 C411.195365,261.964528 417.362669,266.931485 419.08122,268.488122 C421.499771,270.677398 421.470147,274.18105 421.469336,274.211485 L421.468524,274.250035 L421.746495,281.590499 C421.740003,284.224122 420.553046,286.871949 418.487945,288.858731 L418.487945,288.858731 Z M413.015771,257.271079 C412.474437,255.766383 412.699655,254.753108 413.186205,254.564412 C413.47635,254.452818 413.653278,254.499891 413.787191,254.563601 C414.328119,254.816006 414.920582,255.72418 415.332872,256.933862 C415.543887,257.553108 416.804698,261.132644 417.899133,264.235369 C416.886263,263.414441 415.718379,262.48963 414.523713,261.576992 C414.297278,260.914731 413.661394,259.062673 413.015771,257.271079 L413.015771,257.271079 Z M423.966611,274.225688 C423.969858,273.774441 423.916698,270.470441 421.785452,267.743891 C421.074901,265.731543 418.026553,257.09618 417.69664,256.128354 C417.234843,254.773804 416.364814,253.009804 414.842669,252.300064 C414.033916,251.923485 413.149278,251.900354 412.283713,252.236354 C410.65322,252.868992 409.52064,254.932876 410.666205,258.117166 C410.77009,258.406093 410.873974,258.696238 410.975829,258.983137 C410.339539,258.54447 409.73693,258.147195 409.193568,257.815253 C406.727133,256.307311 404.397858,256.468412 403.115539,258.234847 C401.031365,261.105456 404.313858,264.262963 406.456466,265.889804 C407.081394,266.363775 407.740003,266.871833 408.377916,267.368528 C404.828814,266.743601 402.022321,266.336586 400.318785,267.543427 C399.166321,268.358673 398.567771,269.826847 398.829104,271.196412 C398.899307,271.563253 399.052292,272.03276 399.377336,272.527427 C399.310785,272.557456 399.24464,272.58992 399.178901,272.624818 C396.542843,274.014267 396.856119,276.905572 397.289916,280.907137 L397.400698,281.939891 C398.174959,289.327833 403.316814,294.097572 410.819191,294.387717 C410.968119,294.393804 411.11664,294.396644 411.265162,294.396644 C414.493684,294.396644 417.734379,293.048992 420.219075,290.658441 C422.776814,288.197688 424.244176,284.883949 424.244176,281.567369 L423.966611,274.225688 Z" id="okay"></path>
        </g>
    </g>
</svg>