<?xml version="1.0" encoding="UTF-8"?>
<svg width="49px" height="49px" viewBox="0 0 49 49" version="1.1" xmlns="http://www.w3.org/2000/svg" xmlns:xlink="http://www.w3.org/1999/xlink">
    <defs></defs>
    <g id="Lot1" stroke="none" stroke-width="1" fill="none" fill-rule="evenodd">
        <g id="UI-Page-404" transform="translate(-100.000000, -248.000000)" fill="#FFC64C">
            <path d="M135.828527,290.248016 L135.819043,290.232953 C133.5496,291.649961 128.988956,289.791673 124.236961,285.159063 C124.404324,284.704394 124.500279,284.215693 124.500279,283.703562 C124.500279,281.374426 122.611308,279.485455 120.281614,279.485455 C120.000444,279.485455 119.725969,279.514465 119.460419,279.566905 C118.827787,278.689365 118.205196,277.763847 117.59711,276.79091 C117.205481,276.164414 116.835608,275.540708 116.484704,274.921465 C117.525144,273.048672 118.735179,271.154122 120.093052,269.292487 C121.494996,267.370043 122.91033,265.667961 124.303348,264.176756 C127.410723,263.964763 130.294946,264.046771 132.872895,264.353045 C133.183075,266.376464 134.92644,267.926804 137.036888,267.926804 C138.437717,267.926804 139.675646,267.241731 140.442727,266.191249 C143.525554,267.462651 145.365432,269.164175 145.499323,270.906983 L145.500438,270.906983 C145.540048,271.433618 145.566826,271.963601 145.566826,272.499721 C145.566826,279.947935 141.678424,286.500757 135.828527,290.248016 M113.356688,290.366844 C112.229219,289.33254 112.091423,286.702151 113.001879,283.238293 C113.391277,281.755456 113.954732,280.187264 114.664352,278.574442 C114.671604,278.586158 114.678299,278.597873 114.685551,278.609589 C115.325994,279.634408 115.985404,280.614598 116.658762,281.552947 C116.28331,282.183348 116.064065,282.916956 116.064065,283.703562 C116.064065,286.033814 117.953594,287.922227 120.281614,287.922227 C120.824428,287.922227 121.342138,287.816231 121.819123,287.628784 C124.334032,290.093484 126.893013,291.924994 129.310293,293.006717 C127.764417,293.369337 126.1555,293.567384 124.500279,293.567384 C120.410484,293.567384 116.591816,292.391937 113.356688,290.366844 M103.501793,274.11868 L103.515182,274.117564 C103.374597,272.284381 105.086721,270.234183 108.227568,268.444514 C108.754204,268.830565 109.372332,269.096114 110.045131,269.204342 C110.717373,271.06542 111.566461,272.991211 112.58905,274.947127 C111.288639,277.513361 110.298965,280.02827 109.684185,282.366332 C109.266893,283.956281 109.039279,285.421265 108.994649,286.743434 C105.887275,283.363258 103.872223,278.967746 103.501793,274.11868 M108.162297,259.218904 C108.139424,259.985985 108.169549,260.791559 108.24821,261.628932 C107.190475,262.396013 106.499266,263.638405 106.499266,265.045928 C106.499266,265.188187 106.507076,265.32933 106.521023,265.468799 C105.648503,265.966983 104.859108,266.490271 104.156741,267.034201 C104.936095,264.136031 106.317956,261.482768 108.162297,259.218904 M133.32366,253.376817 C129.966357,254.599126 126.239739,257.357827 122.775882,260.854599 C119.699748,261.137443 116.741327,261.675794 114.026141,262.434506 C113.439254,261.690857 112.608575,261.150832 111.654048,260.933818 C111.418066,257.88781 112.009416,255.640682 113.319868,254.657145 C116.562807,252.618105 120.394863,251.433174 124.500279,251.433174 C127.650052,251.433174 130.637482,252.132752 133.32366,253.376817 M114.86965,265.76001 C116.261553,265.367265 117.728211,265.038118 119.250657,264.776474 C118.58511,265.590974 117.939647,266.424442 117.322077,267.271299 C116.353045,268.600162 115.45319,269.949108 114.628648,271.299728 C114.160589,270.278813 113.746086,269.277982 113.389603,268.307276 C114.157799,267.676875 114.695035,266.780367 114.86965,265.76001 M143.748147,263.953047 C142.955962,263.51344 142.084558,263.112327 141.141746,262.752496 C140.70716,260.884167 139.036319,259.491706 137.036888,259.491706 C135.742614,259.491706 134.585577,260.075803 133.811802,260.99351 C131.992565,260.758644 130.057291,260.632006 128.029966,260.62308 C132.583915,256.806087 136.455023,255.479455 138.123632,256.449603 C140.518598,258.485854 142.452199,261.046509 143.748147,263.953047 M148.922455,270.64478 L148.922455,270.64478 L148.922455,270.643107 C148.414229,263.898375 145.166828,257.907893 140.287079,253.785183 L140.297121,253.772352 C140.265322,253.749479 140.231849,253.731627 140.20005,253.70987 C135.945123,250.148384 130.469562,248 124.500279,248 C119.810766,248 115.426411,249.326631 111.698678,251.620621 L111.690868,251.608906 C111.581524,251.676967 111.47999,251.753954 111.375667,251.828151 C104.544465,256.180149 100,263.816925 100,272.499721 C100,281.171359 104.532192,288.799768 111.348331,293.155113 C111.397425,293.193048 111.442055,293.236005 111.492264,293.272267 L111.504537,293.25553 C115.274669,295.624276 119.728758,297.000558 124.500279,297.000558 C138.009268,297.000558 149,286.009825 149,272.499721 C149,271.874899 148.968759,271.257887 148.922455,270.64478" id="Ico-Planete"></path>
        </g>
    </g>
</svg>