<?xml version="1.0" encoding="UTF-8"?>
<svg width="45px" height="43px" viewBox="0 0 45 43" version="1.1" xmlns="http://www.w3.org/2000/svg" xmlns:xlink="http://www.w3.org/1999/xlink">
    <defs>
        <path d="M490.705723,276.556068 C496.491304,276.670549 501.828011,279.640716 504.980985,284.5014 C505.445696,285.218149 505.241621,286.176078 504.524871,286.640788 C504.26514,286.809116 503.97283,286.890112 503.684591,286.890112 C503.177799,286.890112 502.681866,286.641693 502.385483,286.184675 C499.791791,282.186443 495.402605,279.743432 490.644184,279.649313 C485.872189,279.540262 481.391147,281.825806 478.639082,285.728562 C478.146316,286.426759 477.181148,286.593729 476.483403,286.101869 C475.785206,285.609556 475.618236,284.644388 476.110549,283.94619 C479.454927,279.203155 484.907925,276.449732 490.705723,276.556068 Z M490.895273,267.029634 C499.750568,267.206107 507.957894,271.727421 512.8498,279.12433 C513.320845,279.837007 513.124916,280.796293 512.412691,281.267791 C512.150245,281.441549 511.853409,281.524808 511.560646,281.524808 C511.058831,281.524808 510.566971,281.280914 510.268777,280.830683 C505.938416,274.282198 498.672729,270.278989 490.833281,270.122427 C483.011028,269.967221 475.574751,273.677215 470.986468,280.048774 C470.486915,280.741994 469.52039,280.898557 468.826717,280.399909 C468.133497,279.900809 467.976935,278.93383 468.475582,278.240611 C473.658442,271.045513 482.029117,266.859497 490.895273,267.029634 Z M519.811999,274.371385 C520.286212,275.082252 520.093902,276.042443 519.383488,276.516203 C519.119684,276.692223 518.821491,276.776387 518.526465,276.776387 C518.026912,276.776387 517.53641,276.534756 517.238669,276.087692 C511.370282,267.287148 501.562035,261.907002 491.001744,261.695687 C480.446883,261.470798 470.424607,266.471303 464.212325,275.032478 C463.71051,275.72434 462.743532,275.878188 462.052122,275.37592 C461.360259,274.874105 461.206412,273.907127 461.708679,273.215264 C468.51599,263.835076 479.48081,258.370766 491.063736,258.602442 C502.635802,258.834119 513.382973,264.729203 519.811999,274.371385 Z" id="path-1"></path>
    </defs>
    <g id="Lot1" stroke="none" stroke-width="1" fill="none" fill-rule="evenodd">
        <g id="UI-Page-404" transform="translate(-469.000000, -253.000000)">
            <mask id="mask-2" fill="white">
                <use xlink:href="#path-1"></use>
            </mask>
            <use id="Arc-en-ciel" fill="#FFC64C" transform="translate(490.742736, 272.742736) rotate(-45.000000) translate(-490.742736, -272.742736) " xlink:href="#path-1"></use>
        </g>
    </g>
</svg>