<?xml version="1.0" encoding="UTF-8"?>
<svg width="115px" height="69px" viewBox="0 0 115 69" version="1.1" xmlns="http://www.w3.org/2000/svg" xmlns:xlink="http://www.w3.org/1999/xlink">
    <defs></defs>
    <g id="Lot1" stroke="none" stroke-width="1" fill="none" fill-rule="evenodd">
        <g id="UI-Page-404" transform="translate(-91.000000, -86.000000)">
            <g id="Fusée" transform="translate(92.000000, 86.000000)">
                <g id="fusee">
                    <path d="M16.9171276,6.54527387 L37.434495,0 L52.9713322,6.74198024 C52.9713322,6.74198024 61.5589206,1.34793184 81.2263392,1.17037388 C100.893758,0.992815921 113.964332,8.52104138 113.964332,8.52104138 C113.964332,8.52104138 105.546168,23.3720821 91.7465022,33.1662025 C77.946836,42.9603228 68.4601656,46.1540451 66.3824503,46.2944668 C64.5724266,48.513361 56.7370851,61.6039088 56.7370851,61.6039088 L36.6811185,68.532731 L42.5974395,45.9573387 L34.2397043,43.5695903 C34.2397043,43.5695903 35.5634783,38.3443961 34.506831,34.9359795 C33.4501838,31.527563 29.1377528,27.9508725 29.1377528,27.9508725 L34.2029955,20.6750579 L16.9171276,6.54527387 Z" id="Combined-Shape-Copy" fill="#FFFFFF"></path>
                    <path d="M22.3602123,48.2591239 C28.0787475,46.3947949 29.8449146,41.3517723 28.222417,36.358238 C26.5999193,31.3647037 21.3447324,28.596793 16.4846286,30.1759365 C11.6245247,31.75508 2.97648873,38.3959052 0.00170129805,45.731192 C5.86086934,48.9909157 16.6416771,50.123453 22.3602123,48.2591239 Z" id="Oval-4-Copy-3" fill="#FFC64C"></path>
                </g>
                <g id="vitesse" opacity="0.2" transform="translate(1.965517, 20.371429)" stroke="#FFFFFF" stroke-width="5" stroke-linecap="round">
                    <path d="M70.4339207,32.4923084 L85.5,27.0983283" id="Line-Copy"></path>
                    <path d="M84.4955947,35.3177265 L107.848018,27.0983283" id="Line-Copy-3"></path>
                    <path d="M0.125550661,5.52240815 L15.19163,0.128428096" id="Line-Copy-2"></path>
                    <path d="M7.15638767,41.9959875 L44.5704846,28.1257531" id="Line-Copy-4"></path>
                </g>
            </g>
        </g>
    </g>
</svg>