<?xml version="1.0" encoding="UTF-8" standalone="no"?>
<svg width="55px" height="36px" viewBox="0 0 55 36" version="1.1" xmlns="http://www.w3.org/2000/svg" xmlns:xlink="http://www.w3.org/1999/xlink">
    <defs></defs>
    <g id="Lot1" stroke="none" stroke-width="1" fill="none" fill-rule="evenodd">
        <g id="UI-KIT-page-404" transform="translate(-1539.000000, -506.000000)" fill="#FFC64C">
            <path d="M1582.95462,538.458693 L1550.66466,538.458693 C1546.08415,538.458693 1542.35816,534.728905 1542.35816,530.143841 C1542.35816,525.559269 1546.08415,521.829481 1550.66466,521.829481 C1551.59186,521.829481 1552.34374,521.077428 1552.34374,520.148913 C1552.34374,514.200324 1557.17913,509.360643 1563.12245,509.360643 C1567.48491,509.360643 1571.39113,511.968251 1573.07414,516.003776 C1573.34474,516.653097 1573.99348,517.064514 1574.6938,517.035513 C1574.74831,517.033056 1574.80331,517.029615 1574.85881,517.025683 L1574.91823,517.021259 C1578.39081,517.021259 1581.24117,519.851041 1581.27211,523.329654 C1581.28046,524.247355 1582.023,524.988594 1582.9394,524.994984 C1582.95659,524.994984 1584.69656,525.030374 1586.40069,525.888599 C1588.60721,526.999966 1589.67978,528.910082 1589.67978,531.727576 C1589.67978,535.439177 1586.66343,538.458693 1582.95462,538.458693 M1584.49423,521.764598 C1588.08271,522.329375 1593.03793,524.851455 1593.03793,531.727576 C1593.03793,537.291783 1588.51439,541.819337 1582.95462,541.819337 L1550.66466,541.819337 C1544.23269,541.819337 1539,536.582002 1539,530.143841 C1539,524.246372 1543.39045,519.356554 1549.07251,518.576976 C1549.8563,511.512596 1555.85855,506 1563.12245,506 C1568.46809,506 1573.29072,508.984617 1575.70056,513.692074 C1580.13619,514.050896 1583.75954,517.428744 1584.49423,521.764598 Z M1574.41593,522.229052 C1573.48873,522.229052 1572.73685,522.981104 1572.73685,523.909128 C1572.73685,527.917126 1569.47937,531.177496 1565.47542,531.177496 C1561.47048,531.177496 1558.21251,527.917126 1558.21251,523.909128 C1558.21251,522.981104 1557.46063,522.229052 1556.53343,522.229052 C1555.60623,522.229052 1554.85435,522.981104 1554.85435,523.909128 C1554.85435,529.770223 1559.61902,534.538139 1565.47542,534.538139 C1571.33083,534.538139 1576.09501,529.770223 1576.09501,523.909128 C1576.09501,522.981104 1575.34313,522.229052 1574.41593,522.229052 Z" id="yellow_cloud"></path>
        </g>
    </g>
</svg>