<?xml version="1.0" encoding="UTF-8"?>
<svg width="31px" height="35px" viewBox="0 0 31 35" version="1.1" xmlns="http://www.w3.org/2000/svg" xmlns:xlink="http://www.w3.org/1999/xlink">
    <!-- Generator: Sketch 46 (44423) - http://www.bohemiancoding.com/sketch -->
    <title>Ico - Stars 1 D</title>
    <desc>Created with Sketch.</desc>
    <defs></defs>
    <g id="Lot1" stroke="none" stroke-width="1" fill="none" fill-rule="evenodd">
        <g id="UI---LINDT" transform="translate(-238.000000, -2607.000000)" fill="#FFC64C">
            <path d="M262.722586,2615.78157 C262.471679,2616.0368 262.256186,2616.34097 262.07143,2616.67675 C261.888011,2616.35185 261.675859,2616.05549 261.430298,2615.80536 C261.1981,2615.5695 260.941847,2615.36422 260.67056,2615.18546 C260.960223,2615.00194 261.23318,2614.78851 261.477405,2614.54007 C261.714614,2614.29877 261.920084,2614.01295 262.09749,2613.69756 C262.273559,2614.00819 262.476356,2614.28993 262.710225,2614.52817 C262.948102,2614.77015 263.211371,2614.97883 263.489674,2615.15929 C263.215046,2615.33839 262.955786,2615.54435 262.722586,2615.78157 M267.857997,2613.97455 L267.848308,2613.97455 C267.838285,2613.97421 267.82726,2613.97455 267.816235,2613.97455 C267.11463,2613.97455 265.207602,2613.78219 264.325585,2612.88565 C263.569523,2612.11519 263.230748,2609.67434 263.230748,2608.17862 L263.230748,2608.16163 C263.230748,2607.52066 262.720582,2607.00102 262.090474,2607 L262.088803,2607 C261.459364,2607 260.948529,2607.51794 260.946859,2608.15823 L260.946859,2608.17149 C260.942849,2609.68351 260.605077,2612.14204 259.862379,2612.89686 C258.991721,2613.78287 257.042263,2613.97455 256.344333,2613.97455 C256.335313,2613.97421 256.327294,2613.97455 256.318942,2613.97455 C255.694514,2613.97455 255.186352,2614.48535 255.178333,2615.12157 C255.170649,2615.76118 255.6738,2616.28728 256.302571,2616.29781 C256.976111,2616.30937 258.91989,2616.53877 259.814937,2617.44857 C260.569329,2618.2163 260.930822,2620.56234 260.946859,2621.98396 C260.952872,2622.62119 261.462371,2623.13404 262.088803,2623.13404 L262.089806,2623.13404 C262.716572,2623.1337 263.226071,2622.61847 263.230748,2621.9809 C263.241773,2620.54534 263.592242,2618.18266 264.337279,2617.42478 C265.220298,2616.52721 267.179779,2616.30733 267.863676,2616.29815 L267.872029,2616.29815 C267.873365,2616.29815 267.87704,2616.29883 267.876372,2616.29781 L267.878043,2616.29781 L267.879713,2616.29781 L267.881384,2616.29781 L267.883054,2616.29781 C267.939517,2616.29645 267.994977,2616.29101 268.048766,2616.28184 L268.0491,2616.28184 C268.049435,2616.28184 268.050103,2616.2815 268.050437,2616.2815 C268.051105,2616.28116 268.051439,2616.28116 268.052107,2616.28116 C268.05311,2616.28116 268.053444,2616.28116 268.053778,2616.28082 C268.054446,2616.28082 268.054446,2616.28048 268.055114,2616.28082 C268.596686,2616.18464 269.005621,2615.70136 268.999942,2615.12394 C268.99326,2614.48671 268.483427,2613.97455 267.857997,2613.97455 M250.873828,2630.4553 C250.10975,2631.2496 249.551386,2632.35717 249.143262,2633.556 C248.731175,2632.3781 248.171159,2631.28906 247.411044,2630.49887 C246.677345,2629.73682 245.770622,2629.16863 244.829558,2628.74523 C245.806283,2628.33246 246.745696,2627.7653 247.494254,2626.98746 C248.228614,2626.22472 248.770468,2625.15284 249.170338,2623.97768 C249.572188,2625.13774 250.116685,2626.20002 250.853356,2626.96584 C251.59465,2627.73579 252.509628,2628.30055 253.460267,2628.71503 C252.51326,2629.13329 251.603895,2629.69702 250.873828,2630.4553 M259.198773,2627.50556 C259.190849,2627.5059 259.184245,2627.50556 259.169716,2627.5059 C257.885907,2627.52375 254.225335,2627.15181 252.449532,2625.30724 C250.678351,2623.46541 250.294001,2618.2206 250.294331,2616.31461 L250.294331,2616.28304 C250.294331,2615.63593 249.789789,2615.11097 249.167366,2615.10994 L249.165385,2615.10994 C248.543622,2615.10994 248.03875,2615.63284 248.036769,2616.27927 L248.036769,2616.31049 C248.031486,2618.23432 247.639541,2623.52031 245.898078,2625.32851 C243.826087,2627.48154 239.296105,2627.50556 239.140912,2627.50556 L239.128034,2627.50556 C238.510234,2627.50556 238.007013,2628.02229 238.000078,2628.66528 C237.992814,2629.31136 238.490752,2629.84181 239.112515,2629.85142 C239.158412,2629.85211 243.686084,2629.94715 245.814868,2632.15782 C247.583407,2633.99553 248.018278,2639.04786 248.036769,2640.83959 C248.043373,2641.48259 248.546924,2642 249.165385,2642 L249.167696,2642 C249.786817,2641.99897 250.289708,2641.47881 250.294331,2640.83513 C250.306548,2639.0259 250.721277,2633.9324 252.470004,2632.1139 C254.558835,2629.94475 259.087166,2629.85348 259.205707,2629.85142 L259.212642,2629.85142 C259.835064,2629.84353 260.333663,2629.31342 260.327389,2628.66665 C260.320785,2628.02297 259.816903,2627.50556 259.198773,2627.50556" id="Ico---Stars-1-D"></path>
        </g>
    </g>
</svg>