<?xml version="1.0" encoding="UTF-8" standalone="no"?>
<svg width="250px" height="169px" viewBox="0 0 250 169" version="1.1" xmlns="http://www.w3.org/2000/svg" xmlns:xlink="http://www.w3.org/1999/xlink">
    <defs></defs>
    <g id="Lot1" stroke="none" stroke-width="1" fill="none" fill-rule="evenodd">
        <g id="UI-Qui-sommes-nous" transform="translate(-649.000000, -2111.000000)">
            <g id="QUI-SOMMES-NOUS" transform="translate(409.000000, 258.000000)">
                <g id="VISUEL-2004-2007" transform="translate(240.000000, 1841.000000)">
                    <path d="M186.860338,106.043642 L186.839926,106.040726 C186.66934,86.5647476 170.84857,70.8329157 151.330309,70.8329157 C150.894367,70.8329157 150.464256,70.8751977 150.028314,70.8926937 C141.73083,50.9938946 122.104677,37 99.1994793,37 C68.7884922,37 44.1380675,61.6489667 44.1380675,92.0555798 C19.766121,92.0555798 0,111.817327 0,136.195105 C0,160.571426 19.766121,180.333173 44.1380675,180.333173 L186.860338,180.333173 C207.371497,180.333173 224,163.70467 224,143.190595 C224,122.670687 207.371497,106.043642 186.860338,106.043642" id="nuage" fill="#FFC64C"></path>
                    <g id="etoiles" transform="translate(0.000000, 12.000000)" fill="#1BBA96">
                        <path d="M39.1148,66.482 C36.8008,68.797 35.1098,72.025 33.8738,75.519 C32.6258,72.086 30.9298,68.912 28.6278,66.609 C26.4058,64.388 23.6598,62.732 20.8098,61.498 C23.7678,60.295 26.6128,58.642 28.8798,56.375 C31.1038,54.152 32.7448,51.028 33.9558,47.603 C35.1728,50.984 36.8218,54.08 39.0528,56.312 C41.2978,58.556 44.0688,60.202 46.9478,61.41 C44.0798,62.629 41.3258,64.272 39.1148,66.482 M64.3268,57.885 C64.3028,57.886 64.2828,57.885 64.2388,57.886 C60.3508,57.938 49.2648,56.854 43.8868,51.478 C38.5228,46.11 37.3588,30.824 37.3598,25.269 L37.3598,25.177 C37.3598,23.291 35.8318,21.761 33.9468,21.758 L33.9408,21.758 C32.0578,21.758 30.5288,23.282 30.5228,25.166 L30.5228,25.257 C30.5068,30.864 29.3198,46.27 24.0458,51.54 C17.7708,57.815 4.0518,57.885 3.5818,57.885 L3.5428,57.885 C1.6718,57.885 0.1478,59.391 0.1268,61.265 C0.1048,63.148 1.6128,64.694 3.4958,64.722 C3.6348,64.724 17.3468,65.001 23.7938,71.444 C29.1498,76.8 30.4668,91.525 30.5228,96.747 C30.5428,98.621 32.0678,100.129 33.9408,100.129 L33.9478,100.129 C35.8228,100.126 37.3458,98.61 37.3598,96.734 C37.3968,91.461 38.6528,76.616 43.9488,71.316 C50.2748,64.994 63.9888,64.728 64.3478,64.722 L64.3688,64.722 C66.2538,64.699 67.7638,63.154 67.7448,61.269 C67.7248,59.393 66.1988,57.885 64.3268,57.885" id="Fill-58"></path>
                        <path d="M73.5328,26.4645 C72.7818,27.2155 72.1368,28.1105 71.5838,29.0985 C71.0348,28.1425 70.3998,27.2705 69.6648,26.5345 C68.9698,25.8405 68.2028,25.2365 67.3908,24.7105 C68.2578,24.1705 69.0748,23.5425 69.8058,22.8115 C70.5158,22.1015 71.1308,21.2605 71.6618,20.3325 C72.1888,21.2465 72.7958,22.0755 73.4958,22.7765 C74.2078,23.4885 74.9958,24.1025 75.8288,24.6335 C75.0068,25.1605 74.2308,25.7665 73.5328,26.4645 M88.9038,21.1475 L88.8748,21.1475 C88.8448,21.1465 88.8118,21.1475 88.7788,21.1475 C86.6788,21.1475 80.9708,20.5815 78.3308,17.9435 C76.0678,15.6765 75.0538,8.4945 75.0538,4.0935 L75.0538,4.0435 C75.0538,2.1575 73.5268,0.6285 71.6408,0.6255 L71.6358,0.6255 C69.7518,0.6255 68.2228,2.1495 68.2178,4.0335 L68.2178,4.0725 C68.2058,8.5215 67.1948,15.7555 64.9718,17.9765 C62.3658,20.5835 56.5308,21.1475 54.4418,21.1475 C54.4148,21.1465 54.3908,21.1475 54.3658,21.1475 C52.4968,21.1475 50.9758,22.6505 50.9518,24.5225 C50.9288,26.4045 52.4348,27.9525 54.3168,27.9835 C56.3328,28.0175 62.1508,28.6925 64.8298,31.3695 C67.0878,33.6285 68.1698,40.5315 68.2178,44.7145 C68.2358,46.5895 69.7608,48.0985 71.6358,48.0985 L71.6388,48.0985 C73.5148,48.0975 75.0398,46.5815 75.0538,44.7055 C75.0868,40.4815 76.1358,33.5295 78.3658,31.2995 C81.0088,28.6585 86.8738,28.0115 88.9208,27.9845 L88.9458,27.9845 C88.9498,27.9845 88.9608,27.9865 88.9588,27.9835 L88.9638,27.9835 L88.9688,27.9835 L88.9738,27.9835 L88.9788,27.9835 C89.1478,27.9795 89.3138,27.9635 89.4748,27.9365 L89.4758,27.9365 C89.4768,27.9365 89.4788,27.9355 89.4798,27.9355 C89.4818,27.9345 89.4828,27.9345 89.4848,27.9345 C89.4878,27.9345 89.4888,27.9345 89.4898,27.9335 C89.4918,27.9335 89.4918,27.9325 89.4938,27.9335 C91.1148,27.6505 92.3388,26.2285 92.3218,24.5295 C92.3018,22.6545 90.7758,21.1475 88.9038,21.1475" id="Fill-59"></path>
                    </g>
                    <g id="fusee" transform="translate(182.000000, 79.500000) rotate(39.000000) translate(-182.000000, -79.500000) translate(140.000000, 12.000000)" fill="#1BBA96">
                        <path d="M38.1802,112.0221 L38.1802,112.0221 C35.8102,118.0131 29.8012,122.8911 25.8102,125.6121 C24.7502,120.2261 23.8922,112.2851 25.9152,107.1711 C26.9392,104.5841 29.4282,103.0021 32.0572,103.0021 C32.8632,103.0021 33.6822,103.1511 34.4762,103.4651 C36.1132,104.1121 37.4002,105.3591 38.1002,106.9761 C38.8002,108.5931 38.8282,110.3851 38.1802,112.0221 M36.9902,97.1071 C30.1012,94.3821 22.2832,97.7721 19.5582,104.6561 C15.4152,115.1271 20.1022,131.2831 20.3042,131.9661 C20.5932,132.9471 21.3072,133.7471 22.2492,134.1461 C22.6762,134.3271 23.1292,134.4171 23.5822,134.4171 C24.1282,134.4171 24.6722,134.2861 25.1682,134.0271 C25.7682,133.7121 39.9262,126.1941 44.5372,114.5381 C45.8582,111.2031 45.8002,107.5521 44.3742,104.2601 C42.9492,100.9661 40.3262,98.4261 36.9902,97.1071" id="Fill-72"></path>
                        <path d="M55.4371,35.0441 C55.9291,33.7711 56.8881,32.7651 58.1381,32.2131 C58.8001,31.9211 59.5021,31.7741 60.2051,31.7741 C60.8291,31.7741 61.4541,31.8901 62.0521,32.1221 C64.6821,33.1421 65.9951,36.1121 64.9771,38.7411 C63.9581,41.3701 60.9901,42.6791 58.3591,41.6631 C55.7291,40.6441 54.4181,37.6761 55.4371,35.0441 M71.3531,41.2101 C73.7301,35.0661 70.6671,28.1301 64.5251,25.7481 C64.5241,25.7471 64.5231,25.7471 64.5231,25.7471 C61.5451,24.5941 58.2971,24.6701 55.3771,25.9591 C52.4551,27.2501 50.2111,29.6011 49.0611,32.5771 C46.6811,38.7221 49.7451,45.6581 55.8911,48.0391 C57.3041,48.5861 58.7591,48.8451 60.1911,48.8451 C64.9851,48.8451 69.5201,45.9401 71.3531,41.2101" id="Fill-73"></path>
                        <path d="M69.0533,102.5035 L59.9413,91.2825 C63.8533,87.6225 67.7573,83.3495 71.1963,78.4545 L74.8803,87.4595 L69.0533,102.5035 Z M48.2433,92.2445 C46.2473,90.0115 43.7683,88.2815 40.9543,87.1715 L40.8473,87.1275 C40.8193,87.1155 40.7903,87.1045 40.7623,87.0925 C38.5173,86.2235 36.1303,85.7865 33.7393,85.7865 C33.0033,85.7865 32.2673,85.8285 31.5353,85.9105 C29.7103,75.2535 29.0453,60.8575 34.2763,47.3505 C42.4663,26.1985 62.9223,13.0545 70.9143,8.5795 C73.9353,17.2805 80.5463,40.8765 72.3313,62.0865 C67.1173,75.5445 56.8403,85.6645 48.2433,92.2445 L48.2433,92.2445 Z M9.0433,79.2615 L14.8713,64.2175 L24.1053,59.8325 C23.2803,65.8255 23.2233,71.6705 23.5983,77.0655 L9.0433,79.2615 Z M75.6283,71.2325 C76.7643,69.0975 77.8073,66.8785 78.7063,64.5565 C89.9643,35.4935 76.4623,3.7345 75.8813,2.3975 C75.5153,1.5525 74.8233,0.8905 73.9613,0.5635 C73.1033,0.2355 72.1463,0.2685 71.3083,0.6565 C70.0003,1.2625 39.1463,15.8365 27.9013,44.8815 C27.0543,47.0665 26.3553,49.2685 25.7703,51.4715 L10.7083,58.6265 C9.9193,59.0015 9.3033,59.6645 8.9883,60.4795 L0.5403,82.2865 C0.1003,83.4225 0.2983,84.7075 1.0603,85.6585 C1.7143,86.4755 2.6993,86.9395 3.7283,86.9395 C3.8973,86.9395 4.0683,86.9265 4.2383,86.9015 L24.3053,83.8735 C24.6423,86.2905 25.0433,88.5705 25.4763,90.6615 C25.6723,91.6115 26.2623,92.4325 27.0993,92.9215 C27.9373,93.4115 28.9433,93.5215 29.8653,93.2255 C32.6503,92.3365 35.5523,92.4155 38.2603,93.4555 L38.3803,93.5055 C41.0063,94.5425 43.1553,96.3635 44.5933,98.7745 C45.0823,99.5945 45.8933,100.1725 46.8273,100.3685 C47.0603,100.4175 47.2953,100.4405 47.5293,100.4405 C48.2353,100.4405 48.9303,100.2225 49.5143,99.8055 C51.1933,98.6085 52.9693,97.2595 54.7883,95.7805 L67.4593,111.3865 C68.1143,112.1925 69.0923,112.6495 70.1133,112.6495 C70.2883,112.6495 70.4673,112.6365 70.6453,112.6085 C71.8483,112.4195 72.8603,111.6025 73.3003,110.4665 L81.7473,88.6595 C82.0643,87.8445 82.0553,86.9395 81.7243,86.1305 L75.6283,71.2325 Z" id="Fill-74"></path>
                    </g>
                </g>
            </g>
        </g>
    </g>
</svg>