<?xml version="1.0" encoding="UTF-8"?>
<svg width="91px" height="56px" viewBox="0 0 91 56" version="1.1" xmlns="http://www.w3.org/2000/svg" xmlns:xlink="http://www.w3.org/1999/xlink">
    <!-- Generator: Sketch 46 (44423) - http://www.bohemiancoding.com/sketch -->
    <title>Ico - Quote</title>
    <desc>Created with Sketch.</desc>
    <defs></defs>
    <g id="Lot1" stroke="none" stroke-width="1" fill="none" fill-rule="evenodd">
        <g id="UI---ERAM" transform="translate(-1867.000000, -3392.000000)" fill="#FFFFFF">
            <path d="M1948.17706,3431.78782 L1932.00803,3447.95684 L1932.1859,3434.50785 C1922.93034,3432.26602 1916.04192,3423.7297 1916.04192,3413.54137 C1916.04192,3401.6444 1925.43455,3392 1937.02096,3392 C1948.60736,3392 1958,3401.6444 1958,3413.54137 C1958,3421.2288 1954.07828,3427.97571 1948.17706,3431.78782 Z M1899.13514,3431.78782 L1882.96612,3447.95684 L1883.14398,3434.50785 C1873.88843,3432.26602 1867,3423.7297 1867,3413.54137 C1867,3401.6444 1876.39264,3392 1887.97904,3392 C1899.56545,3392 1908.95808,3401.6444 1908.95808,3413.54137 C1908.95808,3421.2288 1905.03636,3427.97571 1899.13514,3431.78782 Z" id="Ico---Quote"></path>
        </g>
    </g>
</svg>