<?xml version="1.0" encoding="UTF-8" standalone="no"?>
<svg width="210px" height="174px" viewBox="0 0 210 174" version="1.1" xmlns="http://www.w3.org/2000/svg" xmlns:xlink="http://www.w3.org/1999/xlink">
    <defs></defs>
    <g id="Lot1" stroke="none" stroke-width="1" fill="none" fill-rule="evenodd">
        <g id="UI" transform="translate(-3639.000000, -1438.000000)">
            <g id="NOS-VALEURS" transform="translate(3278.000000, 199.000000)">
                <g id="nuage-main" transform="translate(361.000000, 1239.000000)">
                    <path d="M141.872165,31.7183584 C141.463469,31.7183584 141.06024,31.7579979 140.651544,31.7744004 C132.872653,13.1192762 114.473134,0 92.9995118,0 C64.4892114,0 41.3794383,23.1084063 41.3794383,51.614606 C18.5307384,51.614606 0,70.1412439 0,92.9954112 C0,115.848212 18.5307384,134.374849 41.3794383,134.374849 L175.181567,134.374849 C194.410779,134.374849 210,118.785628 210,99.5536824 C210,80.3162691 194.410779,64.7284147 175.181567,64.7284147 C175.002506,46.4669509 160.170534,31.7183584 141.872165,31.7183584 Z" id="nuage" fill="#FFE76E"></path>
                    <path d="M136.617671,157.682859 C131.117671,158.703859 122.829671,160.104859 114.342671,160.492859 L79.3236708,162.654859 C77.4326708,162.613859 75.9076708,161.061859 75.9076708,159.160859 C75.9076708,157.233859 77.4736708,155.666859 79.4006708,155.666859 C79.4766708,155.666859 79.5536708,155.663859 79.6286708,155.658859 L107.628671,153.469859 C109.237671,153.343859 110.439671,151.937859 110.314671,150.328859 C110.187671,148.717859 108.770671,147.513859 107.173671,147.641859 L79.2766708,149.822859 C76.8926708,149.853859 74.7286708,150.790859 73.0936708,152.293859 L67.6506708,152.464859 C65.7236708,152.464859 64.1566708,150.898859 64.1566708,148.971859 C64.1566708,147.044859 65.7236708,145.478859 67.6506708,145.478859 C67.7216708,145.478859 67.7916708,145.475859 67.8616708,145.470859 L97.2366708,143.345859 C98.8466708,143.229859 100.056671,141.829859 99.9406708,140.219859 C99.8246708,138.610859 98.4396708,137.402859 96.8146708,137.515859 L67.5356708,139.633859 C64.8996708,139.665859 62.5296708,140.800859 60.8496708,142.589859 L59.6506708,142.589859 C57.7246708,142.589859 56.1566708,141.023859 56.1566708,139.096859 C56.1566708,137.169859 57.7246708,135.603859 59.6506708,135.603859 C59.7306708,135.603859 59.8106708,135.599859 59.8906708,135.593859 L94.8276708,132.718859 C96.4366708,132.585859 97.6336708,131.174859 97.5016708,129.566859 C97.3686708,127.957859 95.9536708,126.771859 94.3486708,126.892859 L61.2826708,129.613859 C61.2076708,129.325859 61.1576708,129.028859 61.1576708,128.721859 C61.1576708,126.794859 62.7236708,125.228859 64.6506708,125.228859 C64.7216708,125.228859 64.7916708,125.225859 64.8606708,125.220859 L100.850671,122.625859 C103.172671,127.178859 109.692671,137.555859 122.350671,141.235859 C123.904671,141.687859 125.521671,140.792859 125.972671,139.244859 C126.423671,137.694859 125.531671,136.073859 123.981671,135.621859 C110.746671,131.775859 105.340671,118.453859 105.289671,118.325859 C104.832671,117.153859 103.665671,116.424859 102.420671,116.468859 L87.4116708,117.224859 C81.5396708,117.708859 79.5086708,116.539859 78.9096708,116.014859 C78.6006708,115.744859 78.2806708,115.352859 78.2376708,114.489859 C78.1406708,112.594859 78.0646708,111.099859 84.7876708,110.202859 C91.4966708,109.307859 106.582671,107.843859 120.643671,107.477859 C140.389671,106.953859 152.555671,114.571859 154.762671,128.915859 C156.652671,141.205859 151.774671,154.867859 136.617671,157.682859 M160.539671,128.027859 C157.866671,110.655859 143.252671,101.044859 120.490671,101.633859 C107.108671,101.983859 92.2026708,103.317859 84.0136708,104.409859 C73.3876708,105.826859 72.1796708,110.450859 72.3996708,114.782859 C72.4726708,116.249859 72.8926708,117.581859 73.6196708,118.728859 L64.5356708,119.383859 C59.4396708,119.445859 55.3116708,123.610859 55.3116708,128.721859 C55.3116708,129.405859 55.3916708,130.075859 55.5336708,130.727859 C52.4456708,132.252859 50.3106708,135.426859 50.3106708,139.096859 C50.3106708,143.801859 53.8126708,147.693859 58.3436708,148.332859 C58.3286708,148.544859 58.3106708,148.756859 58.3106708,148.971859 C58.3106708,154.119859 62.4996708,158.308859 67.7396708,158.308859 L67.7416708,158.308859 L70.1086708,158.234859 C70.0786708,158.539859 70.0616708,158.847859 70.0616708,159.160859 C70.0616708,164.309859 74.2516708,168.499859 79.4006708,168.499859 C79.4606708,168.499859 79.5206708,168.497859 79.5806708,168.494859 L114.654671,166.328859 C123.457671,165.926859 132.013671,164.481859 137.683671,163.428859 C156.588671,159.917859 162.783671,142.617859 160.539671,128.027859" id="main-tendu" fill="#3B80FF" transform="translate(105.644151, 135.054075) rotate(21.000000) translate(-105.644151, -135.054075) "></path>
                </g>
            </g>
        </g>
    </g>
</svg>