<?xml version="1.0" encoding="UTF-8" standalone="no"?>
<svg width="62px" height="92px" viewBox="0 0 62 92" version="1.1" xmlns="http://www.w3.org/2000/svg" xmlns:xlink="http://www.w3.org/1999/xlink">
    <defs></defs>
    <g id="Lot1" stroke="none" stroke-width="1" fill="none" fill-rule="evenodd">
        <g id="UI-Offre-digitale" transform="translate(-1168.000000, -776.000000)" fill="#FFFFFF">
            <g id="OFFRE-DIGITALE" transform="translate(673.000000, 121.000000)">
                <path d="M550.704119,726.39199 C550.704119,729.234037 548.430481,731.507674 545.588434,731.507674 L542.177978,731.507674 L542.177978,701.723023 L548.203117,701.723023 C549.5673,701.723023 550.704119,702.859842 550.704119,704.224024 L550.704119,726.39199 Z M534.788656,736.623359 C534.788656,737.30545 534.333929,737.760178 533.651837,737.760178 C532.969746,737.760178 532.515019,737.30545 532.515019,736.623359 L532.515019,695.47052 C532.515019,694.788429 532.969746,694.333701 533.651837,694.333701 C534.333929,694.333701 534.788656,694.788429 534.788656,695.47052 L534.788656,736.623359 Z M553.20512,696.038929 C554.910348,696.038929 556.388212,697.516794 556.274531,699.222022 L556.274531,728.2109 C556.274531,733.099221 552.295665,737.078086 547.407344,737.078086 L542.064296,737.078086 C542.064296,742.193771 537.858067,746.4 532.742382,746.4 L504.321914,746.4 C499.206229,746.4 495,742.193771 495,737.078086 L495,688.422244 C495,687.512789 495.795773,686.717016 496.705228,686.717016 L540.47275,686.717016 C541.382205,686.717016 542.177978,687.512789 542.177978,688.422244 L542.177978,696.038929 L553.20512,696.038929 Z M505.799778,658.86507 C506.027142,658.86507 506.368187,659.206116 506.368187,659.433479 L506.368187,676.826806 C506.368187,677.167852 506.140824,677.395216 505.799778,677.395216 L504.435596,677.395216 C504.09455,677.395216 503.867186,677.167852 503.867186,676.826806 L503.867186,659.433479 C503.867186,659.092434 504.09455,658.86507 504.435596,658.86507 L505.799778,658.86507 Z M523.761287,666.822801 C524.102333,666.822801 524.329696,667.050165 524.329696,667.391211 L524.329696,681.260399 C524.329696,681.601445 524.102333,681.828809 523.761287,681.828809 L522.397104,681.828809 C522.056059,681.828809 521.828695,681.601445 521.828695,681.260399 L521.828695,667.391211 C521.828695,667.050165 522.056059,666.822801 522.397104,666.822801 L523.761287,666.822801 Z M532.74261,662.161731 C533.083655,662.161731 533.311019,662.502776 533.311019,662.73014 L533.311019,673.075191 C533.311019,673.416236 533.083655,673.6436 532.74261,673.6436 L531.378427,673.6436 C531.037382,673.6436 530.810018,673.416236 530.810018,673.075191 L530.810018,662.73014 C530.810018,662.389095 531.037382,662.161731 531.378427,662.161731 L532.74261,662.161731 Z M514.780533,655 C515.121578,655 515.348942,655.227364 515.348942,655.568409 L515.348942,669.437598 C515.348942,669.778644 515.121578,670.006007 514.780533,670.006007 L513.41635,670.006007 C513.075304,670.006007 512.847941,669.778644 512.847941,669.437598 L512.847941,655.568409 C512.847941,655.227364 513.075304,655 513.41635,655 L514.780533,655 Z" id="picto-cafe"></path>
            </g>
        </g>
    </g>
</svg>