<?xml version="1.0" encoding="UTF-8" standalone="no"?>
<svg width="88px" height="118px" viewBox="0 0 88 118" version="1.1" xmlns="http://www.w3.org/2000/svg" xmlns:xlink="http://www.w3.org/1999/xlink">
    <defs></defs>
    <g id="Lot1" stroke="none" stroke-width="1" fill="none" fill-rule="evenodd" opacity="0.593410326">
        <g id="UI-Offre-digitale" transform="translate(-986.000000, -783.000000)" fill="#FFE76E">
            <g id="OFFRE-DIGITALE" transform="translate(673.000000, 121.000000)">
                <g id="rouage" transform="translate(313.000000, 662.000000)">
                    <path d="M56.3435363,97.3014007 C50.7362611,97.3014007 46.1740871,92.7399324 46.1740871,87.1333628 C46.1740871,81.5260876 50.7362611,76.9632079 56.3435363,76.9632079 C61.9515172,76.9632079 66.5143969,81.5260876 66.5143969,87.1333628 C66.5143969,92.7399324 61.9515172,97.3014007 56.3435363,97.3014007 M56.3435363,72.1385237 C48.0751693,72.1385237 41.3486972,78.8649958 41.3486972,87.1333628 C41.3486972,95.4010242 48.0751693,102.126791 56.3435363,102.126791 C64.612609,102.126791 71.3397868,95.4010242 71.3397868,87.1333628 C71.3397868,78.8649958 64.612609,72.1385237 56.3435363,72.1385237" id="Fill-77"></path>
                    <path d="M79.1863915,85.4529797 C78.0566095,85.6519794 77.2239157,86.618751 77.1935718,87.7654692 C77.139235,89.8253278 76.7800476,91.8611935 76.1273003,93.8159069 C75.7638789,94.9033485 76.2162151,96.0959354 77.2090966,96.6696473 L80.3923861,98.507219 C79.7636317,99.8430574 79.0247924,101.121736 78.1822192,102.334082 L74.9975183,100.494393 C74.0046369,99.9206814 72.7435998,100.127443 71.9842959,100.986953 C70.6244646,102.525319 69.0423465,103.85269 67.2802817,104.932369 C66.3022194,105.532191 65.8816384,106.73748 66.2739925,107.814336 L67.5315012,111.270721 C66.1921344,111.889596 64.8040762,112.394858 63.3786174,112.782272 L62.1196973,109.326593 C61.768978,108.362644 60.8551318,107.738829 59.8544879,107.738829 C59.7366406,107.738829 59.6173819,107.748003 59.4974175,107.765645 C57.4601405,108.068378 55.3939308,108.069084 53.3566537,107.765645 C52.2233434,107.597695 51.1260223,108.248325 50.734374,109.325887 L49.4754539,112.782272 C48.0507007,112.394858 46.6626425,111.889596 45.3232757,111.270721 L46.5814902,107.815042 C46.9745499,106.73748 46.5532633,105.532191 45.5752009,104.932369 C43.8110191,103.851984 42.228901,102.524614 40.8733037,100.988364 C40.1139999,100.128149 38.8522571,99.9199757 37.8586699,100.494393 L34.6732634,102.333376 C33.8299845,101.119619 33.0911452,99.841646 32.4623908,98.507219 L35.6477974,96.6696473 C36.6406789,96.0959354 37.0930151,94.9033485 36.7295936,93.8159069 C36.0747294,91.8548424 35.715542,89.8196824 35.6633222,87.7675862 C35.6343896,86.6201624 34.8009901,85.6519794 33.6705025,85.4529797 L30.0482845,84.8157573 C30.1816567,83.3451354 30.4378159,81.8893326 30.8153507,80.4610511 L34.4382744,81.0996849 C35.5652337,81.2993902 36.6809022,80.6755756 37.1007775,79.6093041 C37.8600813,77.6856403 38.8924804,75.8960544 40.1711594,74.290649 C40.8860058,73.3930333 40.8690697,72.1164714 40.1316417,71.2372032 L37.7690495,68.4215692 C38.8169735,67.3807019 39.9481668,66.4308665 41.1527501,65.5812366 L43.5167536,68.3975763 C44.2534759,69.2761388 45.5074563,69.5139505 46.5151569,68.9670542 C48.3273244,67.9833464 50.26863,67.2769681 52.2861482,66.8669722 C53.4102849,66.6383343 54.2182801,65.6496868 54.2182801,64.5029687 L54.2182801,60.8257083 C55.6896077,60.7029212 57.1672863,60.7022155 58.6372025,60.8257083 L58.6372025,64.5029687 C58.6372025,65.6496868 59.4451978,66.6383343 60.5693344,66.8669722 C62.5868526,67.2762624 64.5281582,67.9833464 66.3403257,68.9670542 C67.3473206,69.5139505 68.601301,69.2761388 69.338729,68.3975763 L71.7034382,65.5805309 C72.9087272,66.4308665 74.0399205,67.3807019 75.0878445,68.4215692 L72.7252523,71.2372032 C71.9892356,72.1150601 71.9708881,73.3902106 72.6836176,74.2871206 C73.9679419,75.9066395 75.0010467,77.6969311 75.7539995,79.6078928 C76.1738747,80.6755756 77.2916603,81.2993902 78.4172082,81.0996849 L82.0401319,80.4610511 C82.4169611,81.8858042 82.6731203,83.341607 82.8071981,84.8157573 L79.1863915,85.4529797 Z M85.7449135,89.1979847 C86.9106848,88.992634 87.7560807,87.9708199 87.7384389,86.7867011 C87.6897475,83.4093516 87.1040391,80.0884559 85.9975444,76.9199855 C85.6087187,75.8043169 84.4655289,75.1346335 83.301169,75.3392786 L79.4425507,76.0195471 C78.9154132,74.9363395 78.3127687,73.8912383 77.6367342,72.8898887 L80.1545744,69.8893684 C80.9145839,68.982579 80.9061158,67.658737 80.1326986,66.7625327 C77.9317054,64.2115259 75.349649,62.0458164 72.4599193,60.3246806 C71.4444563,59.7199191 70.1375505,59.940089 69.3782467,60.8461728 L66.8597008,63.8466931 C65.75744,63.3548392 64.6220127,62.941315 63.4625924,62.6096488 L63.4625924,58.6924597 C63.4625924,57.5083409 62.6030831,56.4992289 61.4344891,56.3108143 C58.1128877,55.7737974 54.7440063,55.7737974 51.4209935,56.3108143 C50.2523995,56.4992289 49.3928902,57.5083409 49.3928902,58.6924597 L49.3928902,62.6096488 C48.2334699,62.941315 47.0980426,63.3548392 45.9957818,63.8466931 L43.477236,60.8461728 C42.7179321,59.940089 41.4131433,59.7185078 40.3948576,60.3246806 C37.5072449,62.0458164 34.9258942,64.2115259 32.7234897,66.7625327 C31.9500724,67.6580313 31.9416044,68.982579 32.7016139,69.8893684 L35.2187484,72.889183 C34.5441253,73.8870042 33.9414808,74.9335168 33.4129319,76.0195471 L29.5543136,75.3392786 C28.3899537,75.1332222 27.2460582,75.8043169 26.8579383,76.9206911 C25.7479151,80.1018637 25.1629124,83.4227594 25.1184551,86.7895238 C25.1022246,87.9722313 25.9469148,88.992634 27.1119804,89.1979847 L30.9691874,89.8768419 C31.0940915,91.0750741 31.3036763,92.2641326 31.5972361,93.436255 L28.2036561,95.3944967 C27.1790193,95.9858504 26.7344455,97.2334797 27.1543208,98.3406802 C28.3469077,101.481629 30.0327597,104.400292 32.1631856,107.013398 C32.9111987,107.931478 34.2138705,108.168584 35.2392129,107.578641 L38.6299702,105.619694 C39.4958306,106.458033 40.4209675,107.233568 41.3997355,107.942769 L40.0596631,111.623557 C39.6539013,112.735698 40.1161169,113.977682 41.1492217,114.554922 C44.0869372,116.196316 47.2532906,117.34868 50.5600728,117.980257 C50.7117925,118.009895 50.8635121,118.023303 51.0138204,118.023303 C52.0109359,118.023303 52.9268991,117.402311 53.2790297,116.436245 L54.6198079,112.754045 C55.8243912,112.840137 57.0310915,112.840137 58.2342634,112.754045 L59.5743359,116.43554 C59.9779807,117.546974 61.1303442,118.206778 62.2932928,117.980257 C65.6021921,117.34868 68.7692511,116.195611 71.7048495,114.554216 C72.7379544,113.977682 73.20017,112.735698 72.7944082,111.624263 L71.4550414,107.942769 C72.4338094,107.233568 73.3589463,106.458033 74.2248067,105.619694 L77.6162697,107.577936 C78.6423178,108.169995 79.944284,107.930772 80.6915913,107.014809 C82.8199002,104.405937 84.5050466,101.48798 85.7004562,98.3406802 C86.1203314,97.2334797 85.6757576,95.9865561 84.6511208,95.3944967 L81.2596579,93.436255 C81.552512,92.265544 81.7613912,91.0771911 81.8870009,89.8768419 L85.7449135,89.1979847 Z" id="Fill-78"></path>
                    <path d="M56.3658191,31.0793293 C52.2296806,31.0793293 48.8644484,27.7146176 48.8644484,23.5789997 C48.8644484,19.4428612 52.2296806,16.0771085 56.3658191,16.0771085 C60.502478,16.0771085 63.8682308,19.4428612 63.8682308,23.5789997 C63.8682308,27.7146176 60.502478,31.0793293 56.3658191,31.0793293 M56.3658191,12.5182388 C50.2667586,12.5182388 45.3050581,17.4799392 45.3050581,23.5789997 C45.3050581,29.6775396 50.2667586,34.6387195 56.3658191,34.6387195 C62.4654,34.6387195 67.427621,29.6775396 67.427621,23.5789997 C67.427621,17.4799392 62.4654,12.5182388 56.3658191,12.5182388" id="Fill-77-Copy"></path>
                    <path d="M73.2155736,22.3394855 C72.3822037,22.4862752 71.7679772,23.1994025 71.7455944,24.0452652 C71.7055135,25.5646949 71.4405633,27.0664265 70.9590722,28.5082971 C70.6909988,29.3104352 71.0246591,30.1901324 71.7570461,30.613324 L74.1051609,31.9687865 C73.6413679,32.9541514 73.0963721,33.8973534 72.4748582,34.7916255 L70.1257023,33.4346015 C69.3933153,33.0114098 68.4631266,33.1639254 67.9030354,33.797932 C66.8999723,34.9326894 65.7329421,35.911808 64.4331764,36.7082202 C63.7117206,37.1506715 63.4014842,38.0397383 63.6908994,38.8340684 L64.6184854,41.3836287 C63.6305178,41.8401343 62.6066335,42.2128344 61.5551611,42.4986059 L60.626534,39.9495661 C60.3678302,39.2385209 59.6937427,38.7783716 58.9556299,38.7783716 C58.8687012,38.7783716 58.7807315,38.7851385 58.6922412,38.7981518 C57.1894685,39.0214595 55.6653541,39.0219801 54.1625814,38.7981518 C53.3266088,38.6742654 52.5171833,39.1541949 52.2282886,39.9490456 L51.2996615,42.4986059 C50.2487096,42.2128344 49.2248254,41.8401343 48.2368577,41.3836287 L49.1649643,38.8345889 C49.4549,38.0397383 49.1441431,37.1506715 48.4226873,36.7082202 C47.12136,35.9112874 45.9543298,34.9321688 44.9543899,33.7989731 C44.3942987,33.1644459 43.4635895,33.0108893 42.730682,33.4346015 L40.3810055,34.791105 C39.7589711,33.8957918 39.2139753,32.9531104 38.7501822,31.9687865 L41.0998587,30.613324 C41.8322456,30.1901324 42.1659059,29.3104352 41.8978325,28.5082971 C41.4147799,27.0617418 41.1498296,25.5605307 41.1113104,24.0468268 C41.0899686,23.2004436 40.4752216,22.4862752 39.6413311,22.3394855 L36.969446,21.8694461 C37.0678264,20.7846597 37.2567791,19.7108045 37.5352631,18.65725 L40.2076687,19.1283304 C41.0389566,19.2756407 41.8619159,18.8154914 42.1716318,18.0289692 C42.731723,16.610002 43.4932597,15.2899356 44.4364617,14.1057279 C44.9637595,13.4436126 44.9512667,12.5019722 44.407312,11.8533907 L42.6645745,9.77647243 C43.4375629,9.00868937 44.2719739,8.30805479 45.1605202,7.6813356 L46.9042986,9.75877438 C47.4477329,10.4068353 48.3727163,10.5822543 49.1160344,10.1788428 C50.4527577,9.45322275 51.8847382,8.93217133 53.372936,8.62974288 C54.2021418,8.46109087 54.7981496,7.73182709 54.7981496,6.88596439 L54.7981496,4.17347792 C55.8834565,4.08290554 56.9734482,4.08238501 58.0577141,4.17347792 L58.0577141,6.88596439 C58.0577141,7.73182709 58.6537219,8.46109087 59.4829276,8.62974288 C60.9711255,8.9316508 62.4031059,9.45322275 63.7398293,10.1788428 C64.4826269,10.5822543 65.4076103,10.4068353 65.951565,9.75877438 L67.6958641,7.68081506 C68.5849308,8.30805479 69.4193418,9.00868937 70.1923302,9.77647243 L68.4495928,11.8533907 C67.9066791,12.5009311 67.8931453,13.4415304 68.4188815,14.1031252 C69.3662477,15.2977436 70.1283049,16.6183305 70.6837114,18.0279281 C70.9934273,18.8154914 71.8179482,19.2756407 72.648195,19.1283304 L75.3206006,18.65725 C75.5985641,19.7082018 75.7875168,20.7820571 75.8864176,21.8694461 L73.2155736,22.3394855 Z M78.0533877,25.1019429 C78.9133048,24.9504685 79.5369008,24.1967397 79.5238875,23.3232889 C79.4879709,20.832028 79.0559302,18.3824097 78.2397378,16.045226 C77.9529253,15.2222666 77.1096652,14.7282828 76.2507893,14.8792368 L73.4045263,15.3810285 C73.0156898,14.5820136 72.5711564,13.8111074 72.0724878,13.072474 L73.929742,10.8591767 C74.4903538,10.1902945 74.4841074,9.21377854 73.9136056,8.55270431 C72.2900697,6.67098513 70.3854472,5.07347583 68.2538732,3.80390098 C67.5048292,3.35780601 66.540806,3.52021165 65.9807148,4.18857331 L64.12294,6.40187066 C63.3098708,6.03906063 62.4723366,5.73402953 61.6171043,5.48938001 L61.6171043,2.59991303 C61.6171043,1.72646219 60.9830977,0.982103019 60.1210985,0.843121271 C57.6709596,0.446997262 55.1859451,0.446997262 52.7347652,0.843121271 C51.872766,0.982103019 51.2387594,1.72646219 51.2387594,2.59991303 L51.2387594,5.48938001 C50.3835271,5.73402953 49.5459929,6.03906063 48.7329237,6.40187066 L46.8751489,4.18857331 C46.3150577,3.52021165 45.3525961,3.35676495 44.60147,3.80390098 C42.4714576,5.07347583 40.5673556,6.67098513 38.9427787,8.55270431 C38.3722768,9.21325801 38.3660304,10.1902945 38.9266422,10.8591767 L40.7833759,13.0719535 C40.2857484,13.8079842 39.841215,14.5799315 39.4513373,15.3810285 L36.6050744,14.8792368 C35.7461985,14.7272417 34.9024179,15.2222666 34.6161259,16.0457465 C33.7973308,18.3922998 33.3658107,20.8419181 33.3330172,23.325371 C33.321045,24.1977808 33.9441205,24.9504685 34.803517,25.1019429 L37.6487389,25.6026937 C37.7408728,26.4865551 37.8954705,27.3636497 38.1120114,28.2282515 L35.6087783,29.6727247 C34.8529674,30.1089296 34.525033,31.0292282 34.8347489,31.8459412 C35.7144461,34.1628242 36.9579944,36.3157399 38.5294771,38.2432658 C39.0812399,38.9204765 40.0421399,39.0953749 40.7984713,38.6602111 L43.2996222,37.2152173 C43.9383136,37.833608 44.6207296,38.4056715 45.342706,38.928805 L44.3542178,41.6438942 C44.0549125,42.4642508 44.3958603,43.3803852 45.1579175,43.8061795 C47.3248876,45.0169343 49.6605097,45.8669613 52.0997175,46.3328364 C52.2116316,46.3546987 52.3235458,46.3645888 52.4344188,46.3645888 C53.169929,46.3645888 53.8455781,45.9065216 54.105323,45.1939148 L55.0943317,42.4777846 C55.9828779,42.5412894 56.8729858,42.5412894 57.7604909,42.4777846 L58.7489791,45.1933943 C59.0467228,46.0132305 59.8967497,46.4999268 60.7545846,46.3328364 C63.195354,45.8669613 65.5314966,45.0164138 67.6969051,43.8056589 C68.4589623,43.3803852 68.7999101,42.4642508 68.5006048,41.6444147 L67.5126372,38.928805 C68.2346135,38.4056715 68.9170295,37.833608 69.5557209,37.2152173 L72.0573924,38.6596906 C72.8142443,39.096416 73.7746238,38.919956 74.325866,38.2443069 C75.8957872,36.3199042 77.138815,34.167509 78.0205943,31.8459412 C78.3303102,31.0292282 78.0023757,30.1094501 77.2465649,29.6727247 L74.7448934,28.2282515 C74.9609137,27.3646907 75.1149909,26.4881167 75.2076454,25.6026937 L78.0533877,25.1019429 Z" id="Fill-78-Copy"></path>
                    <path d="M15.4587746,51.7324948 C12.7732589,51.7324948 10.5882779,49.5303366 10.5882779,46.8236307 C10.5882779,44.1165842 12.7732589,41.9137446 15.4587746,41.9137446 C18.1446283,41.9137446 20.3299472,44.1165842 20.3299472,46.8236307 C20.3299472,49.5303366 18.1446283,51.7324948 15.4587746,51.7324948 M15.4587746,39.5845126 C11.4987712,39.5845126 8.27723383,42.8318783 8.27723383,46.8236307 C8.27723383,50.8150424 11.4987712,54.0620674 15.4587746,54.0620674 C19.419116,54.0620674 22.6409913,50.8150424 22.6409913,46.8236307 C22.6409913,42.8318783 19.419116,39.5845126 15.4587746,39.5845126" id="Fill-77-Copy-2"></path>
                    <path d="M26.3989984,46.0123855 C25.8579072,46.1084574 25.4591017,46.5751895 25.4445689,47.1287952 C25.4185452,48.1232413 25.2465181,49.1061043 24.9338951,50.0497891 C24.7598402,50.5747776 24.9764794,51.1505275 25.4520043,51.4275006 L26.9765904,52.3146324 C26.6754585,52.9595405 26.3216031,53.5768534 25.918066,54.1621423 L24.3928039,53.2739885 C23.9172791,52.9970153 23.3133253,53.0968347 22.9496688,53.5117834 C22.2983991,54.2544667 21.5406686,54.8952866 20.6967556,55.4165276 C20.2283282,55.7061059 20.0268976,56.2879881 20.2148093,56.8078664 L20.8170732,58.4765191 C20.1756047,58.7752958 19.5108162,59.019223 18.8281153,59.2062565 L18.2251754,57.5379445 C18.057204,57.0725751 17.6195318,56.7714136 17.1402893,56.7714136 C17.0838482,56.7714136 17.0267311,56.7758424 16.9692761,56.7843595 C15.9935545,56.9305113 15.0039761,56.930852 14.0282545,56.7843595 C13.4854734,56.7032775 12.9599289,57.0173849 12.7723551,57.5376038 L12.1694153,59.2062565 C11.4870523,59.019223 10.8222638,58.7752958 10.1807953,58.4765191 L10.7833972,56.8082071 C10.9716469,56.2879881 10.7698784,55.7061059 10.3014509,55.4165276 C9.45652396,54.8949459 8.69879351,54.254126 8.04955167,53.5124648 C7.68589512,53.0971753 7.0816034,52.9966746 6.60574056,53.2739885 L5.08014053,54.1618016 C4.67626547,53.5758313 4.32241008,52.9588591 4.02127812,52.3146324 L5.54687816,51.4275006 C6.02240302,51.1505275 6.23904228,50.5747776 6.06498734,50.0497891 C5.75135047,49.1030382 5.57932335,48.1205159 5.55431351,47.1298172 C5.54045671,46.5758709 5.14131324,46.1084574 4.59988407,46.0123855 L2.86508014,45.7047511 C2.92895661,44.9947731 3.05164,44.2919494 3.23245436,43.6024123 L4.96759627,43.910728 C5.50733558,44.0071406 6.04166735,43.7059791 6.24275996,43.191211 C6.6064165,42.2625162 7.10086773,41.3985507 7.71327076,40.6235027 C8.05563514,40.1901572 8.04752384,39.5738664 7.69434439,39.1493786 L6.56281827,37.7900637 C7.06470486,37.2875601 7.60647199,36.8290043 8.18338809,36.4188251 L9.31559015,37.7784806 C9.66843163,38.2026277 10.2690057,38.317437 10.7516279,38.0534097 C11.6195369,37.5785012 12.5492944,37.2374801 13.5155528,37.0395448 C14.0539403,36.9291643 14.4409168,36.4518711 14.4409168,35.8982654 L14.4409168,34.1229798 C15.1455858,34.0637014 15.8532966,34.0633607 16.5572897,34.1229798 L16.5572897,35.8982654 C16.5572897,36.4518711 16.9442662,36.9291643 17.4826537,37.0395448 C18.4489121,37.2371394 19.3786697,37.5785012 20.2465786,38.0534097 C20.7288629,38.317437 21.3294369,38.2026277 21.6826164,37.7784806 L22.8151564,36.4184844 C23.3924105,36.8290043 23.9341776,37.2875601 24.4360642,37.7900637 L23.3045381,39.1493786 C22.9520346,39.573185 22.9432473,40.1887945 23.2845978,40.6217993 C23.8997046,41.4036609 24.3944938,42.2679671 24.7551086,43.1905296 C24.9562012,43.7059791 25.4915469,44.0071406 26.0306103,43.910728 L27.7657522,43.6024123 C27.9462285,44.290246 28.0689119,44.9930697 28.1331264,45.7047511 L26.3989984,46.0123855 Z M29.5400987,47.8203764 C30.0984264,47.7212384 30.5033154,47.2279332 30.4948661,46.6562715 C30.4715461,45.025775 30.1910304,43.422533 29.6610922,41.8928779 C29.4748703,41.3542622 28.9273577,41.0309565 28.3697059,41.1297538 L26.5216818,41.4581697 C26.2692176,40.9352253 25.9805906,40.4306776 25.6568146,39.9472521 L26.8626943,38.498679 C27.2266888,38.0609047 27.2226331,37.4217882 26.8522172,36.9891241 C25.7980864,35.7575644 24.5614513,34.7120162 23.1774611,33.8810967 C22.6911211,33.5891336 22.0651993,33.6954259 21.7015427,34.1328595 L20.4953251,35.5814326 C19.9674147,35.3439784 19.4236198,35.1443397 18.8683338,34.9842199 L18.8683338,33.0931029 C18.8683338,32.5214412 18.4566854,32.0342682 17.8970058,31.9433065 C16.3061774,31.6840487 14.692705,31.6840487 13.1012007,31.9433065 C12.5415211,32.0342682 12.1298727,32.5214412 12.1298727,33.0931029 L12.1298727,34.9842199 C11.5745867,35.1443397 11.0307918,35.3439784 10.5028814,35.5814326 L9.29666379,34.1328595 C8.93300725,33.6954259 8.3080993,33.5884522 7.82040749,33.8810967 C6.43743112,34.7120162 5.20113406,35.7575644 4.14632731,36.9891241 C3.77591135,37.4214475 3.7718557,38.0609047 4.13585021,38.498679 L5.34139193,39.9469114 C5.01829188,40.4286335 4.72966485,40.9338626 4.47652474,41.4581697 L2.6285006,41.1297538 C2.07084884,41.0302751 1.52299823,41.3542622 1.33711431,41.8932186 C0.8054863,43.4290059 0.525308536,45.0322479 0.504016378,46.6576342 C0.49624305,47.2286146 0.900794055,47.7212384 1.45878379,47.8203764 L3.30613199,48.148111 C3.36595281,48.7265863 3.46633013,49.3006328 3.60692597,49.866503 L1.98162456,50.8118911 C1.49089101,51.0973813 1.27796943,51.6997043 1.47906203,52.2342319 C2.05023263,53.7506004 2.85764478,55.1596546 3.87797852,56.4211941 C4.23622753,56.8644193 4.86012156,56.978888 5.35119308,56.6940791 L6.97514261,55.7483503 C7.38983273,56.1530786 7.83291241,56.5274864 8.30167786,56.8698702 L7.65987138,58.6468593 C7.46553819,59.1837716 7.68690904,59.7833691 8.18169824,60.0620457 C9.58867053,60.8544683 11.1051453,61.4107995 12.6888764,61.7157084 C12.7615401,61.730017 12.8342038,61.7364899 12.9061916,61.7364899 C13.3837442,61.7364899 13.8224303,61.4366912 13.9910777,60.9702997 L14.6332222,59.1926293 C15.2101383,59.2341923 15.7880683,59.2341923 16.3643084,59.1926293 L17.0061149,60.969959 C17.1994342,61.5065306 17.7513404,61.8250668 18.3083163,61.7157084 C19.8930612,61.4107995 21.409874,60.8541277 22.8158323,60.061705 C23.3106215,59.7833691 23.5319924,59.1837716 23.3376592,58.6471999 L22.6961907,56.8698702 C23.1649561,56.5274864 23.6080358,56.1530786 24.0227259,55.7483503 L25.6470134,56.6937385 C26.1384229,56.9795693 26.761979,56.8640787 27.11989,56.4218755 C28.1392099,55.16238 28.946284,53.7536665 29.5188065,52.2342319 C29.7198991,51.6997043 29.5069775,51.097722 29.016244,50.8118911 L27.3919565,49.866503 C27.5322144,49.3013142 27.6322537,48.7276084 27.6924125,48.148111 L29.5400987,47.8203764 Z" id="Fill-78-Copy-2"></path>
                </g>
            </g>
        </g>
    </g>
</svg>