<?xml version="1.0" encoding="UTF-8" standalone="no"?>
<svg
   xmlns:dc="http://purl.org/dc/elements/1.1/"
   xmlns:cc="http://creativecommons.org/ns#"
   xmlns:rdf="http://www.w3.org/1999/02/22-rdf-syntax-ns#"
   xmlns:svg="http://www.w3.org/2000/svg"
   xmlns="http://www.w3.org/2000/svg"
   xmlns:sodipodi="http://sodipodi.sourceforge.net/DTD/sodipodi-0.dtd"
   xmlns:inkscape="http://www.inkscape.org/namespaces/inkscape"
   width="70px"
   height="70px"
   viewBox="0 0 70 70"
   version="1.1"
   id="svg2"
   inkscape:version="0.91 r13725"
   sodipodi:docname="globe.svg">
  <metadata
     id="metadata13">
    <rdf:RDF>
      <cc:Work
         rdf:about="">
        <dc:format>image/svg+xml</dc:format>
        <dc:type
           rdf:resource="http://purl.org/dc/dcmitype/StillImage" />
      </cc:Work>
    </rdf:RDF>
  </metadata>
  <sodipodi:namedview
     pagecolor="#3B80FF"
     bordercolor="#3B80FF"
     borderopacity="1"
     objecttolerance="10"
     gridtolerance="10"
     guidetolerance="10"
     inkscape:pageopacity="0"
     inkscape:pageshadow="2"
     inkscape:window-width="1366"
     inkscape:window-height="692"
     id="namedview11"
     showgrid="false"
     inkscape:zoom="3.3714286"
     inkscape:cx="35"
     inkscape:cy="35"
     inkscape:window-x="0"
     inkscape:window-y="24"
     inkscape:window-maximized="1"
     inkscape:current-layer="Lot1" />
  <defs
     id="defs4" />
  <g
     id="Lot1"
     stroke="none"
     stroke-width="1"
     fill="none"
     fill-rule="evenodd"
     style="fill:#000000;fill-opacity:1">
    <g
       id="UI"
       transform="translate(-1334.000000, -305.000000)"
       fill="#D3D3D3"
       style="fill:#3B80FF;fill-opacity:1">
      <g
         id="PICTOGRAMMES"
         transform="translate(1043.000000, 201.000000)"
         style="fill:#3B80FF;fill-opacity:1">
        <g
           id="globe"
           transform="translate(291.000000, 104.000000)"
           style="fill:#3B80FF;fill-opacity:1">
          <path
             d="M51.1824443,60.3529345 L51.1688962,60.3314168 C47.9269084,62.3556669 41.4118518,59.7010303 34.6234417,53.0831673 C34.8625263,52.433654 34.9996015,51.7355268 34.9996015,51.0039278 C34.9996015,47.6766665 32.3011328,44.9781977 28.9730745,44.9781977 C28.5714123,44.9781977 28.1793135,45.0196391 27.7999658,45.0945523 C26.8962259,43.8409518 26.006831,42.5188137 25.1381568,41.1289349 C24.5786987,40.2339614 24.0503216,39.3429726 23.5490408,38.4583594 C25.0353504,35.7830022 26.7639324,33.076564 28.7037058,30.4171458 C30.7064382,27.6708601 32.7282974,25.2393693 34.7182786,23.1091251 C39.1572835,22.8062845 43.277509,22.923436 46.9602095,23.3609609 C47.403313,26.2514943 49.8937781,28.4662151 52.9086355,28.4662151 C54.909774,28.4662151 56.6782034,27.4875619 57.7740081,25.9869073 C62.1779473,27.8031536 64.8062845,30.2338475 64.9975522,32.7235157 L64.9991461,32.7235157 C65.0557295,33.4758354 65.093983,34.2329367 65.093983,34.9988046 C65.093983,45.6388683 59.5392497,54.9998292 51.1824443,60.3529345 M19.0805488,60.5226846 C17.4699152,59.0451414 17.2730688,55.2875277 18.5736893,50.3392725 C19.1299596,48.2209825 19.9348779,45.9807594 20.9485968,43.6767803 C20.9589571,43.6935162 20.9685205,43.7102522 20.9788809,43.7269881 C21.8937781,45.1909831 22.8357716,46.5912222 23.7976888,47.9316901 C23.2613423,48.8322423 22.9481414,49.88023 22.9481414,51.0039278 C22.9481414,54.332783 25.6474071,57.0304548 28.9730745,57.0304548 C29.7485057,57.0304548 30.4880742,56.8790345 31.1694655,56.6112597 C34.7621108,60.1321796 38.417715,62.7485626 41.8708943,64.2938464 C39.6625491,64.8118631 37.3641487,65.09478 34.9996015,65.09478 C29.1571697,65.09478 23.702055,63.4156088 19.0805488,60.5226846 M5.00244777,37.3115501 L5.02157454,37.3099562 C4.82074344,34.6911823 7.26657938,31.7623954 11.7534013,29.2057836 C12.505721,29.7572722 13.3887402,30.1366198 14.3498605,30.2912279 C15.3101839,32.9498491 16.52314,35.7009165 17.9839472,38.4950191 C16.1262595,42.1609837 14.7124722,45.753629 13.8342346,49.0936415 C13.2381169,51.3649456 12.9129618,53.4577332 12.8492059,55.3465019 C8.41020094,50.517789 5.53162179,44.2386292 5.00244777,37.3115501 M11.6601582,16.0266409 C11.6274833,17.1224455 11.6705186,18.2732396 11.7828884,19.4694598 C10.2718734,20.5652644 9.2844538,22.3400694 9.2844538,24.3507713 C9.2844538,24.5539933 9.29561109,24.7556213 9.31553481,24.9548585 C8.06910685,25.6665338 6.94142426,26.4140718 5.93806569,27.1910969 C7.0514032,23.0509478 9.02544544,19.2606592 11.6601582,16.0266409 M47.6041441,7.68099277 C42.8081061,9.42710764 37.484488,13.3680196 32.5362327,18.3632948 C28.1418569,18.7673479 23.9156373,19.5364035 20.0368873,20.6202539 C19.1984972,19.5579211 18.0118404,18.7864746 16.6482609,18.4764615 C16.3111516,14.125121 17.1559173,10.9150111 19.0279501,9.50999032 C23.6606136,6.59714237 29.1348551,4.90442306 34.9996015,4.90442306 C39.4991746,4.90442306 43.7668355,5.90379689 47.6041441,7.68099277 M21.241874,25.3708658 C23.2302613,24.8098138 25.3254397,24.339614 27.5003131,23.965845 C26.5495531,25.1293903 25.6274833,26.3200319 24.745261,27.5298002 C23.3609609,29.4281323 22.0754824,31.3551545 20.8975921,33.2845676 C20.228952,31.8261513 19.636819,30.3964251 19.1275687,29.0097342 C20.2249673,28.109182 20.992429,26.8284852 21.241874,25.3708658 M62.4959299,22.7895486 C61.3642625,22.1615529 60.1194285,21.5885467 58.7725849,21.0745147 C58.1517618,18.4055331 55.7649001,16.4163488 52.9086355,16.4163488 C51.0597142,16.4163488 49.4068424,17.2507543 48.3014743,18.5617351 C45.7026242,18.2262196 42.9380088,18.0453122 40.0418967,18.032561 C46.54739,12.5798372 52.0774179,10.6846929 54.4610918,12.0705869 C57.8823931,14.9794501 60.6446177,18.6374452 62.4959299,22.7895486 M69.8876302,32.3489497 L69.8876302,32.3489497 L69.8876302,32.3465589 C69.1616098,22.7114476 64.5225707,14.1538111 57.5516593,8.26435931 L57.5660044,8.24602948 C57.5205783,8.21335458 57.4727614,8.18785222 57.4273353,8.15677122 C51.3490066,3.06904992 43.5269539,-1.13686838e-13 34.9996015,-1.13686838e-13 C28.3004497,-1.13686838e-13 22.0372289,1.8951443 16.7120168,5.17219787 L16.7008596,5.15546194 C16.5446576,5.2526897 16.3996129,5.36266864 16.2505835,5.46866283 C6.49194512,11.6856606 -1.70530257e-12,22.5950931 -1.70530257e-12,34.9988046 C-1.70530257e-12,47.3865771 6.47441225,58.2840553 16.211533,64.5058348 C16.2816645,64.5600273 16.3454204,64.6213924 16.4171458,64.673194 L16.4346787,64.6492856 C21.8204588,68.0331303 28.1832982,69.999203 34.9996015,69.999203 C54.2977173,69.999203 69.9984061,54.2985142 69.9984061,34.9988046 C69.9984061,34.1062219 69.953777,33.2247965 69.8876302,32.3489497"
             id="Fill-69"
             style="fill:#3B80FF;fill-opacity:1" />
        </g>
      </g>
    </g>
  </g>
</svg>
