<?xml version="1.0" encoding="UTF-8" standalone="no"?>
<svg width="51px" height="79px" viewBox="0 0 51 79" version="1.1" xmlns="http://www.w3.org/2000/svg" xmlns:xlink="http://www.w3.org/1999/xlink">
    <defs></defs>
    <g id="Lot1" stroke="none" stroke-width="1" fill="none" fill-rule="evenodd">
        <g id="UI" transform="translate(-1390.000000, -445.000000)" fill="#E3E3E3">
            <g id="PICTOGRAMMES" transform="translate(1043.000000, 201.000000)">
                <path d="M361.304306,287.44913 C367.112249,288.914538 369.74363,289.868791 371.661968,291.148943 C373.706581,292.510759 375.028321,294.27938 375.288435,295.999608 C375.477471,297.246489 375.093349,298.46993 374.146657,299.634392 C373.325485,300.645357 371.311117,301.441576 369.19467,300.927398 C365.944762,300.135716 363.509978,296.596961 362.339467,290.962176 C362.068768,289.657827 361.72321,288.48656 361.304306,287.44913 L361.304306,287.44913 Z M387.03967,312.680902 C383.102427,316.467671 377.950818,318.520603 372.930021,318.334591 C361.26045,317.882417 353.576514,310.768614 352.374245,299.304713 L352.167061,297.362935 C351.387477,290.176542 351.288422,287.57087 353.230956,286.547807 C353.43209,286.44119 353.760257,286.309621 354.154964,286.309621 C354.390125,286.309621 354.649482,286.357258 354.91867,286.483535 C356.143623,287.060472 357.187858,289.037789 357.783699,291.907356 C359.884268,302.017002 365.145518,304.730047 368.093724,305.448384 C371.695238,306.324755 375.668775,305.139877 377.758757,302.568987 C379.540233,300.376169 380.277473,297.862747 379.889571,295.303199 C379.426811,292.246108 377.420761,289.394689 374.243443,287.27673 C371.275578,285.297144 367.417731,284.137976 360.409788,282.434383 C357.287669,281.675214 355.257422,280.352718 354.979161,278.896385 C354.813565,278.026819 355.302791,277.164059 355.872167,276.761034 C357.668009,275.492224 363.52737,276.531922 368.698639,277.450637 C371.33607,277.919447 374.063481,278.404135 376.837018,278.742888 C382.802994,279.471811 385.252901,283.312266 385.354981,283.475593 L389.341372,281.075592 C389.198461,280.836651 385.78069,275.245721 377.633237,274.153849 C376.184465,272.995437 371.44571,269.220009 367.434366,266.175017 C363.013192,262.817737 361.041168,259.893728 362.160261,258.351951 C363.445706,256.582573 366.662343,258.419247 367.294479,258.806393 C373.451004,262.567454 384.942882,271.822657 388.145152,274.723226 C392.651771,278.802623 392.596572,285.331171 392.59506,285.387882 L392.593548,285.459715 L393.111506,299.137605 C393.099408,304.04498 390.887687,308.978821 387.03967,312.680902 L387.03967,312.680902 Z M376.843067,253.821891 C375.834371,251.018109 376.254031,249.130018 377.160647,248.778411 C377.70129,248.570471 378.030969,248.658184 378.280497,248.776898 C379.288437,249.24722 380.392407,250.93947 381.160649,253.193536 C381.553844,254.347412 383.903184,261.017358 385.942504,266.798836 C384.055169,265.269157 381.878986,263.545904 379.652898,261.845336 C379.23097,260.611309 378.046092,257.160268 376.843067,253.821891 L376.843067,253.821891 Z M397.248371,285.414347 C397.25442,284.573515 397.155365,278.41699 393.184096,273.336458 C391.860088,269.586739 386.179934,253.495993 385.565189,251.69259 C384.704697,249.168581 383.083524,245.881623 380.247227,244.559127 C378.740232,243.857425 377.091838,243.814325 375.478983,244.440412 C372.440796,245.619241 370.330398,249.464989 372.464993,255.398452 C372.658566,255.936826 372.852138,256.477469 373.041931,257.012063 C371.856297,256.194672 370.733423,255.454407 369.720946,254.835881 C365.125102,252.026049 360.784835,252.326239 358.39542,255.617734 C354.511864,260.966697 360.628313,266.850254 364.620754,269.881635 C365.785216,270.764812 367.012438,271.711504 368.201096,272.637024 C361.58786,271.472562 356.358368,270.71415 353.184075,272.962922 C351.036626,274.482016 349.921313,277.217745 350.40827,279.769731 C350.539083,280.453286 350.824149,281.328144 351.429821,282.249884 C351.305813,282.305839 351.182562,282.36633 351.060066,282.431358 C346.148154,285.020396 346.731898,290.407922 347.540216,297.864259 L347.746643,299.788646 C349.189366,313.555004 358.770467,322.442722 372.750059,322.983365 C373.027564,322.994707 373.304313,323 373.581061,323 C379.596943,323 385.63551,320.488846 390.26538,316.034401 C395.031356,311.449143 397.765573,305.274471 397.765573,299.094505 L397.248371,285.414347 Z" id="main-top"></path>
            </g>
        </g>
    </g>
</svg>