<?xml version="1.0" encoding="UTF-8" standalone="no"?>
<svg width="50px" height="77px" viewBox="0 0 50 77" version="1.1" xmlns="http://www.w3.org/2000/svg" xmlns:xlink="http://www.w3.org/1999/xlink">
    <defs></defs>
    <g id="Lot1" stroke="none" stroke-width="1" fill="none" fill-rule="evenodd">
        <g id="UI" transform="translate(-1467.000000, -447.000000)" fill="#E2E2E2">
            <g id="PICTOGRAMMES" transform="translate(1043.000000, 201.000000)">
                <path d="M469.232106,253.691855 L463.289433,278.959584 L458.125935,278.959584 L464.429605,252.646066 C464.680374,251.496938 465.699295,250.710874 466.831889,250.710874 C467.00412,250.710874 467.179107,250.728786 467.354783,250.766677 C468.678899,251.058093 469.520766,252.366362 469.232106,253.691855 L469.232106,253.691855 Z M467.74816,298.728996 C467.74816,309.266803 459.295731,317.839106 448.906042,317.839106 C438.671362,317.839106 430.32296,309.522395 430.073569,299.202976 C430.431121,299.258779 430.795563,299.295981 431.168961,299.295981 C433.031816,299.295981 434.726573,298.575365 436.002464,297.405569 C437.278354,298.575365 438.973111,299.295981 440.836655,299.295981 C444.789711,299.295981 448.005616,296.080076 448.005616,292.127021 L448.005616,290.025797 C448.980446,290.765014 450.057237,291.33889 451.160896,291.774291 C451.005888,291.923099 450.852946,292.077418 450.70276,292.235871 C445.422834,297.843726 446.07318,307.656784 446.102803,308.072206 L450.800588,307.729121 C450.636623,305.476334 450.914949,298.882626 454.132232,295.465554 C455.436369,294.079436 457.101502,293.327129 459.200659,293.178321 C459.862028,293.15972 460.27745,293.151453 460.349787,293.147319 C461.608454,293.05707 462.57295,291.989924 462.535748,290.728501 C462.498546,289.467078 461.473425,288.458491 460.211313,288.442646 C459.795202,288.435757 459.384602,288.446779 458.983647,288.47227 C456.699859,288.448157 452.609707,287.967287 450.375521,285.879153 C449.767888,285.31079 449.32422,284.649421 449.039694,283.881958 L461.04009,283.881958 C461.080048,283.881958 461.135162,283.879891 461.174431,283.877824 C461.20061,283.876446 464.134056,283.75244 466.010689,285.537446 C467.163951,286.633527 467.74816,288.32484 467.74816,290.56247 L467.74816,298.728996 Z M428.710874,279.888255 C428.710874,278.533139 429.80971,277.432924 431.168961,277.432924 C432.524767,277.432924 433.626359,278.533139 433.626359,279.888255 L433.626359,292.127021 C433.626359,293.484893 432.524767,294.585107 431.168961,294.585107 C429.80971,294.585107 428.710874,293.484893 428.710874,292.127021 L428.710874,279.888255 Z M438.378568,276.706108 C438.378568,275.350302 439.478783,274.251465 440.836655,274.251465 C442.19315,274.251465 443.294053,275.350302 443.294053,276.706108 L443.294053,292.127021 C443.294053,293.484893 442.19315,294.585796 440.836655,294.585796 C439.478783,294.585796 438.378568,293.484893 438.378568,292.127021 L438.378568,276.706108 Z M445.161731,250.766677 C445.336718,250.728786 445.510327,250.710874 445.683937,250.710874 C446.81653,250.710874 447.834763,251.496938 448.08622,252.646066 L453.934511,274.535303 L452.794339,278.951316 L449.226393,278.959584 L443.282342,253.691855 C442.995748,252.366362 443.83486,251.058093 445.161731,250.766677 L445.161731,250.766677 Z M468.366815,246.166031 C467.850121,246.054425 467.339627,246 466.831889,246 C463.507822,246 460.577132,248.343725 459.840671,251.582365 L456.453912,265.717743 L452.657243,251.507961 C451.893913,248.307901 448.983891,246 445.683937,246 C445.175509,246 444.665015,246.055114 444.166922,246.162586 C440.300671,247.012032 437.84534,250.834881 438.67894,254.686664 C438.68514,254.71491 438.691341,254.742467 438.696852,254.770024 L442.203484,269.674932 C441.760505,269.588816 441.304436,269.540591 440.836655,269.540591 C438.032039,269.540591 435.604953,271.162322 434.427579,273.514315 C433.448616,273.012088 432.34289,272.722739 431.168961,272.722739 C427.215905,272.722739 424,275.937266 424,279.888255 L424,292.127021 C424,293.683993 424.504294,295.122469 425.350294,296.299155 L425.350294,298.728996 C425.350294,311.863364 435.917726,322.54998 448.906042,322.54998 C461.89298,322.54998 472.459034,311.863364 472.459034,298.728996 L472.459034,290.56247 C472.459034,286.956633 471.365709,284.103103 469.210749,282.080417 C468.695433,281.59748 468.148426,281.200659 467.592463,280.863085 C467.708891,280.599916 467.806719,280.325723 467.874233,280.037752 L473.818284,254.770024 L473.836885,254.68942 C474.671863,250.836947 472.218599,247.01341 468.366815,246.166031 L468.366815,246.166031 Z" id="main-victoire"></path>
            </g>
        </g>
    </g>
</svg>