<?xml version="1.0" encoding="UTF-8" standalone="no"?>
<svg width="230px" height="240px" viewBox="0 0 230 240" version="1.1" xmlns="http://www.w3.org/2000/svg" xmlns:xlink="http://www.w3.org/1999/xlink">
    <defs></defs>
    <g id="Lot1" stroke="none" stroke-width="1" fill="none" fill-rule="evenodd">
        <g id="UI-Qui-sommes-nous" transform="translate(-1445.000000, -1788.000000)">
            <g id="QUI-SOMMES-NOUS" transform="translate(409.000000, 258.000000)">
                <g id="VISUEL-2001-2003" transform="translate(1036.000000, 1530.000000)">
                    <path d="M159.800512,110.618849 C159.800512,110.618849 160.209119,93.3392016 149.15396,79.9121309 C146.310798,71.8638613 129.224776,23.4646175 127.413809,18.1527311 C123.794721,7.52753459 117.022102,-1.81346962 107.681097,1.8041941 C101.755589,4.1020726 98.6703953,12.1631556 103.009883,24.2234585 C107.215542,35.9007815 111.300185,47.9269151 111.300185,47.9269151 L115.34354,51.4292578 C104.921935,43.4051914 93.9450801,35.401057 85.7871844,30.4166254 C80.1820123,26.9925871 68.9161434,22.3555424 62.7258238,30.8779096 C58.0546099,37.314532 59.9239497,47.4613598 78.8408714,61.8209648 C92.3049587,72.0418259 108.516819,85.0617136 108.516819,85.0617136 L108.827189,85.2339833 C82.7646341,81.9138764 56.6565202,73.8641831 46.6150475,80.9699523 C39.0266383,86.3387874 36.1065957,102.33709 61.5612237,108.524562 C82.0328438,113.501875 91.2371713,116.511612 98.2418566,121.179979 C110.384735,129.276655 116.249023,142.679522 106.647479,154.494946 C98.5522269,164.458114 70.5292142,167.885 62.1235917,127.407315 C57.6488507,105.863636 46.3602022,104.559512 39.9392406,107.946533 C29.2385871,113.587298 31.6489392,126.743863 34.1005791,150.138373 C37.5246174,182.831176 59.314599,207.80174 97.9300627,209.295219 C130.658459,210.560903 161.249856,182.032471 161.249856,148.871265 L159.800512,110.618849 Z" id="top" fill="#3B80FF"></path>
                    <g id="etoiles" transform="translate(137.000000, 0.000000)" fill="#FFC64C">
                        <path d="M39.1148,66.482 C36.8008,68.797 35.1098,72.025 33.8738,75.519 C32.6258,72.086 30.9298,68.912 28.6278,66.609 C26.4058,64.388 23.6598,62.732 20.8098,61.498 C23.7678,60.295 26.6128,58.642 28.8798,56.375 C31.1038,54.152 32.7448,51.028 33.9558,47.603 C35.1728,50.984 36.8218,54.08 39.0528,56.312 C41.2978,58.556 44.0688,60.202 46.9478,61.41 C44.0798,62.629 41.3258,64.272 39.1148,66.482 M64.3268,57.885 C64.3028,57.886 64.2828,57.885 64.2388,57.886 C60.3508,57.938 49.2648,56.854 43.8868,51.478 C38.5228,46.11 37.3588,30.824 37.3598,25.269 L37.3598,25.177 C37.3598,23.291 35.8318,21.761 33.9468,21.758 L33.9408,21.758 C32.0578,21.758 30.5288,23.282 30.5228,25.166 L30.5228,25.257 C30.5068,30.864 29.3198,46.27 24.0458,51.54 C17.7708,57.815 4.0518,57.885 3.5818,57.885 L3.5428,57.885 C1.6718,57.885 0.1478,59.391 0.1268,61.265 C0.1048,63.148 1.6128,64.694 3.4958,64.722 C3.6348,64.724 17.3468,65.001 23.7938,71.444 C29.1498,76.8 30.4668,91.525 30.5228,96.747 C30.5428,98.621 32.0678,100.129 33.9408,100.129 L33.9478,100.129 C35.8228,100.126 37.3458,98.61 37.3598,96.734 C37.3968,91.461 38.6528,76.616 43.9488,71.316 C50.2748,64.994 63.9888,64.728 64.3478,64.722 L64.3688,64.722 C66.2538,64.699 67.7638,63.154 67.7448,61.269 C67.7248,59.393 66.1988,57.885 64.3268,57.885" id="Fill-58"></path>
                        <path d="M73.5328,26.4645 C72.7818,27.2155 72.1368,28.1105 71.5838,29.0985 C71.0348,28.1425 70.3998,27.2705 69.6648,26.5345 C68.9698,25.8405 68.2028,25.2365 67.3908,24.7105 C68.2578,24.1705 69.0748,23.5425 69.8058,22.8115 C70.5158,22.1015 71.1308,21.2605 71.6618,20.3325 C72.1888,21.2465 72.7958,22.0755 73.4958,22.7765 C74.2078,23.4885 74.9958,24.1025 75.8288,24.6335 C75.0068,25.1605 74.2308,25.7665 73.5328,26.4645 M88.9038,21.1475 L88.8748,21.1475 C88.8448,21.1465 88.8118,21.1475 88.7788,21.1475 C86.6788,21.1475 80.9708,20.5815 78.3308,17.9435 C76.0678,15.6765 75.0538,8.4945 75.0538,4.0935 L75.0538,4.0435 C75.0538,2.1575 73.5268,0.6285 71.6408,0.6255 L71.6358,0.6255 C69.7518,0.6255 68.2228,2.1495 68.2178,4.0335 L68.2178,4.0725 C68.2058,8.5215 67.1948,15.7555 64.9718,17.9765 C62.3658,20.5835 56.5308,21.1475 54.4418,21.1475 C54.4148,21.1465 54.3908,21.1475 54.3658,21.1475 C52.4968,21.1475 50.9758,22.6505 50.9518,24.5225 C50.9288,26.4045 52.4348,27.9525 54.3168,27.9835 C56.3328,28.0175 62.1508,28.6925 64.8298,31.3695 C67.0878,33.6285 68.1698,40.5315 68.2178,44.7145 C68.2358,46.5895 69.7608,48.0985 71.6358,48.0985 L71.6388,48.0985 C73.5148,48.0975 75.0398,46.5815 75.0538,44.7055 C75.0868,40.4815 76.1358,33.5295 78.3658,31.2995 C81.0088,28.6585 86.8738,28.0115 88.9208,27.9845 L88.9458,27.9845 C88.9498,27.9845 88.9608,27.9865 88.9588,27.9835 L88.9638,27.9835 L88.9688,27.9835 L88.9738,27.9835 L88.9788,27.9835 C89.1478,27.9795 89.3138,27.9635 89.4748,27.9365 L89.4758,27.9365 C89.4768,27.9365 89.4788,27.9355 89.4798,27.9355 C89.4818,27.9345 89.4828,27.9345 89.4848,27.9345 C89.4878,27.9345 89.4888,27.9345 89.4898,27.9335 C89.4918,27.9335 89.4918,27.9325 89.4938,27.9335 C91.1148,27.6505 92.3388,26.2285 92.3218,24.5295 C92.3018,22.6545 90.7758,21.1475 88.9038,21.1475" id="Fill-59"></path>
                    </g>
                    <g id="100" transform="translate(0.000000, 174.000000)" fill="#FFC64C">
                        <path d="M27.0303,8.4151 C27.5983,6.8801 27.0203,5.1561 25.6423,4.2731 C24.2633,3.3911 22.4563,3.5851 21.2983,4.7431 L3.7073,22.3341 C2.3463,23.6941 2.3463,25.9011 3.7073,27.2621 C5.0683,28.6231 7.2753,28.6231 8.6353,27.2621 L14.9763,20.9211 L0.2463,60.7581 C-0.4217,62.5621 0.5003,64.5661 2.3053,65.2341 C2.7043,65.3821 3.1123,65.4511 3.5133,65.4511 C4.9303,65.4511 6.2623,64.5811 6.7823,63.1741 L27.0303,8.4151 Z" id="Fill-9"></path>
                        <path d="M42.9405,13.3126 C42.7525,14.0856 42.8265,14.9266 43.2105,15.6936 C45.1305,19.5326 45.4525,25.6916 44.0505,31.7696 C42.9595,36.4996 37.7005,40.7266 34.4085,40.5776 C32.1485,40.4636 31.3025,37.5366 30.9915,35.1006 C29.9135,26.6496 35.9825,17.5056 42.9405,13.3126 M24.0785,35.9826 C25.3605,46.0256 31.4875,47.4096 34.0615,47.5376 C34.2345,47.5456 34.4075,47.5506 34.5825,47.5506 C41.4405,47.5496 49.0905,40.9246 50.8415,33.3356 C52.6165,25.6366 52.0945,17.8756 49.4425,12.5766 C49.0165,11.7226 48.2875,11.1216 47.4505,10.8366 C48.2665,9.9066 48.5605,8.5696 48.1005,7.3276 C47.4335,5.5226 45.4305,4.5996 43.6245,5.2676 C33.0255,9.1866 22.3925,22.7646 24.0785,35.9826" id="Fill-11"></path>
                        <path d="M74.5264,30.4093 C73.3554,35.8393 67.7764,40.7593 64.2994,40.5773 C61.6834,40.4543 60.8184,36.4563 60.5354,34.0853 C59.3574,24.1713 66.1004,13.4573 73.6814,8.8283 C73.1854,9.7613 73.1184,10.9073 73.5994,11.9383 C75.6684,16.3763 76.0234,23.4543 74.5264,30.4093 M79.9154,8.9933 C79.3954,7.8783 78.3594,7.1673 77.2254,7.0133 C78.4964,6.1033 79.0374,4.4143 78.4354,2.8953 C77.7264,1.1063 75.7014,0.2323 73.9124,0.9393 C62.9194,5.2953 51.8804,20.3163 53.6154,34.9083 C54.9284,45.9303 61.2964,47.4133 63.9724,47.5393 C64.1324,47.5463 64.2924,47.5503 64.4534,47.5503 C71.5814,47.5503 79.5384,40.2263 81.3384,31.8773 C83.1684,23.3823 82.6354,14.8273 79.9154,8.9933" id="Fill-13"></path>
                        <path d="M18.5147,62.4933 C19.0977,63.7783 20.3647,64.5373 21.6897,64.5373 C22.1707,64.5373 22.6607,64.4363 23.1267,64.2253 C23.3247,64.1363 43.1087,55.2933 59.4207,58.7363 C61.3057,59.1393 63.1517,57.9313 63.5497,56.0473 C63.9477,54.1643 62.7437,52.3153 60.8597,51.9183 C42.2817,47.9943 21.1347,57.4753 20.2427,57.8813 C18.4927,58.6783 17.7197,60.7423 18.5147,62.4933" id="Fill-15"></path>
                    </g>
                </g>
            </g>
        </g>
    </g>
</svg>