<?xml version="1.0" encoding="UTF-8" standalone="no"?>
<svg width="238px" height="211px" viewBox="0 0 238 211" version="1.1" xmlns="http://www.w3.org/2000/svg" xmlns:xlink="http://www.w3.org/1999/xlink">
    <defs></defs>
    <g id="Lot1" stroke="none" stroke-width="1" fill="none" fill-rule="evenodd">
        <g id="UI" transform="translate(-3308.000000, -1386.000000)" fill="#3B80FF">
            <g id="NOS-VALEURS" transform="translate(3278.000000, 199.000000)">
                <g id="mains-etoiles" transform="translate(30.000000, 1187.000000)">
                    <g id="Stars" transform="translate(148.000000, 0.000000)">
                        <path d="M71.0385762,23.7923465 C70.3056246,24.4838614 69.6761255,25.3079703 69.1364155,26.2177129 C68.6006093,25.3374356 67.98087,24.534505 67.2635338,23.856802 C66.5852364,23.2177723 65.8366693,22.6616139 65.0441837,22.1772772 C65.8903476,21.6800495 66.687713,21.1017921 67.4011453,20.4286931 C68.0940822,19.7749307 68.6943022,19.0005446 69.212541,18.1460495 C69.7268759,18.9876535 70.3192881,19.7509901 71.0024654,20.3964653 C71.6973543,21.0520693 72.4664167,21.6174356 73.2793976,22.1063762 C72.4771523,22.5916337 71.7198015,23.1496337 71.0385762,23.7923465 M86.0401729,18.896495 L86.0118698,18.896495 C85.9825908,18.8955743 85.9503839,18.896495 85.9181769,18.896495 C83.8686452,18.896495 78.2978226,18.3753267 75.7212683,15.9462772 C73.5126538,13.8588416 72.5230228,7.24571287 72.5230228,3.19330693 L72.5230228,3.14726733 C72.5230228,1.41065347 71.0327204,0.00276237624 69.1920457,0 L69.1871658,0 C67.348443,0 65.8561887,1.40328713 65.8513089,3.13805941 L65.8513089,3.1739703 C65.8395972,7.27057426 64.8528941,13.9315842 62.6833183,15.9766634 C60.139947,18.3771683 54.4451765,18.896495 52.4063804,18.896495 C52.3800292,18.8955743 52.356606,18.896495 52.3322068,18.896495 C50.5081235,18.896495 49.0236769,20.2804455 49.0002537,22.0041683 C48.9778065,23.737099 50.4476136,25.1624851 52.2843844,25.1910297 C54.2519349,25.2223366 59.9301139,25.8438713 62.5447309,28.3088317 C64.7484656,30.388901 65.8044624,36.7451287 65.8513089,40.596802 C65.8688763,42.3232871 67.3572267,43.7127624 69.1871658,43.7127624 L69.1900937,43.7127624 C71.0210088,43.7118416 72.5093592,42.3159208 72.5230228,40.5885149 C72.5552297,36.6990891 73.5790196,30.2977426 75.7554272,28.2443762 C78.3349093,25.8125644 84.0589588,25.2168119 86.0567643,25.1919505 L86.0811635,25.1919505 C86.0850674,25.1919505 86.095803,25.1937921 86.0938511,25.1910297 L86.0987309,25.1910297 L86.1036108,25.1910297 L86.1084906,25.1910297 L86.1133704,25.1910297 C86.278309,25.1873465 86.4403196,25.1726139 86.5974503,25.1477525 L86.5984263,25.1477525 C86.5994023,25.1477525 86.6013542,25.1468317 86.6023302,25.1468317 C86.6042821,25.1459109 86.6052581,25.1459109 86.60721,25.1459109 C86.6101379,25.1459109 86.6111139,25.1459109 86.6120898,25.1449901 C86.6140418,25.1449901 86.6140418,25.1440693 86.6159937,25.1449901 C88.1980371,24.8844059 89.3926213,23.5750396 89.3760298,22.0106139 C89.3565105,20.2841287 87.8671841,18.896495 86.0401729,18.896495" id="Fill-59"></path>
                        <path d="M38.0512535,61.181505 C35.7928646,63.3131386 34.1425036,66.2854554 32.9362077,69.502703 C31.7182003,66.3416238 30.0629594,63.4190297 27.8162821,61.2984455 C25.6476823,59.2533663 22.9676755,57.7285347 20.1861681,56.5922772 C23.07308,55.4845644 25.8497076,53.962495 28.0622259,51.8750594 C30.2327777,49.8281386 31.8343404,46.9515842 33.0162371,43.7978713 C34.2039895,46.9110693 35.81336,49.7618416 37.9907435,51.8170495 C40.1817906,53.8833069 42.8861965,55.3989307 45.696007,56.5112475 C42.8969322,57.6336931 40.2091176,59.1465545 38.0512535,61.181505 M62.6573465,53.2654554 C62.6339232,53.2663762 62.6144039,53.2654554 62.5714613,53.2663762 C58.7768996,53.3142574 47.9573238,52.3161188 42.7085705,47.3659406 C37.4734807,42.4231287 36.3374545,28.347901 36.3384305,23.232901 L36.3384305,23.1481881 C36.3384305,21.4115743 34.8471521,20.0027624 33.0074533,20 L33.0015975,20 C31.1638507,20 29.6715964,21.4032871 29.6657406,23.1380594 L29.6657406,23.2218515 C29.6501251,28.3847327 28.4916517,42.5704554 23.344399,47.4230297 C17.2202028,53.201 3.83090447,53.2654554 3.37219974,53.2654554 L3.33413701,53.2654554 C1.50810179,53.2654554 0.0207272915,54.6521683 0.000231973702,56.3777327 C-0.0212393116,58.1115842 1.4505197,59.5351287 3.28826653,59.5609109 C3.42392602,59.5627525 16.8063926,59.8178119 23.0984552,65.7504752 C28.3257372,70.6822376 29.6110864,84.240901 29.6657406,89.0492772 C29.6852599,90.7748416 31.1736104,92.163396 33.0015975,92.163396 L33.0084293,92.163396 C34.8383684,92.1606337 36.3247669,90.7647129 36.3384305,89.0373069 C36.3745413,84.1819703 37.6003565,70.5128119 42.7690804,65.6326139 C48.9430509,59.8113663 62.3274694,59.5664356 62.6778418,59.5609109 L62.6983371,59.5609109 C64.5380359,59.5397327 66.0117468,58.1171089 65.9932034,56.3814158 C65.9736841,54.6540099 64.4843577,53.2654554 62.6573465,53.2654554" id="Fill-58"></path>
                    </g>
                    <g id="main-like" transform="translate(106.000000, 116.000000)">
                        <path d="M94.2125,63.1739 L88.8195,63.1739 L88.8105,63.1739 L61.8965,63.1739 L61.8865,63.1739 L60.8135,63.1739 C58.9555,63.1739 57.4445,61.6649 57.4445,59.8099 C57.4445,57.9499 58.9555,56.4369 60.8135,56.4369 L64.0465,56.4369 C64.0495,56.4369 64.0535,56.4379 64.0565,56.4379 L90.9705,56.4379 C90.9735,56.4379 90.9765,56.4369 90.9795,56.4369 L94.2125,56.4369 C96.0705,56.4369 97.5825,57.9499 97.5825,59.8099 C97.5825,61.6649 96.0705,63.1739 94.2125,63.1739 M88.8105,76.0669 L83.3815,76.0669 C83.3785,76.0669 83.3745,76.0659 83.3715,76.0659 L65.6895,76.0659 C65.6855,76.0659 65.6825,76.0669 65.6795,76.0669 L61.8965,76.0669 C60.0385,76.0669 58.5265,74.5559 58.5265,72.6989 C58.5265,70.8419 60.0365,69.3309 61.8915,69.3279 L88.8155,69.3279 C90.6675,69.3309 92.1735,70.8419 92.1735,72.6989 C92.1735,74.5559 90.6645,76.0669 88.8105,76.0669 M83.3715,88.1679 L67.9545,88.1679 L67.9545,88.1509 L65.5155,88.1509 C63.9575,88.0589 62.7155,86.7739 62.7155,85.1919 C62.7155,83.5549 64.0465,82.2239 65.6845,82.2209 L83.3765,82.2209 C85.0135,82.2239 86.3445,83.5549 86.3445,85.1919 C86.3445,86.8329 85.0115,88.1679 83.3715,88.1679 M23.8265,79.0829 C20.2795,74.3479 18.7875,69.4859 18.7735,69.4369 L12.8765,71.1979 C12.9455,71.4319 14.6335,77.0069 18.7765,82.6049 C20.3585,84.7409 22.0895,86.5859 23.9445,88.1509 L6.8725,88.1509 L6.8725,49.9709 L16.7725,49.9709 C33.6365,49.9709 47.7375,35.0319 48.6175,22.1809 C48.8355,18.9809 48.6545,16.1289 48.5095,13.8369 C48.2515,9.7639 48.2505,8.0239 49.3015,7.2149 C49.3585,7.1699 50.7145,6.1459 52.3695,6.7559 C53.5365,7.1869 56.4505,9.1379 58.2965,17.9379 C60.1605,26.8209 58.5355,36.5869 57.9295,39.6379 C55.8555,41.3869 54.5335,43.9999 54.5335,46.9179 C54.5335,48.6629 55.0135,50.2949 55.8375,51.7029 C53.1155,53.3809 51.2905,56.3829 51.2905,59.8099 C51.2905,62.5919 52.4985,65.0909 54.4085,66.8329 C53.4175,68.0949 52.7435,69.6109 52.4925,71.2669 C50.8275,73.4339 46.5545,76.5849 43.3495,77.9409 L45.7475,83.6089 C48.3205,82.5199 51.5555,80.5089 54.1875,78.2669 C55.0565,79.4669 56.1955,80.4579 57.5195,81.1469 C56.9115,82.3679 56.5615,83.7379 56.5615,85.1919 C56.5615,86.2289 56.7435,87.2209 57.0625,88.1509 L40.5605,88.1509 C33.9635,88.1509 28.3335,85.0999 23.8265,79.0829 M94.3395,46.9179 C94.3395,48.7719 92.8305,50.2799 90.9755,50.2829 L64.0515,50.2829 C62.1965,50.2799 60.6885,48.7719 60.6885,46.9179 C60.6885,45.0599 62.1985,43.5489 64.0565,43.5489 L90.9705,43.5489 C92.8275,43.5489 94.3395,45.0599 94.3395,46.9179 M103.7365,59.8099 C103.7365,56.3829 101.9125,53.3819 99.1895,51.7029 C100.0135,50.2949 100.4935,48.6629 100.4935,46.9179 C100.4935,41.6669 96.2215,37.3939 90.9705,37.3939 L64.5425,37.3939 C65.2655,32.4139 65.9275,24.3339 64.3195,16.6739 C62.4985,7.9939 59.1945,2.7149 54.4995,0.9829 C50.9105,-0.3431 47.5195,0.8159 45.5425,2.3409 C41.7975,5.2289 42.0745,9.5989 42.3675,14.2259 C42.5085,16.4479 42.6685,18.9659 42.4775,21.7619 C41.7985,31.6899 29.8035,43.8169 16.7725,43.8169 L3.7955,43.8169 C2.0965,43.8169 0.7185,45.1949 0.7185,46.8939 L0.7185,91.2279 C0.7185,92.9269 2.0965,94.3049 3.7955,94.3049 L65.3425,94.3049 C65.4585,94.3089 65.5715,94.3219 65.6895,94.3219 L83.3715,94.3219 C88.4035,94.3219 92.4985,90.2259 92.4985,85.1919 C92.4985,83.9659 92.2515,82.7969 91.8115,81.7279 C95.5915,80.4669 98.3275,76.8999 98.3275,72.6989 C98.3275,71.2879 98.0115,69.9519 97.4595,68.7469 C101.1145,67.4159 103.7365,63.9179 103.7365,59.8099" id="Fill-65"></path>
                    </g>
                    <g id="main-au-top" transform="translate(0.000000, 18.000000)">
                        <path d="M19.8345,57.5499 C27.5155,59.4879 30.9955,60.7499 33.5325,62.4429 C36.2365,64.2439 37.9845,66.5829 38.3285,68.8579 C38.5785,70.5069 38.0705,72.1249 36.8185,73.6649 C35.7325,75.0019 33.0685,76.0549 30.2695,75.3749 C25.9715,74.3279 22.7515,69.6479 21.2035,62.1959 C20.8455,60.4709 20.3885,58.9219 19.8345,57.5499 L19.8345,57.5499 Z M53.8695,90.9189 C48.6625,95.9269 41.8495,98.6419 35.2095,98.3959 C19.7765,97.7979 9.6145,88.3899 8.0245,73.2289 L7.7505,70.6609 C6.7195,61.1569 6.5885,57.7109 9.1575,56.3579 C9.4235,56.2169 9.8575,56.0429 10.3795,56.0429 C10.6905,56.0429 11.0335,56.1059 11.3895,56.2729 C13.0095,57.0359 14.3905,59.6509 15.1785,63.4459 C17.9565,76.8159 24.9145,80.4039 28.8135,81.3539 C33.5765,82.5129 38.8315,80.9459 41.5955,77.5459 C43.9515,74.6459 44.9265,71.3219 44.4135,67.9369 C43.8015,63.8939 41.1485,60.1229 36.9465,57.3219 C33.0215,54.7039 27.9195,53.1709 18.6515,50.9179 C14.5225,49.9139 11.8375,48.1649 11.4695,46.2389 C11.2505,45.0889 11.8975,43.9479 12.6505,43.4149 C15.0255,41.7369 22.7745,43.1119 29.6135,44.3269 C33.1015,44.9469 36.7085,45.5879 40.3765,46.0359 C48.2665,46.9999 51.5065,52.0789 51.6415,52.2949 L56.9135,49.1209 C56.7245,48.8049 52.2045,41.4109 41.4295,39.9669 C39.5135,38.4349 33.2465,33.4419 27.9415,29.4149 C22.0945,24.9749 19.4865,21.1079 20.9665,19.0689 C22.6665,16.7289 26.9205,19.1579 27.7565,19.6699 C35.8985,24.6439 51.0965,36.8839 55.3315,40.7199 C61.2915,46.1149 61.2185,54.7489 61.2165,54.8239 L61.2145,54.9189 L61.8995,73.0079 C61.8835,79.4979 58.9585,86.0229 53.8695,90.9189 L53.8695,90.9189 Z M40.3845,13.0779 C39.0505,9.3699 39.6055,6.8729 40.8045,6.4079 C41.5195,6.1329 41.9555,6.2489 42.2855,6.4059 C43.6185,7.0279 45.0785,9.2659 46.0945,12.2469 C46.6145,13.7729 49.7215,22.5939 52.4185,30.2399 C49.9225,28.2169 47.0445,25.9379 44.1005,23.6889 C43.5425,22.0569 41.9755,17.4929 40.3845,13.0779 L40.3845,13.0779 Z M67.3705,54.8589 C67.3785,53.7469 67.2475,45.6049 61.9955,38.8859 C60.2445,33.9269 52.7325,12.6469 51.9195,10.2619 C50.7815,6.9239 48.6375,2.5769 44.8865,0.8279 C42.8935,-0.1001 40.7135,-0.1571 38.5805,0.6709 C34.5625,2.2299 31.7715,7.3159 34.5945,15.1629 C34.8505,15.8749 35.1065,16.5899 35.3575,17.2969 C33.7895,16.2159 32.3045,15.2369 30.9655,14.4189 C24.8875,10.7029 19.1475,11.0999 15.9875,15.4529 C10.8515,22.5269 18.9405,30.3079 24.2205,34.3169 C25.7605,35.4849 27.3835,36.7369 28.9555,37.9609 C20.2095,36.4209 13.2935,35.4179 9.0955,38.3919 C6.2555,40.4009 4.7805,44.0189 5.4245,47.3939 C5.5975,48.2979 5.9745,49.4549 6.7755,50.6739 C6.6115,50.7479 6.4485,50.8279 6.2865,50.9139 C-0.2095,54.3379 0.5625,61.4629 1.6315,71.3239 L1.9045,73.8689 C3.8125,92.0749 16.4835,103.8289 34.9715,104.5439 C35.3385,104.5589 35.7045,104.5659 36.0705,104.5659 C44.0265,104.5659 52.0125,101.2449 58.1355,95.3539 C64.4385,89.2899 68.0545,81.1239 68.0545,72.9509 L67.3705,54.8589 Z" id="Fill-79"></path>
                    </g>
                </g>
            </g>
        </g>
    </g>
</svg>