<?xml version="1.0" encoding="UTF-8" standalone="no"?>
<svg width="105px" height="77px" viewBox="0 0 105 77" version="1.1" xmlns="http://www.w3.org/2000/svg" xmlns:xlink="http://www.w3.org/1999/xlink">
    <defs></defs>
    <g id="Lot1" stroke="none" stroke-width="1" fill="none" fill-rule="evenodd">
        <g id="UI" transform="translate(-3409.000000, -1715.000000)" fill="#3B80FF">
            <g id="NOS-VALEURS" transform="translate(3278.000000, 199.000000)">
                <g id="visage-sourire" transform="translate(131.000000, 1516.000000)">
                    <path d="M84.23125,56.001625 C75.62425,64.609625 64.18925,69.350625 52.03325,69.350625 C39.87725,69.350625 28.44325,64.609625 19.83525,56.001625 C18.50125,54.665625 16.33525,54.666625 15.00125,56.001625 C13.66625,57.335625 13.66625,59.500625 15.00125,60.835625 C24.89925,70.735625 38.05125,76.187625 52.03325,76.187625 C66.01525,76.187625 79.16725,70.735625 89.06525,60.835625 C90.40025,59.500625 90.40025,57.335625 89.06525,56.001625 C87.73125,54.666625 85.56525,54.666625 84.23125,56.001625" id="Fill-96"></path>
                    <path d="M81.794,38.386 C73.71,38.386 67.035,32.27 66.132,24.424 C66.131,23.879 66.092,23.344 66.03,22.816 C66.029,22.747 66.02,22.681 66.02,22.612 C66.02,13.913 73.096,6.837 81.794,6.837 C90.491,6.837 97.567,13.913 97.567,22.612 C97.567,31.31 90.491,38.386 81.794,38.386 M22.613,38.386 C13.914,38.386 6.838,31.31 6.838,22.612 C6.838,13.913 13.914,6.837 22.613,6.837 C31.312,6.837 38.388,13.913 38.388,22.612 C38.388,22.677 38.379,22.741 38.378,22.806 C38.315,23.341 38.274,23.882 38.274,24.433 C37.367,32.275 30.695,38.386 22.613,38.386 M81.794,0 C72.501,0 64.501,5.638 61.028,13.672 C58.624,11.697 55.55,10.51 52.204,10.51 C48.858,10.51 45.784,11.697 43.379,13.672 C39.907,5.638 31.907,0 22.613,0 C10.145,0 0,10.144 0,22.612 C0,35.079 10.145,45.223 22.613,45.223 C34.841,45.223 44.827,35.464 45.208,23.327 C45.744,19.944 48.672,17.346 52.204,17.346 C55.738,17.346 58.667,19.948 59.2,23.335 C59.584,35.468 69.569,45.223 81.794,45.223 C94.262,45.223 104.405,35.079 104.405,22.612 C104.405,10.144 94.262,0 81.794,0" id="Fill-97"></path>
                    <path d="M33.657375,20.68375 C27.413375,14.43975 17.249375,14.43775 11.001375,20.68375 C9.66637504,22.01875 9.66637504,24.18375 11.000375,25.51775 C11.668375,26.18575 12.543375,26.51975 13.418375,26.51975 C14.293375,26.51975 15.168375,26.18575 15.835375,25.51875 C19.417375,21.93775 25.243375,21.93875 28.823375,25.51875 C30.157375,26.85375 32.323375,26.85375 33.657375,25.51875 C34.992375,24.18375 34.992375,22.01875 33.657375,20.68375" id="Fill-98"></path>
                    <path d="M70.0017501,20.682625 C68.6667501,22.016625 68.6657501,24.181625 70.0007501,25.516625 C71.3367501,26.851625 73.4997501,26.852625 74.8357501,25.517625 C78.4147501,21.938625 84.2437501,21.937625 87.8247501,25.517625 C88.4927501,26.184625 89.3667501,26.518625 90.2417501,26.518625 C91.1167501,26.518625 91.9917501,26.184625 92.6597501,25.516625 C93.9947501,24.181625 93.9937501,22.016625 92.6587501,20.682625 C86.4117501,14.438625 76.2467501,14.439625 70.0017501,20.682625" id="Fill-99"></path>
                </g>
            </g>
        </g>
    </g>
</svg>