<?xml version="1.0" encoding="UTF-8" standalone="no"?>
<svg width="104px" height="104px" viewBox="0 0 104 104" version="1.1" xmlns="http://www.w3.org/2000/svg" xmlns:xlink="http://www.w3.org/1999/xlink">
    <defs></defs>
    <g id="Lot1" stroke="none" stroke-width="1" fill="none" fill-rule="evenodd">
        <g id="UI" transform="translate(-1440.000000, -297.000000)">
            <g id="PICTOGRAMMES" transform="translate(1043.000000, 201.000000)">
                <g id="Picto-agences" transform="translate(397.000000, 96.000000)">
                    <circle id="Oval" fill="#3B80FF" cx="52" cy="52" r="52"></circle>
                    <path d="M65.0913917,72.2746694 L65.0807794,72.2578146 C62.5413188,73.8434169 57.4380516,71.7640306 52.1206657,66.5802348 C52.3079415,66.0714687 52.415313,65.5246232 52.415313,64.9515591 C52.415313,62.3453034 50.3015928,60.2315832 47.6947129,60.2315832 C47.3800894,60.2315832 47.072957,60.2640443 46.7758127,60.3227241 C46.0679099,59.3407743 45.3712437,58.3051388 44.6908081,57.2164418 C44.2525826,56.5154059 43.8387029,55.8174912 43.4460479,55.1245705 C44.6102795,53.0289536 45.9642839,50.9089909 47.4837154,48.8258591 C49.0524629,46.6746837 50.6361924,44.7700882 52.1949518,43.1014603 C55.6720402,42.8642442 58.8994275,42.9560094 61.7841,43.2987242 C62.1311846,45.5628894 64.0819748,47.2976881 66.4435234,47.2976881 C68.0110224,47.2976881 69.3962395,46.5311055 70.2545871,45.3556374 C73.7042085,46.7783097 75.7629944,48.6822809 75.9128151,50.6324469 L75.9140636,50.6324469 C75.9583856,51.2217416 75.9883497,51.8147818 75.9883497,52.4146888 C75.9883497,60.7490888 71.6373072,68.0815629 65.0913917,72.2746694 M39.9458621,72.4076353 C38.684247,71.2502705 38.5300566,68.3069182 39.5488373,64.4309322 C39.9845658,62.7716681 40.6150611,61.0168933 41.4091108,59.2121782 C41.4172261,59.2252875 41.4247171,59.2383968 41.4328324,59.2515062 C42.1494747,60.3982587 42.8873416,61.495071 43.6408148,62.5450643 C43.2206926,63.25047 42.9753612,64.0713625 42.9753612,64.9515591 C42.9753612,67.5590633 45.0897057,69.6721592 47.6947129,69.6721592 C48.3021109,69.6721592 48.8814176,69.5535512 49.4151538,69.3438022 C52.2292857,72.1017514 55.0927336,74.1511735 57.7976212,75.3615998 C56.0678166,75.7673642 54.2674713,75.988974 52.415313,75.988974 C47.8389153,75.988974 43.5659044,74.6736732 39.9458621,72.4076353 M28.9184352,54.2262706 L28.9334173,54.2250221 C28.7761056,52.1737272 30.6919376,49.8795979 34.2064812,47.8769947 C34.7957759,48.3089777 35.4874481,48.6061221 36.2402971,48.7272271 C36.9925218,50.8097347 37.9426346,52.9646556 39.0868901,55.1532861 C37.6317567,58.0248493 36.5243321,60.8389812 35.8364055,63.4552249 C35.3694643,65.2343456 35.1147692,66.8736336 35.0648289,68.3531129 C31.5877405,64.5707648 29.3329391,59.6522765 28.9184352,54.2262706 M34.1334437,37.5537251 C34.1078493,38.4120728 34.1415589,39.3134939 34.2295786,40.2504975 C33.0459952,41.1088452 32.2725459,42.4990563 32.2725459,44.0740463 C32.2725459,44.2332307 32.2812854,44.3911667 32.2968917,44.5472299 C31.3205603,45.1046877 30.4372424,45.6902369 29.6513081,46.2988835 C30.5233893,43.0558898 32.0696637,40.0869432 34.1334437,37.5537251 M62.2884963,31.0165491 C58.5317426,32.3842871 54.3617335,35.4712175 50.4857474,39.3840345 C47.0436171,39.7005307 43.7332042,40.3029347 40.6949655,41.1519186 C40.0382515,40.3197895 39.108739,39.7155128 38.0406423,39.4726784 C37.7765834,36.0642578 38.4382914,33.5497672 39.9046614,32.4492094 C43.5334433,30.1675652 47.8214362,28.8416521 52.415313,28.8416521 C55.9398447,28.8416521 59.2827188,29.6244652 62.2884963,31.0165491 M41.6388358,44.8730899 C43.1963467,44.4336159 44.8375075,44.0653067 46.5410936,43.7725321 C45.7963599,44.6839413 45.0740994,45.6165751 44.3830514,46.5641909 C43.2987242,48.0511613 42.2918043,49.5606047 41.3691586,51.0719209 C40.8454105,49.9295381 40.3815906,48.8096285 39.982693,47.7234285 C40.8422892,47.0180228 41.4434447,46.0148484 41.6388358,44.8730899 M73.9532854,42.8511349 C73.0668463,42.3592237 72.0917633,41.9103858 71.036776,41.5077427 C70.550483,39.4171199 68.6808457,37.8589848 66.4435234,37.8589848 C64.9952568,37.8589848 63.7005563,38.5125775 62.8347176,39.5394735 C60.799029,39.276663 58.6334958,39.1349576 56.3649609,39.1249696 C61.460737,34.8538315 65.7924277,33.3693582 67.659568,34.4549339 C70.3394855,36.7334568 72.503146,39.5987775 73.9532854,42.8511349 M79.7432307,50.339048 L79.7432307,50.339048 L79.7432307,50.3371753 C79.1745363,42.7899581 75.5407604,36.0867309 70.0804206,31.4735022 L70.0916571,31.4591444 C70.0560747,31.43355 70.0186196,31.4135739 69.9830371,31.3892281 C65.2218606,27.4039978 59.0948187,25 52.415313,25 C47.1678435,25 42.2618402,26.4844733 38.0905826,29.0514011 L38.081843,29.0382918 C37.9594895,29.1144506 37.8458754,29.2005975 37.7291402,29.2836232 C30.0851638,34.1534197 25,42.6988172 25,52.4146888 C25,62.1180753 30.0714303,70.654109 37.6985518,75.5276511 C37.753486,75.5701003 37.8034262,75.6181678 37.859609,75.6587442 L37.8733426,75.6400166 C42.0920434,78.2905943 47.0760783,79.8306261 52.415313,79.8306261 C67.5315962,79.8306261 79.8300018,67.5322204 79.8300018,52.4146888 C79.8300018,51.7155256 79.7950437,51.0251019 79.7432307,50.339048" id="Fill-69" fill="#FFFFFF"></path>
                </g>
            </g>
        </g>
    </g>
</svg>