<?xml version="1.0" encoding="UTF-8" standalone="no"?>
<svg width="104px" height="104px" viewBox="0 0 104 104" version="1.1" xmlns="http://www.w3.org/2000/svg" xmlns:xlink="http://www.w3.org/1999/xlink">
    <defs></defs>
    <g id="Lot1" stroke="none" stroke-width="1" fill="none" fill-rule="evenodd">
        <g id="UI" transform="translate(-1683.000000, -295.000000)">
            <g id="PICTOGRAMMES" transform="translate(1043.000000, 201.000000)">
                <g id="picto-smiliens" transform="translate(640.000000, 94.000000)">
                    <circle id="Oval" fill="#3B80FF" cx="52" cy="52" r="52"></circle>
                    <g id="User" transform="translate(15.000000, 30.000000)" fill="#FFFFFF">
                        <path d="M27.8825238,12.9314176 C27.8825238,7.89549696 31.9725651,3.79832617 36.9997227,3.79832617 C42.0279894,3.79832617 46.1180307,7.89549696 46.1180307,12.9314176 C46.1180307,17.9678936 42.0279894,22.0650644 36.9997227,22.0650644 C31.9725651,22.0650644 27.8825238,17.9678936 27.8825238,12.9314176 M44.4905536,23.4537476 C47.7676881,21.1057621 49.9097474,17.2657754 49.9097474,12.9314176 C49.9097474,5.80080729 44.1179251,0 36.9997227,0 C29.8815204,0 24.0908071,5.80080729 24.0908071,12.9314176 C24.0908071,17.2657754 26.2328664,21.1057621 29.5094464,23.4537476 C21.6193708,26.4827433 16,34.1449415 16,43.1008369 C16,44.1495704 16.8495042,45 17.8958584,45 C18.942767,45 19.7917167,44.1495704 19.7917167,43.1008369 C19.7917167,33.5961339 27.5110043,25.8633906 36.9997227,25.8633906 C46.4889957,25.8633906 54.2088378,33.5961339 54.2088378,43.1008369 C54.2088378,44.1495704 55.0577875,45 56.1046961,45 C57.1510503,45 58,44.1495704 58,43.1008369 C58,34.1449415 52.3811837,26.4827433 44.4905536,23.4537476" id="Fill-89"></path>
                        <path d="M20,22.7495482 C20,21.693529 19.1505063,20.8371913 18.1029269,20.8371913 C13.9975031,20.8371913 10.657234,17.4700112 10.657234,13.3303933 C10.657234,9.19189399 13.9975031,5.82471388 18.1029269,5.82471388 C19.1505063,5.82471388 20,4.96837622 20,3.91235694 C20,2.856897 19.1505063,2 18.1029269,2 C11.9056735,2 6.86308781,7.08321143 6.86308781,13.3303933 C6.86308781,16.9380862 8.5443196,20.1570433 11.1577195,22.2338439 C4.61256762,24.9851992 0,31.5030978 0,39.0876431 C0,40.1436623 0.849493688,41 1.8970731,41 C2.94465252,41 3.79414621,40.1436623 3.79414621,39.0876431 C3.79414621,31.1328199 10.2127896,24.6619052 18.1029269,24.6619052 C19.1505063,24.6619052 20,23.8055675 20,22.7495482" id="Fill-90"></path>
                        <path d="M62.8424089,21.2341341 C65.4560737,19.1573037 67.1365641,15.9383005 67.1365641,12.3311151 C67.1365641,6.08328433 62.094538,1 55.8968626,1 C54.8499542,1 54,1.85634995 54,2.91238437 C54,3.96841879 54.8499542,4.82476873 55.8968626,4.82476873 C60.0029404,4.82476873 63.3428389,8.19199713 63.3428389,12.3311151 C63.3428389,16.4702331 60.0029404,19.8374615 55.8968626,19.8374615 C54.8499542,19.8374615 54,20.6938114 54,21.7498458 C54,22.8058802 54.8499542,23.6622302 55.8968626,23.6622302 C63.787234,23.6622302 70.2062748,30.1332377 70.2062748,38.0876156 C70.2062748,39.1436501 71.056229,40 72.1031374,40 C73.1506006,40 74,39.1436501 74,38.0876156 C74,30.503521 69.3879442,23.9855289 62.8424089,21.2341341" id="Fill-91"></path>
                    </g>
                </g>
            </g>
        </g>
    </g>
</svg>