<?xml version="1.0" encoding="UTF-8" standalone="no"?>
<svg width="104px" height="104px" viewBox="0 0 104 104" version="1.1" xmlns="http://www.w3.org/2000/svg" xmlns:xlink="http://www.w3.org/1999/xlink">
    <defs></defs>
    <g id="Lot1" stroke="none" stroke-width="1" fill="none" fill-rule="evenodd">
        <g id="UI" transform="translate(-1560.000000, -297.000000)">
            <g id="PICTOGRAMMES" transform="translate(1043.000000, 201.000000)">
                <g id="picto-pays" transform="translate(517.000000, 96.000000)">
                    <circle id="Oval" fill="#3B80FF" cx="52" cy="52" r="52"></circle>
                    <path d="M77.9811569,50.5251168 C77.7754478,47.0071109 76.836424,43.6852905 75.3190022,40.703144 C82.3461254,40.8999644 85.3320813,42.4167513 85.5962016,43.5252946 C85.8533379,44.6071719 83.9460847,47.2464699 77.9811569,50.5251168 L77.9811569,50.5251168 Z M18.9337676,59.4087007 C18.6563143,58.2461906 20.9762554,55.2322989 28.0363936,51.6266761 C28.0344888,51.7517523 28.02687,51.8755587 28.02687,52.0006349 C28.02687,55.6526056 28.8205006,59.1198192 30.2337981,62.2498984 C22.5019309,62.1781542 19.2163001,60.5966071 18.9337676,59.4087007 L18.9337676,59.4087007 Z M43.0029976,33.4461855 C42.1388925,34.7731359 41.371293,36.2727804 40.7173413,37.9184529 L37.3402842,37.9184529 C38.9529417,36.1235778 40.8665439,34.6048862 43.0029976,33.4461855 L43.0029976,33.4461855 Z M68.7147255,37.9184529 L65.3376684,37.9184529 C64.6837168,36.2727804 63.9154823,34.772501 63.0513773,33.4461855 C65.1884659,34.6048862 67.1020681,36.1235778 68.7147255,37.9184529 L68.7147255,37.9184529 Z M67.7915744,50.0470337 C67.6633237,47.1258381 67.2519055,44.3608289 66.5992237,41.8256552 L71.4968771,41.8256552 C72.8689057,44.3055922 73.7539626,47.0883787 74.0269716,50.0470337 L67.7915744,50.0470337 Z M66.3344685,63.1476534 C67.1407972,60.3540735 67.6468161,57.2531999 67.7915744,53.954871 L74.0269716,53.954871 C73.7177731,57.3065319 72.6206581,60.4321668 70.9229234,63.1476534 L66.3344685,63.1476534 Z M64.9306946,67.0548557 L67.7814159,67.0548557 C66.3801816,68.4287891 64.7903808,69.6116162 63.0520122,70.5544494 C63.7421534,69.4941589 64.3719787,68.3227601 64.9306946,67.0548557 L64.9306946,67.0548557 Z M41.1243151,67.0548557 C41.6830311,68.3227601 42.3122215,69.4941589 43.0029976,70.5544494 C41.2639941,69.6116162 39.6748281,68.4287891 38.272959,67.0548557 L41.1243151,67.0548557 Z M38.2634354,53.954871 C38.4075587,57.2531999 38.9135776,60.3540735 39.7199064,63.1476534 L35.1327213,63.1476534 C33.4349866,60.4321668 32.3378716,57.3065319 32.0280382,53.954871 L38.2634354,53.954871 Z M38.2634354,50.0470337 L32.0280382,50.0470337 C32.3016821,47.0883787 33.1867389,44.3055922 34.5581327,41.8256552 L39.4557861,41.8256552 C38.8031042,44.3608289 38.3910512,47.1258381 38.2634354,50.0470337 L38.2634354,50.0470337 Z M51.0732688,41.8256552 L51.0732688,50.0470337 L42.1738123,50.0470337 C42.3211101,47.1048862 42.7972885,44.3176554 43.5267938,41.8256552 L51.0732688,41.8256552 Z M51.0732688,31.2697328 L51.0732688,37.9184529 L44.988344,37.9184529 C46.5743354,34.5452052 48.7031703,32.1389171 51.0732688,31.2697328 L51.0732688,31.2697328 Z M54.9804712,37.9184529 L54.9804712,31.2697328 C57.3512046,32.1389171 59.4800394,34.5452052 61.0660309,37.9184529 L54.9804712,37.9184529 Z M54.9804712,50.0470337 L54.9804712,41.8256552 L62.5275811,41.8256552 C63.2577213,44.3176554 63.7332647,47.1048862 63.8805626,50.0470337 L54.9804712,50.0470337 Z M54.9804712,63.1476534 L54.9804712,53.954871 L63.8805626,53.954871 C63.7142176,57.28558 63.1256611,60.417564 62.2247316,63.1476534 L54.9804712,63.1476534 Z M54.9804712,67.0548557 L60.5758846,67.0548557 C59.0533836,69.9157355 57.115655,71.9480648 54.9804712,72.7309021 L54.9804712,67.0548557 Z M43.8302782,63.1476534 C42.9293487,60.417564 42.3407922,57.28558 42.1738123,53.954871 L51.0732688,53.954871 L51.0732688,63.1476534 L43.8302782,63.1476534 Z M51.0732688,67.0548557 L51.0732688,72.7309021 C48.9387198,71.9480648 47.0009913,69.9157355 45.4784903,67.0548557 L51.0732688,67.0548557 Z M89.39674,42.6205557 C88.2177223,37.6638562 79.9233298,36.6867381 72.8416048,36.780704 C68.2664829,30.8392676 61.0888875,27 53.02687,27 C40.938923,27 30.8287036,35.6245429 28.5227304,47.0433005 C21.570526,50.2705201 13.8907211,55.1021434 15.1332292,60.3147095 C16.2525658,65.0174472 23.7228523,66.1647196 30.7423566,66.1647196 C31.3080565,66.1647196 31.8693121,66.1551961 32.4254884,66.1412282 C36.9371199,72.6940776 44.4874043,77 53.02687,77 C65.7941648,77 76.3494523,67.379292 77.840843,55.0088125 C83.9606875,51.9460331 90.5446473,47.4445601 89.39674,42.6205557 L89.39674,42.6205557 Z" id="Fill-57" fill="#FFFFFF"></path>
                </g>
            </g>
        </g>
    </g>
</svg>