<?xml version="1.0" encoding="UTF-8"?>
<svg width="55px" height="60px" viewBox="0 0 55 60" version="1.1" xmlns="http://www.w3.org/2000/svg" xmlns:xlink="http://www.w3.org/1999/xlink">
    <!-- Generator: Sketch 46 (44423) - http://www.bohemiancoding.com/sketch -->
    <title>Stars - Yellow</title>
    <desc>Created with Sketch.</desc>
    <defs></defs>
    <g id="Lot1" stroke="none" stroke-width="1" fill="none" fill-rule="evenodd">
        <g id="UI---VITAM" transform="translate(-1076.000000, -1422.000000)" fill="#FFC64C">
            <path d="M1098.79076,1462.16299 C1097.39958,1463.56915 1096.38294,1465.52988 1095.63985,1467.65217 C1094.88955,1465.56693 1093.8699,1463.639 1092.48593,1462.24013 C1091.15006,1460.89107 1089.49915,1459.88519 1087.78571,1459.13565 C1089.56408,1458.40493 1091.2745,1457.40088 1092.63744,1456.02387 C1093.97451,1454.6736 1094.96109,1452.77604 1095.68915,1450.69565 C1096.42082,1452.74931 1097.4122,1454.62986 1098.75349,1455.98561 C1100.10319,1457.34864 1101.76913,1458.34844 1103.5,1459.08219 C1101.77575,1459.82263 1100.12003,1460.82061 1098.79076,1462.16299 M1114.54311,1456.68922 C1114.5287,1456.68982 1114.51669,1456.68922 1114.49028,1456.68982 C1112.15609,1456.72097 1105.50052,1456.07149 1102.2718,1452.85042 C1099.05148,1449.63415 1098.35266,1440.47543 1098.35326,1437.14712 L1098.35326,1437.092 C1098.35326,1435.96199 1097.43592,1435.04528 1096.30424,1435.04348 L1096.30064,1435.04348 C1095.17017,1435.04348 1094.25222,1435.95659 1094.24862,1437.0854 L1094.24862,1437.13993 C1094.23901,1440.4994 1093.52639,1449.73001 1090.3601,1452.88757 C1086.59285,1456.64728 1078.35655,1456.68922 1078.07438,1456.68922 L1078.05096,1456.68922 C1076.9277,1456.68922 1076.01275,1457.59155 1076.00014,1458.71437 C1075.98693,1459.84258 1076.89227,1460.76888 1078.02275,1460.78565 C1078.1062,1460.78685 1086.3383,1460.95282 1090.20881,1464.81319 C1093.42433,1468.02227 1094.215,1476.84485 1094.24862,1479.97365 C1094.26062,1481.09647 1095.17617,1482 1096.30064,1482 L1096.30484,1482 C1097.43051,1481.9982 1098.34486,1481.08988 1098.35326,1479.96586 C1098.37548,1476.80651 1099.12952,1467.91202 1102.30902,1464.73649 C1106.10688,1460.94862 1114.34019,1460.78925 1114.55572,1460.78565 L1114.56832,1460.78565 C1115.7,1460.77187 1116.60654,1459.84618 1116.59513,1458.71676 C1116.58312,1457.59275 1115.66698,1456.68922 1114.54311,1456.68922 M1120.40804,1437.3888 C1119.94183,1437.83579 1119.54143,1438.36848 1119.19815,1438.95652 C1118.85734,1438.38752 1118.46315,1437.86852 1118.00688,1437.43047 C1117.57544,1437.01741 1117.09931,1436.65792 1116.59524,1436.34485 C1117.13345,1436.02345 1117.64062,1435.64967 1118.09441,1435.21459 C1118.53516,1434.79201 1118.91693,1434.29146 1119.24657,1433.73913 C1119.57371,1434.28313 1119.95052,1434.77654 1120.38507,1435.19376 C1120.82706,1435.61753 1121.31623,1435.98298 1121.83333,1436.29902 C1121.32306,1436.61268 1120.84134,1436.97337 1120.40804,1437.3888 M1128.94425,1434.40478 L1128.9268,1434.40478 C1128.90876,1434.40418 1128.88892,1434.40478 1128.86907,1434.40478 C1127.60609,1434.40478 1124.17319,1434.06266 1122.58545,1432.46808 C1121.22444,1431.09777 1120.6146,1426.75652 1120.6146,1424.09628 L1120.6146,1424.06605 C1120.6146,1422.92604 1119.69623,1422.00181 1118.56196,1422 L1118.55895,1422 C1117.42588,1422 1116.50631,1422.9212 1116.5033,1424.06001 L1116.5033,1424.08358 C1116.49608,1426.77284 1115.88805,1431.14552 1114.55109,1432.48803 C1112.9838,1434.06386 1109.47452,1434.40478 1108.21816,1434.40478 C1108.20192,1434.40418 1108.18748,1434.40478 1108.17245,1434.40478 C1107.0484,1434.40478 1106.13364,1435.31329 1106.1192,1436.44484 C1106.10537,1437.58244 1107.01111,1438.51815 1108.14298,1438.53689 C1109.35544,1438.55744 1112.85449,1438.96545 1114.46569,1440.5836 C1115.8237,1441.94908 1116.47443,1446.12168 1116.5033,1448.65015 C1116.51412,1449.78352 1117.43129,1450.69565 1118.55895,1450.69565 L1118.56075,1450.69565 C1119.68901,1450.69505 1120.60618,1449.77868 1120.6146,1448.64471 C1120.63444,1446.09146 1121.26533,1441.88924 1122.6065,1440.54129 C1124.19605,1438.9449 1127.72337,1438.55381 1128.95447,1438.53749 L1128.96951,1438.53749 C1128.97191,1438.53749 1128.97853,1438.5387 1128.97732,1438.53689 L1128.98033,1438.53689 L1128.98334,1438.53689 L1128.98635,1438.53689 L1128.98935,1438.53689 C1129.09099,1438.53447 1129.19083,1438.5248 1129.28766,1438.50848 L1129.28826,1438.50848 C1129.28886,1438.50848 1129.29006,1438.50787 1129.29066,1438.50787 C1129.29187,1438.50727 1129.29247,1438.50727 1129.29367,1438.50727 C1129.29547,1438.50727 1129.29608,1438.50727 1129.29668,1438.50666 C1129.29788,1438.50666 1129.29788,1438.50606 1129.29908,1438.50666 C1130.27398,1438.3356 1131.01012,1437.47606 1130.99989,1436.44907 C1130.98787,1435.31571 1130.0701,1434.40478 1128.94425,1434.40478" id="Stars---Yellow"></path>
        </g>
    </g>
</svg>