<?xml version="1.0" encoding="UTF-8"?>
<svg width="61px" height="66px" viewBox="0 0 61 66" version="1.1" xmlns="http://www.w3.org/2000/svg" xmlns:xlink="http://www.w3.org/1999/xlink">
    <!-- Generator: Sketch 46 (44423) - http://www.bohemiancoding.com/sketch -->
    <title>Stars - Orange 1</title>
    <desc>Created with Sketch.</desc>
    <defs></defs>
    <g id="Lot1" stroke="none" stroke-width="1" fill="none" fill-rule="evenodd">
        <g id="UI---VITAM" transform="translate(-1199.000000, -1419.000000)" fill="#FF8054">
            <path d="M1247.56837,1436.13883 C1247.07148,1436.63697 1246.64472,1437.23062 1246.27883,1437.88595 C1245.91559,1437.25184 1245.49545,1436.67345 1245.00915,1436.18526 C1244.54931,1435.72494 1244.04183,1435.32431 1243.50458,1434.97542 C1244.07822,1434.61724 1244.61878,1434.20069 1245.10244,1433.71582 C1245.5722,1433.24489 1245.97911,1432.68706 1246.33044,1432.07152 C1246.67912,1432.67777 1247.08074,1433.22764 1247.54388,1433.69261 C1248.01497,1434.16487 1248.53634,1434.57214 1249.08749,1434.92434 C1248.54362,1435.2739 1248.03019,1435.67586 1247.56837,1436.13883 M1257.73841,1432.6121 L1257.71922,1432.6121 C1257.69937,1432.61144 1257.67753,1432.6121 1257.6557,1432.6121 C1256.26626,1432.6121 1252.48963,1432.23668 1250.74291,1430.48691 C1249.24562,1428.98323 1248.57472,1424.21945 1248.57472,1421.3003 L1248.57472,1421.26714 C1248.57472,1420.01617 1247.5644,1419.00199 1246.31655,1419 L1246.31324,1419 C1245.06671,1419 1244.05507,1420.01086 1244.05176,1421.2605 L1244.05176,1421.28637 C1244.04382,1424.23736 1243.3749,1429.03563 1241.90408,1430.5088 C1240.17985,1432.23801 1236.31919,1432.6121 1234.93703,1432.6121 C1234.91917,1432.61144 1234.90329,1432.6121 1234.88675,1432.6121 C1233.65015,1432.6121 1232.64379,1433.60903 1232.62792,1434.85072 C1232.6127,1436.09904 1233.60912,1437.12581 1234.85433,1437.14638 C1236.18819,1437.16893 1240.0376,1437.61665 1241.81013,1439.39229 C1243.30411,1440.89067 1244.02,1445.46938 1244.05176,1448.24394 C1244.06367,1449.48761 1245.07267,1450.48852 1246.31324,1450.48852 L1246.31522,1450.48852 C1247.55646,1450.48786 1248.56545,1449.4823 1248.57472,1448.23797 C1248.59655,1445.43622 1249.29061,1440.825 1250.76606,1439.34586 C1252.51477,1437.5941 1256.39528,1437.16495 1257.74965,1437.14704 L1257.76619,1437.14704 C1257.76884,1437.14704 1257.77612,1437.14837 1257.7748,1437.14638 L1257.7781,1437.14638 L1257.78141,1437.14638 L1257.78472,1437.14638 L1257.78803,1437.14638 C1257.89984,1437.14372 1258.00968,1437.13311 1258.1162,1437.1152 L1258.11686,1437.1152 C1258.11752,1437.1152 1258.11885,1437.11454 1258.11951,1437.11454 C1258.12083,1437.11388 1258.12149,1437.11388 1258.12282,1437.11388 C1258.1248,1437.11388 1258.12546,1437.11388 1258.12613,1437.11321 C1258.12745,1437.11321 1258.12745,1437.11255 1258.12877,1437.11321 C1259.20129,1436.9255 1260.01113,1435.9823 1259.99988,1434.85536 C1259.98665,1433.61169 1258.97699,1432.6121 1257.73841,1432.6121 M1224.7961,1462.68217 C1223.26507,1464.2177 1222.14624,1466.35881 1221.32846,1468.67635 C1220.50273,1466.39927 1219.3806,1464.29397 1217.85751,1462.76641 C1216.38735,1461.29324 1214.57049,1460.19482 1212.68482,1459.37632 C1214.64194,1458.57838 1216.5243,1457.48195 1218.02424,1455.97827 C1219.49572,1454.50377 1220.58147,1452.43164 1221.38271,1450.15986 C1222.18793,1452.40245 1223.27897,1454.45601 1224.75508,1455.93648 C1226.24046,1457.42491 1228.07386,1458.51669 1229.97872,1459.31795 C1228.08114,1460.1265 1226.25899,1461.21629 1224.7961,1462.68217 M1241.47732,1456.97984 C1241.46145,1456.9805 1241.44821,1456.97984 1241.4191,1456.9805 C1238.84665,1457.01499 1231.51173,1456.29598 1227.95344,1452.73012 C1224.40441,1449.16956 1223.63427,1439.03046 1223.63493,1435.34587 L1223.63493,1435.28484 C1223.63493,1434.03387 1222.62395,1433.01903 1221.37676,1433.01704 L1221.37279,1433.01704 C1220.12692,1433.01704 1219.11528,1434.0279 1219.11131,1435.27755 L1219.11131,1435.33791 C1219.10072,1439.05699 1218.31536,1449.27569 1214.82588,1452.77124 C1210.6741,1456.93341 1201.59709,1456.97984 1201.28612,1456.97984 L1201.26031,1456.97984 C1200.02239,1456.97984 1199.01405,1457.97876 1199.00016,1459.22177 C1198.9856,1460.47075 1199.98335,1461.4962 1201.22922,1461.51478 C1201.32118,1461.5161 1210.39357,1461.69983 1214.65915,1465.97343 C1218.20288,1469.52603 1219.07426,1479.29302 1219.11131,1482.75674 C1219.12454,1483.99975 1220.13354,1485 1221.37279,1485 L1221.37742,1485 C1222.61799,1484.99801 1223.62567,1483.99246 1223.63493,1482.74812 C1223.65941,1479.25057 1224.49043,1469.40399 1227.99446,1465.88853 C1232.17999,1461.69519 1241.25369,1461.51876 1241.49122,1461.51478 L1241.50511,1461.51478 C1242.7523,1461.49952 1243.75138,1460.47473 1243.7388,1459.22442 C1243.72557,1457.98009 1242.71591,1456.97984 1241.47732,1456.97984" id="Stars---Orange-1"></path>
        </g>
    </g>
</svg>