<?xml version="1.0" encoding="UTF-8"?>
<svg width="42px" height="46px" viewBox="0 0 42 46" version="1.1" xmlns="http://www.w3.org/2000/svg" xmlns:xlink="http://www.w3.org/1999/xlink">
    <!-- Generator: Sketch 46 (44423) - http://www.bohemiancoding.com/sketch -->
    <title>Stars - Orange 2</title>
    <desc>Created with Sketch.</desc>
    <defs></defs>
    <g id="Lot1" stroke="none" stroke-width="1" fill="none" fill-rule="evenodd">
        <g id="UI---VITAM" transform="translate(-1329.000000, -1429.000000)" fill="#FFA96C">
            <path d="M1362.44051,1440.94525 C1362.09839,1441.29243 1361.80456,1441.70619 1361.55264,1442.16293 C1361.30254,1441.72098 1361.01326,1441.31786 1360.67843,1440.97761 C1360.36182,1440.65678 1360.01241,1440.37755 1359.6425,1440.13438 C1360.03747,1439.88474 1360.40965,1439.59442 1360.74266,1439.25648 C1361.06611,1438.92825 1361.34627,1438.53946 1361.58817,1438.11045 C1361.82825,1438.53299 1362.10477,1438.91623 1362.42366,1439.2403 C1362.74801,1439.56946 1363.10699,1439.85331 1363.48647,1440.09879 C1363.112,1440.34242 1362.75849,1440.62257 1362.44051,1440.94525 M1369.44284,1438.48722 L1369.42963,1438.48722 C1369.41596,1438.48676 1369.40093,1438.48722 1369.38589,1438.48722 C1368.42923,1438.48722 1365.82893,1438.22556 1364.62626,1437.00603 C1363.59534,1435.95801 1363.13341,1432.6378 1363.13341,1430.60324 L1363.13341,1430.58013 C1363.13341,1429.70824 1362.43778,1429.00139 1361.57861,1429 L1361.57633,1429 C1360.71806,1429 1360.02152,1429.70454 1360.01924,1430.5755 L1360.01924,1430.59353 C1360.01378,1432.65028 1359.55321,1435.99453 1358.54052,1437.02129 C1357.35334,1438.22649 1354.69518,1438.48722 1353.74353,1438.48722 C1353.73123,1438.48676 1353.7203,1438.48722 1353.70891,1438.48722 C1352.85748,1438.48722 1352.16458,1439.18205 1352.15365,1440.04747 C1352.14317,1440.91751 1352.82923,1441.63314 1353.68659,1441.64747 C1354.60498,1441.66319 1357.2554,1441.97524 1358.47583,1443.21281 C1359.50447,1444.25713 1359.99738,1447.44836 1360.01924,1449.38214 C1360.02744,1450.24894 1360.72216,1450.94654 1361.57633,1450.94654 L1361.57769,1450.94654 C1362.43231,1450.94608 1363.12703,1450.24524 1363.13341,1449.37798 C1363.14845,1447.42524 1363.62632,1444.21136 1364.64221,1443.18045 C1365.84624,1441.95952 1368.51806,1441.66042 1369.45058,1441.64794 L1369.46197,1441.64794 C1369.46379,1441.64794 1369.4688,1441.64886 1369.46789,1441.64747 L1369.47017,1441.64747 L1369.47245,1441.64747 L1369.47473,1441.64747 L1369.477,1441.64747 C1369.55399,1441.64563 1369.62961,1441.63823 1369.70296,1441.62575 L1369.70341,1441.62575 C1369.70387,1441.62575 1369.70478,1441.62528 1369.70524,1441.62528 C1369.70615,1441.62482 1369.7066,1441.62482 1369.70751,1441.62482 C1369.70888,1441.62482 1369.70934,1441.62482 1369.70979,1441.62436 C1369.7107,1441.62436 1369.7107,1441.6239 1369.71161,1441.62436 C1370.45007,1441.49353 1371.00766,1440.83615 1370.99992,1440.05071 C1370.99081,1439.1839 1370.29563,1438.48722 1369.44284,1438.48722 M1346.76125,1459.44515 C1345.7071,1460.51536 1344.93676,1462.00765 1344.37369,1463.62291 C1343.80516,1462.03585 1343.03254,1460.56853 1341.98386,1459.50386 C1340.97161,1458.4771 1339.72066,1457.71154 1338.42233,1457.14107 C1339.76986,1456.58493 1341.06591,1455.82076 1342.09866,1454.77273 C1343.11181,1453.74505 1343.85937,1452.30084 1344.41105,1450.71748 C1344.96546,1452.2805 1345.71667,1453.71176 1346.73301,1454.74361 C1347.75573,1455.781 1349.01807,1456.54194 1350.32961,1457.10039 C1349.02308,1457.66393 1347.76848,1458.42348 1346.76125,1459.44515 M1358.24668,1455.4708 C1358.23575,1455.47126 1358.22664,1455.4708 1358.20659,1455.47126 C1356.4354,1455.4953 1351.38513,1454.99417 1348.93516,1452.50887 C1346.49156,1450.02727 1345.9613,1442.96062 1345.96175,1440.39257 L1345.96175,1440.35004 C1345.96175,1439.47815 1345.26567,1438.77084 1344.40695,1438.76946 L1344.40422,1438.76946 C1343.54641,1438.76946 1342.84986,1439.47399 1342.84713,1440.34496 L1342.84713,1440.38703 C1342.83984,1442.97912 1342.2991,1450.10124 1339.89651,1452.53753 C1337.03791,1455.43844 1330.78816,1455.4708 1330.57405,1455.4708 L1330.55628,1455.4708 C1329.70394,1455.4708 1329.00967,1456.16701 1329.00011,1457.03336 C1328.99009,1457.90386 1329.67706,1458.61857 1330.53487,1458.63151 C1330.59819,1458.63244 1336.84475,1458.76049 1339.78171,1461.73906 C1342.22166,1464.21511 1342.82162,1471.02241 1342.84713,1473.43652 C1342.85624,1474.30286 1343.55096,1475 1344.40422,1475 L1344.4074,1475 C1345.26157,1474.99861 1345.95538,1474.29777 1345.96175,1473.43051 C1345.97861,1470.99282 1346.55079,1464.13005 1348.9634,1461.67989 C1351.84524,1458.75725 1358.09271,1458.63428 1358.25625,1458.63151 L1358.26582,1458.63151 C1359.12454,1458.62088 1359.81242,1457.90663 1359.80377,1457.0352 C1359.79466,1456.16794 1359.09948,1455.4708 1358.24668,1455.4708" id="Stars---Orange-2"></path>
        </g>
    </g>
</svg>