<?xml version="1.0" encoding="UTF-8"?>
<svg width="47px" height="46px" viewBox="0 0 47 46" version="1.1" xmlns="http://www.w3.org/2000/svg" xmlns:xlink="http://www.w3.org/1999/xlink">
    <!-- Generator: Sketch 46 (44423) - http://www.bohemiancoding.com/sketch -->
    <title>Ico - Engrenage</title>
    <desc>Created with Sketch.</desc>
    <defs></defs>
    <g id="Lot1" stroke="none" stroke-width="1" fill="none" fill-rule="evenodd">
        <g id="UI---VITAM" transform="translate(-1563.000000, -1407.000000)" fill="#FFFFFF">
            <path d="M1574.29558,1436.89431 C1570.37985,1436.89431 1567.20049,1433.64712 1567.20049,1429.64744 C1567.20049,1425.64694 1570.37985,1422.40029 1574.29558,1422.40029 C1578.21077,1422.40029 1581.3912,1425.64694 1581.3912,1429.64744 C1581.3912,1433.64712 1578.21077,1436.89431 1574.29558,1436.89431 M1587.36475,1429.99665 L1590.59195,1429.41618 C1590.56629,1427.62917 1590.26159,1425.858 1589.68532,1424.17119 L1586.45973,1424.75221 C1585.98449,1423.52192 1585.33258,1422.36862 1584.52752,1421.33328 L1586.63239,1418.76976 C1585.49028,1417.41797 1584.14129,1416.26249 1582.63969,1415.34782 L1580.53401,1417.91079 C1579.39538,1417.27872 1578.17175,1416.82384 1576.90161,1416.56064 L1576.90161,1413.21379 C1575.17548,1412.92874 1573.41594,1412.92874 1571.68901,1413.21379 L1571.68901,1416.56064 C1570.42021,1416.82384 1569.19577,1417.27872 1568.05767,1417.91079 L1565.95067,1415.34782 C1564.44799,1416.26249 1563.10087,1417.41797 1561.95849,1418.76976 L1564.06417,1421.33328 C1563.25697,1422.36862 1562.60559,1423.52192 1562.13143,1424.75221 L1558.90529,1424.17119 C1558.33036,1425.858 1558.02352,1427.62917 1558,1429.41618 L1561.22667,1429.99665 C1561.25981,1431.31923 1561.4862,1432.62979 1561.89675,1433.8852 L1559.05979,1435.55781 C1559.67989,1437.22796 1560.56113,1438.78453 1561.66635,1440.16936 L1564.50358,1438.4962 C1565.36103,1439.48786 1566.36041,1440.34273 1567.46457,1441.03405 L1566.34384,1444.17859 C1567.87031,1445.05011 1569.524,1445.66471 1571.24211,1446 L1572.3631,1442.85492 C1573.64393,1443.05069 1574.94695,1443.05069 1576.22751,1442.85492 L1577.34824,1446 C1579.06662,1445.66471 1580.71978,1445.05011 1582.24624,1444.17859 L1581.12605,1441.03405 C1582.23074,1440.34273 1583.22851,1439.48786 1584.08703,1438.4962 L1586.92373,1440.16936 C1588.03003,1438.78453 1588.90939,1437.22796 1589.5303,1435.55781 L1586.6936,1433.8852 C1587.10468,1432.62979 1587.33081,1431.31923 1587.36475,1429.99665 M1601.59654,1427.61342 C1599.33706,1427.61342 1597.50248,1425.7397 1597.50248,1423.43177 C1597.50248,1421.12338 1599.33706,1419.24997 1601.59654,1419.24997 C1603.85572,1419.24997 1605.69091,1421.12338 1605.69091,1423.43177 C1605.69091,1425.7397 1603.85572,1427.61342 1601.59654,1427.61342 M1609.13782,1423.63328 L1611,1423.29833 C1610.98519,1422.26718 1610.80937,1421.24516 1610.47685,1420.27183 L1608.61559,1420.60709 C1608.34137,1419.89718 1607.9652,1419.2317 1607.50066,1418.63427 L1608.71522,1417.15505 C1608.0562,1416.37503 1607.27779,1415.70829 1606.41132,1415.1805 L1605.19629,1416.65941 C1604.53927,1416.29468 1603.8332,1416.03221 1603.10029,1415.88033 L1603.10029,1413.94911 C1602.10427,1413.78463 1601.08897,1413.78463 1600.09248,1413.94911 L1600.09248,1415.88033 C1599.36035,1416.03221 1598.65382,1416.29468 1597.9971,1416.65941 L1596.7813,1415.1805 C1595.91421,1415.70829 1595.13689,1416.37503 1594.47771,1417.15505 L1595.69274,1418.63427 C1595.22696,1419.2317 1594.8511,1419.89718 1594.5775,1420.60709 L1592.71593,1420.27183 C1592.38418,1421.24516 1592.20712,1422.26718 1592.19355,1423.29833 L1594.05542,1423.63328 C1594.07455,1424.39644 1594.20518,1425.15267 1594.44208,1425.87708 L1592.80507,1426.84222 C1593.16289,1427.80594 1593.67139,1428.70413 1594.30913,1429.50321 L1595.94629,1428.53775 C1596.44107,1429.10997 1597.01774,1429.60325 1597.65486,1430.00216 L1597.00817,1431.81665 C1597.88899,1432.31954 1598.84321,1432.67418 1599.83461,1432.86765 L1600.48145,1431.05285 C1601.22053,1431.16582 1601.9724,1431.16582 1602.71132,1431.05285 L1603.35801,1432.86765 C1604.34956,1432.67418 1605.30348,1432.31954 1606.18429,1431.81665 L1605.53791,1430.00216 C1606.17535,1429.60325 1606.75109,1429.10997 1607.24648,1428.53775 L1608.88334,1429.50321 C1609.5217,1428.70413 1610.02912,1427.80594 1610.38739,1426.84222 L1608.75054,1425.87708 C1608.98775,1425.15267 1609.11823,1424.39644 1609.13782,1423.63328" id="Ico---Engrenage" transform="translate(1584.500000, 1429.500000) rotate(-210.000000) translate(-1584.500000, -1429.500000) "></path>
        </g>
    </g>
</svg>