<?xml version="1.0" encoding="UTF-8" standalone="no"?>
<svg width="99px" height="131px" viewBox="0 0 99 131" version="1.1" xmlns="http://www.w3.org/2000/svg" xmlns:xlink="http://www.w3.org/1999/xlink">
    <defs></defs>
    <g id="Lot1" stroke="none" stroke-width="1" fill="none" fill-rule="evenodd">
        <g id="UI" transform="translate(-4664.000000, -559.000000)" fill="#F1F1F1">
            <g id="SMILE-LAB" transform="translate(4642.000000, 199.000000)">
                <g id="ampoule-grise" transform="translate(22.000000, 360.000000)">
                    <path d="M37.7779,103.9449 L37.7779,112.7879 C37.7779,118.2899 44.8719,123.2309 48.2219,123.2309 C51.5719,123.2309 58.6659,118.2899 58.6659,112.7879 L58.6659,104.2669 C58.6669,103.4359 58.7519,96.0169 61.5379,90.8629 C62.6909,88.7289 64.3039,86.5769 66.0109,84.2979 C70.0919,78.8529 74.7169,72.6799 74.7169,64.6869 C74.7169,50.0769 62.8319,38.1909 48.2219,38.1909 C33.6139,38.1909 21.7299,50.0769 21.7299,64.6869 C21.7299,73.3879 25.5889,78.5199 29.6739,83.9539 C30.9819,85.6939 32.3349,87.4929 33.5179,89.3829 C37.9049,96.3879 37.8309,102.7959 37.7779,103.9449 M48.2219,130.0679 C41.3979,130.0679 30.9409,122.3259 30.9409,112.7879 L30.9409,103.8549 C30.9409,103.7669 30.9449,103.6789 30.9509,103.5909 C30.9519,103.5679 31.2129,98.5839 27.7229,93.0109 C26.6949,91.3679 25.4869,89.7629 24.2089,88.0629 C19.8419,82.2549 14.8929,75.6719 14.8929,64.6869 C14.8929,46.3069 29.8439,31.3539 48.2219,31.3539 C66.6009,31.3539 81.5539,46.3069 81.5539,64.6869 C81.5539,74.9579 75.9689,82.4099 71.4829,88.3979 C69.9309,90.4679 68.4659,92.4239 67.5529,94.1129 C65.8869,97.1949 65.5079,102.4919 65.5029,104.2729 L65.5029,112.7879 C65.5029,122.3259 55.0469,130.0679 48.2219,130.0679" id="Fill-80"></path>
                    <polygon id="Fill-81" points="34.359 106.048 62.085 106.048 62.085 99.211 34.359 99.211"></polygon>
                    <path d="M45.8516,78.3038 C46.3636,83.0768 47.1266,89.6098 47.8256,95.3988 C48.5646,89.6098 49.3736,83.0748 49.9156,78.3008 C48.5836,78.4648 47.1856,78.4658 45.8516,78.3038 M53.8746,101.9308 L47.8816,101.1468 L41.7316,101.9068 C41.4586,99.6978 39.4766,83.6018 38.7156,75.6938 C34.1466,72.6998 31.1236,67.5348 31.1236,61.6768 C31.1236,60.5958 31.6346,59.5788 32.5016,58.9338 C33.3696,58.2888 34.4906,58.0918 35.5246,58.4018 C38.8256,59.3918 45.0106,63.3348 45.2486,71.2358 C46.9396,71.7008 48.8666,71.6948 50.5546,71.2198 C50.7886,63.7148 56.3936,59.7848 59.7796,58.5678 C60.2136,58.3688 60.6966,58.2578 61.2046,58.2578 C62.9006,58.2578 64.3706,59.5018 64.6166,61.1798 C64.6686,61.5308 64.6656,61.8788 64.6146,62.2138 C64.4366,67.8308 61.4786,72.7608 57.0736,75.6658 C56.2696,83.5708 54.1646,99.7178 53.8746,101.9308" id="Fill-82"></path>
                    <path d="M12.0049,38.0865 C11.1449,38.0865 10.2839,37.7645 9.6199,37.1165 L1.2299,28.9405 C-0.1221,27.6235 -0.1511,25.4585 1.1669,24.1065 C2.4839,22.7545 4.6489,22.7255 6.0009,24.0445 L14.3909,32.2195 C15.7429,33.5375 15.7719,35.7015 14.4539,37.0535 C13.7839,37.7415 12.8949,38.0865 12.0049,38.0865" id="Fill-83"></path>
                    <path d="M36.4444,22.3365 C35.0484,22.3365 33.7374,21.4755 33.2324,20.0875 L28.1514,6.1495 C27.5044,4.3765 28.4184,2.4145 30.1924,1.7675 C31.9664,1.1215 33.9284,2.0355 34.5744,3.8085 L39.6554,17.7465 C40.3024,19.5205 39.3884,21.4825 37.6144,22.1285 C37.2284,22.2695 36.8334,22.3365 36.4444,22.3365" id="Fill-84"></path>
                    <path d="M62.8892,22.8766 C62.5972,22.8766 62.3012,22.8386 62.0052,22.7596 C60.1812,22.2726 59.0972,20.3996 59.5842,18.5756 L63.8672,2.5376 C64.3542,0.7136 66.2302,-0.3704 68.0512,0.1166 C69.8752,0.6036 70.9592,2.4766 70.4722,4.3006 L66.1902,20.3386 C65.7822,21.8676 64.4002,22.8766 62.8892,22.8766" id="Fill-85"></path>
                    <path d="M85.0474,38.4781 C84.0724,38.4781 83.1054,38.0641 82.4294,37.2601 C81.2144,35.8151 81.4004,33.6591 82.8454,32.4431 L93.0314,23.8761 C94.4774,22.6611 96.6334,22.8471 97.8484,24.2921 C99.0634,25.7371 98.8774,27.8941 97.4324,29.1091 L87.2454,37.6761 C86.6054,38.2151 85.8234,38.4781 85.0474,38.4781" id="Fill-86"></path>
                </g>
            </g>
        </g>
    </g>
</svg>
