<?xml version="1.0" encoding="UTF-8" standalone="no"?>
<svg width="99px" height="131px" viewBox="0 0 99 131" version="1.1" xmlns="http://www.w3.org/2000/svg" xmlns:xlink="http://www.w3.org/1999/xlink">
    <defs></defs>
    <g id="Lot1" stroke="none" stroke-width="1" fill="none" fill-rule="evenodd" opacity="0.170000002">
        <g id="UI-Offre-digitale" transform="translate(-694.000000, -1285.000000)" fill="#1BBA96">
            <g id="OFFRE-DIGITALE" transform="translate(673.000000, 121.000000)">
                <path d="M58.5810472,1267.94483 L58.5810472,1276.78783 C58.5810472,1282.28983 65.6750472,1287.23083 69.0250472,1287.23083 C72.3750472,1287.23083 79.4690472,1282.28983 79.4690472,1276.78783 L79.4690472,1268.26683 C79.4700472,1267.43583 79.5550472,1260.01683 82.3410472,1254.86283 C83.4940472,1252.72883 85.1070472,1250.57683 86.8140472,1248.29783 C90.8950472,1242.85283 95.5200472,1236.67983 95.5200472,1228.68683 C95.5200472,1214.07683 83.6350472,1202.19083 69.0250472,1202.19083 C54.4170472,1202.19083 42.5330472,1214.07683 42.5330472,1228.68683 C42.5330472,1237.38783 46.3920472,1242.51983 50.4770472,1247.95383 C51.7850472,1249.69383 53.1380472,1251.49283 54.3210472,1253.38283 C58.7080472,1260.38783 58.6340472,1266.79583 58.5810472,1267.94483 M69.0250472,1294.06783 C62.2010472,1294.06783 51.7440472,1286.32583 51.7440472,1276.78783 L51.7440472,1267.85483 C51.7440472,1267.76683 51.7480472,1267.67883 51.7540472,1267.59083 C51.7550472,1267.56783 52.0160472,1262.58383 48.5260472,1257.01083 C47.4980472,1255.36783 46.2900472,1253.76283 45.0120472,1252.06283 C40.6450472,1246.25483 35.6960472,1239.67183 35.6960472,1228.68683 C35.6960472,1210.30683 50.6470472,1195.35383 69.0250472,1195.35383 C87.4040472,1195.35383 102.357047,1210.30683 102.357047,1228.68683 C102.357047,1238.95783 96.7720472,1246.40983 92.2860472,1252.39783 C90.7340472,1254.46783 89.2690472,1256.42383 88.3560472,1258.11283 C86.6900472,1261.19483 86.3110472,1266.49183 86.3060472,1268.27283 L86.3060472,1276.78783 C86.3060472,1286.32583 75.8500472,1294.06783 69.0250472,1294.06783 Z M66.6547472,1242.30373 C67.1667472,1247.07673 67.9297472,1253.60973 68.6287472,1259.39873 C69.3677472,1253.60973 70.1767472,1247.07473 70.7187472,1242.30073 C69.3867472,1242.46473 67.9887472,1242.46573 66.6547472,1242.30373 M74.6777472,1265.93073 L68.6847472,1265.14673 L62.5347472,1265.90673 C62.2617472,1263.69773 60.2797472,1247.60173 59.5187472,1239.69373 C54.9497472,1236.69973 51.9267472,1231.53473 51.9267472,1225.67673 C51.9267472,1224.59573 52.4377472,1223.57873 53.3047472,1222.93373 C54.1727472,1222.28873 55.2937472,1222.09173 56.3277472,1222.40173 C59.6287472,1223.39173 65.8137472,1227.33473 66.0517472,1235.23573 C67.7427472,1235.70073 69.6697472,1235.69473 71.3577472,1235.21973 C71.5917472,1227.71473 77.1967472,1223.78473 80.5827472,1222.56773 C81.0167472,1222.36873 81.4997472,1222.25773 82.0077472,1222.25773 C83.7037472,1222.25773 85.1737472,1223.50173 85.4197472,1225.17973 C85.4717472,1225.53073 85.4687472,1225.87873 85.4177472,1226.21373 C85.2397472,1231.83073 82.2817472,1236.76073 77.8767472,1239.66573 C77.0727472,1247.57073 74.9677472,1263.71773 74.6777472,1265.93073 Z M32.8080472,1202.08643 C31.9480472,1202.08643 31.0870472,1201.76443 30.4230472,1201.11643 L22.0330472,1192.94043 C20.6810472,1191.62343 20.6520472,1189.45843 21.9700472,1188.10643 C23.2870472,1186.75443 25.4520472,1186.72543 26.8040472,1188.04443 L35.1940472,1196.21943 C36.5460472,1197.53743 36.5750472,1199.70143 35.2570472,1201.05343 C34.5870472,1201.74143 33.6980472,1202.08643 32.8080472,1202.08643 Z M57.2475472,1186.33643 C55.8515472,1186.33643 54.5405472,1185.47543 54.0355472,1184.08743 L48.9545472,1170.14943 C48.3075472,1168.37643 49.2215472,1166.41443 50.9955472,1165.76743 C52.7695472,1165.12143 54.7315472,1166.03543 55.3775472,1167.80843 L60.4585472,1181.74643 C61.1055472,1183.52043 60.1915472,1185.48243 58.4175472,1186.12843 C58.0315472,1186.26943 57.6365472,1186.33643 57.2475472,1186.33643 Z M83.6923472,1186.87653 C83.4003472,1186.87653 83.1043472,1186.83853 82.8083472,1186.75953 C80.9843472,1186.27253 79.9003472,1184.39953 80.3873472,1182.57553 L84.6703472,1166.53753 C85.1573472,1164.71353 87.0333472,1163.62953 88.8543472,1164.11653 C90.6783472,1164.60353 91.7623472,1166.47653 91.2753472,1168.30053 L86.9933472,1184.33853 C86.5853472,1185.86753 85.2033472,1186.87653 83.6923472,1186.87653 Z M105.850547,1202.47803 C104.875547,1202.47803 103.908547,1202.06403 103.232547,1201.26003 C102.017547,1199.81503 102.203547,1197.65903 103.648547,1196.44303 L113.834547,1187.87603 C115.280547,1186.66103 117.436547,1186.84703 118.651547,1188.29203 C119.866547,1189.73703 119.680547,1191.89403 118.235547,1193.10903 L108.048547,1201.67603 C107.408547,1202.21503 106.626547,1202.47803 105.850547,1202.47803 Z" id="ampoule-verte"></path>
            </g>
        </g>
    </g>
</svg>