<?xml version="1.0" encoding="UTF-8" standalone="no"?>
<svg width="96px" height="112px" viewBox="0 0 96 112" version="1.1" xmlns="http://www.w3.org/2000/svg" xmlns:xlink="http://www.w3.org/1999/xlink">
    <defs></defs>
    <g id="Lot1" stroke="none" stroke-width="1" fill="none" fill-rule="evenodd">
        <g id="52_SMileLabs" transform="translate(-1264.000000, -219.000000)" fill="#FFC64C">
            <g id="INTRODUCTION" transform="translate(181.000000, 203.000000)">
                <g id="ampoule" transform="translate(1052.000000, 0.000000)">
                    <g transform="translate(69.414735, 74.711462) rotate(31.000000) translate(-69.414735, -74.711462) translate(24.414735, 15.211462)">
                        <path d="M34.941555,95.1830136 L34.941555,103.245396 C34.941555,108.261706 41.4331168,112.766538 44.4986274,112.766538 C47.564138,112.766538 54.0556997,108.261706 54.0556997,103.245396 L54.0556997,95.4765889 C54.0566148,94.7189456 54.1343964,87.9548595 56.6838031,83.25583 C57.7388878,81.3102093 59.2149083,79.3481776 60.776946,77.2703568 C64.5113785,72.3060154 68.7436132,66.6779383 68.7436132,59.3905221 C68.7436132,46.0702231 57.8679138,35.2334623 44.4986274,35.2334623 C31.1311711,35.2334623 20.2563868,46.0702231 20.2563868,59.3905221 C20.2563868,67.3234394 23.787672,72.002411 27.5257647,76.9567235 C28.7226864,78.5431246 29.9607867,80.1833175 31.0433237,81.9064773 C35.0577699,88.2931094 34.9900542,94.1354418 34.941555,95.1830136 M44.4986274,119 C38.2541366,119 28.6851682,111.941427 28.6851682,103.245396 L28.6851682,95.1009583 C28.6851682,95.0207265 28.6888286,94.9404948 28.694319,94.860263 C28.6952341,94.8392933 28.9340694,90.295257 25.7404479,85.2142148 C24.799748,83.716251 23.694334,82.2529327 22.5248646,80.7030006 C18.5287199,75.4077031 14,69.4058188 14,59.3905221 C14,42.6330206 27.6813279,29 44.4986274,29 C61.3168419,29 75,42.6330206 75,59.3905221 C75,68.7548473 69.8892906,75.5490204 65.7842517,81.0084284 C64.3640509,82.8956987 63.023462,84.6790324 62.187996,86.2189355 C60.6634764,89.0288713 60.3166619,93.8582774 60.3120865,95.4820593 L60.3120865,103.245396 C60.3120865,111.941427 50.7440332,119 44.4986274,119" id="Fill-80"></path>
                        <polygon id="Fill-81" points="31 97 57 97 57 91 31 91"></polygon>
                        <path d="M42.6164384,71.3600852 C43.0897964,75.7316649 43.7952108,81.7152245 44.4414554,87.0173563 C45.124681,81.7152245 45.8726236,75.7298331 46.3737175,71.3573375 C45.1422471,71.5075447 43.8497579,71.5084606 42.6164384,71.3600852 M50.0339211,93 L44.4932289,92.2819362 L38.8073858,92.9780185 C38.5549899,90.9548004 36.7225767,76.2125112 36.0190114,68.9695922 C31.7948461,66.2273945 29,61.4967829 29,56.1314542 C29,55.1413688 29.4724335,54.2099009 30.2739987,53.6191468 C31.0764884,53.0283928 32.1128835,52.847961 33.0688447,53.1318893 C36.1207094,54.038628 41.8389109,57.6500126 42.0589484,64.8865203 C43.6223241,65.3124127 45.4038883,65.3069173 46.9644904,64.8718659 C47.1808298,57.9980537 52.3628055,54.3985758 55.493255,53.2839283 C55.8944998,53.1016646 56.3410465,53 56.8107064,53 C58.3787047,53 59.7377599,54.1393767 59.9651936,55.6762531 C60.0132691,55.9977332 60.0104955,56.3164656 59.9633446,56.6232913 C59.7987787,61.7678886 57.0640269,66.2832643 52.991484,68.9439471 C52.2481641,76.1841183 50.3020341,90.9731184 50.0339211,93" id="Fill-82"></path>
                        <path d="M10.856481,35 C10.0657852,35 9.27416992,34.6997252 8.66367919,34.0954455 L0.949797783,26.4710771 C-0.293249614,25.2429346 -0.319912613,23.2240063 0.891874717,21.9632252 C2.10274263,20.7024441 4.09327341,20.6754008 5.33632081,21.9054083 L13.0502022,29.5288442 C14.2932496,30.7579193 14.3199126,32.775915 13.1081253,34.0366961 C12.4921181,34.678277 11.6747592,35 10.856481,35" id="Fill-83"></path>
                        <path d="M33.1317666,21 C31.9605953,21 30.8607346,20.2126138 30.437066,18.943285 L26.1743717,6.19695576 C25.6315724,4.57554367 26.3983708,2.7812907 27.8866644,2.1896079 C29.3749579,1.59883959 31.0209737,2.43469444 31.562934,4.05610652 L35.8256283,16.8024357 C36.3684276,18.4247623 35.6016292,20.2190153 34.1133356,20.8097836 C33.7895018,20.9387284 33.4581173,21 33.1317666,21" id="Fill-84"></path>
                        <path d="M57.0766212,21 C56.8140561,21 56.5478943,20.9651171 56.2817325,20.8925973 C54.6416002,20.4455452 53.6668725,18.7261846 54.1047806,17.0518046 L57.9560342,2.32937754 C58.3939423,0.654997517 60.0808328,-0.340083596 61.7182675,0.106968528 C63.3583998,0.554020651 64.3331275,2.27338128 63.8952194,3.94776131 L60.044865,18.6701883 C59.6779933,20.0737668 58.4353053,21 57.0766212,21" id="Fill-85"></path>
                        <path d="M78.0137001,35 C77.1545933,35 76.3025356,34.6237401 75.7068882,33.8930326 C74.6363089,32.5797584 74.8002,30.6202988 76.0734404,29.515149 L85.0486836,21.7291145 C86.3228051,20.6248735 88.2225326,20.7939178 89.2931118,22.107192 C90.3636911,23.4204662 90.1998,25.3808346 88.9265596,26.4850756 L79.9504353,34.2711101 C79.3865088,34.760975 78.697461,35 78.0137001,35" id="Fill-86"></path>
                    </g>
                </g>
            </g>
        </g>
    </g>
</svg>