<?xml version="1.0" encoding="UTF-8" standalone="no"?>
<svg width="108px" height="68px" viewBox="0 0 108 68" version="1.1" xmlns="http://www.w3.org/2000/svg" xmlns:xlink="http://www.w3.org/1999/xlink">
    <defs></defs>
    <g id="Lot1" stroke="none" stroke-width="1" fill="none" fill-rule="evenodd">
        <g id="UI-Qui-sommes-nous" transform="translate(-803.000000, -385.000000)" fill="#FFE1A2">
            <g id="QUI-SOMMES-NOUS" transform="translate(409.000000, 258.000000)">
                <g id="picto-collab" transform="translate(394.000000, 127.000000)">
                    <path d="M40.3881464,19.3053659 C40.3881464,11.7872195 46.4834045,5.67053659 53.9752173,5.67053659 C61.4686827,5.67053659 67.5639409,11.7872195 67.5639409,19.3053659 C67.5639409,26.8243415 61.4686827,32.9410244 53.9752173,32.9410244 C46.4834045,32.9410244 40.3881464,26.8243415 40.3881464,19.3053659 M65.1385636,35.0141951 C70.0223727,31.508878 73.2146155,25.7761463 73.2146155,19.3053659 C73.2146155,8.66004878 64.5832473,0 53.9752173,0 C43.3671873,0 34.7374718,8.66004878 34.7374718,19.3053659 C34.7374718,25.7761463 37.9297145,31.508878 42.8126973,35.0141951 C31.0543691,39.5361951 22.68,50.975122 22.68,64.3454146 C22.68,65.9110732 23.9459891,67.1806829 25.5053373,67.1806829 C27.0655118,67.1806829 28.3306745,65.9110732 28.3306745,64.3454146 C28.3306745,50.1558049 39.8344827,38.611561 53.9752173,38.611561 C68.1167782,38.611561 79.6214127,50.1558049 79.6214127,64.3454146 C79.6214127,65.9110732 80.8865755,67.1806829 82.44675,67.1806829 C84.0060982,67.1806829 85.2712609,65.9110732 85.2712609,64.3454146 C85.2712609,50.975122 76.8977182,39.5361951 65.1385636,35.0141951" id="Fill-89"></path>
                    <path d="M29.7862773,34.0014611 C29.7862773,32.4358026 28.5211145,31.1661928 26.96094,31.1661928 C20.8466755,31.1661928 15.8719664,26.1739977 15.8719664,20.036583 C15.8719664,13.9008269 20.8466755,8.90863182 26.96094,8.90863182 C28.5211145,8.90863182 29.7862773,7.63902207 29.7862773,6.07336353 C29.7862773,4.50853426 28.5211145,3.23809524 26.96094,3.23809524 C17.7312845,3.23809524 10.2212918,10.7744855 10.2212918,20.036583 C10.2212918,25.3853635 12.7251736,30.1578026 16.6173464,33.2368757 C6.86956091,37.3160465 0,46.9795099 0,58.2243879 C0,59.7900465 1.26516273,61.0596562 2.82533727,61.0596562 C4.38551182,61.0596562 5.65067455,59.7900465 5.65067455,58.2243879 C5.65067455,46.4305343 15.2100491,36.8367294 26.96094,36.8367294 C28.5211145,36.8367294 29.7862773,35.5671196 29.7862773,34.0014611" id="Fill-90"></path>
                    <path d="M90.9305836,32.1575106 C94.8235827,29.0784375 97.3266382,24.3059985 97.3266382,18.9580472 C97.3266382,9.6951204 89.8166455,2.15873016 80.5853373,2.15873016 C79.0259891,2.15873016 77.76,3.42833991 77.76,4.99399845 C77.76,6.55965699 79.0259891,7.82926674 80.5853373,7.82926674 C86.7012545,7.82926674 91.6759636,12.8214619 91.6759636,18.9580472 C91.6759636,25.0946326 86.7012545,30.0868277 80.5853373,30.0868277 C79.0259891,30.0868277 77.76,31.3564375 77.76,32.922096 C77.76,34.4877545 79.0259891,35.7573643 80.5853373,35.7573643 C92.3378809,35.7573643 101.898908,45.3511692 101.898908,57.1441936 C101.898908,58.7098521 103.164897,59.9794619 104.724245,59.9794619 C106.28442,59.9794619 107.549583,58.7098521 107.549583,57.1441936 C107.549583,45.9001448 100.680022,36.2366814 90.9305836,32.1575106" id="Fill-91"></path>
                </g>
            </g>
        </g>
    </g>
</svg>