<?xml version="1.0" encoding="UTF-8" standalone="no"?>
<svg width="108px" height="73px" viewBox="0 0 108 73" version="1.1" xmlns="http://www.w3.org/2000/svg" xmlns:xlink="http://www.w3.org/1999/xlink">
    <defs></defs>
    <g id="Lot1" stroke="none" stroke-width="1" fill="none" fill-rule="evenodd">
        <g id="UI-Qui-sommes-nous" transform="translate(-1062.000000, -380.000000)" fill="#FE9672">
            <g id="QUI-SOMMES-NOUS" transform="translate(409.000000, 258.000000)">
                <g id="terre" transform="translate(653.000000, 122.000000)">
                    <path d="M91.0677844,34.0162101 C90.7703388,28.9293394 89.4125547,24.1261437 87.2184343,19.8141004 C97.3793231,20.0986935 101.696875,22.2918958 102.07878,23.8947971 C102.450587,25.4591407 99.6927889,29.2754413 91.0677844,34.0162101 L91.0677844,34.0162101 Z M5.68804252,46.8614538 C5.28685817,45.1805189 8.64138363,40.8225735 18.8500106,35.609013 C18.8472565,35.7898673 18.83624,35.9688855 18.83624,36.1497397 C18.83624,41.4303173 19.9837925,46.4437447 22.027354,50.9696917 C10.8474385,50.865953 6.09657121,48.5791103 5.68804252,46.8614538 L5.68804252,46.8614538 Z M40.4910147,9.3208804 C39.2415595,11.2395882 38.1316467,13.4080034 37.1860635,15.7875682 L32.3029981,15.7875682 C34.6348247,13.1922635 37.4018033,10.996307 40.4910147,9.3208804 L40.4910147,9.3208804 Z M77.6689614,15.7875682 L72.785896,15.7875682 C71.8403128,13.4080034 70.729482,11.2386701 69.4800268,9.3208804 C72.5701562,10.996307 75.3371348,13.1922635 77.6689614,15.7875682 L77.6689614,15.7875682 Z M76.3341284,33.3249245 C76.1486839,29.1010133 75.5537927,25.1029404 74.6100455,21.4371987 L81.6918215,21.4371987 C83.6757102,25.0230707 84.9554608,29.0468488 85.3502188,33.3249245 L76.3341284,33.3249245 Z M74.227222,52.2678031 C75.3931353,48.2284183 76.1248148,43.7447012 76.3341284,38.975473 L85.3502188,38.975473 C84.9031324,43.8218167 83.3167558,48.3413375 80.8619115,52.2678031 L74.227222,52.2678031 Z M72.1974311,57.9174335 L76.3194397,57.9174335 C74.293321,59.9040764 71.9945438,61.6143887 69.4809448,62.977681 C70.4788565,61.4445509 71.3895542,59.7507634 72.1974311,57.9174335 L72.1974311,57.9174335 Z M37.7745284,57.9174335 C38.5824053,59.7507634 39.492185,61.4445509 40.4910147,62.977681 C37.9764976,61.6143887 35.6786385,59.9040764 33.6516018,57.9174335 L37.7745284,57.9174335 Z M33.6378311,38.975473 C33.8462267,43.7447012 34.5779061,48.2284183 35.7438195,52.2678031 L29.110966,52.2678031 C26.6561217,48.3413375 25.0697452,43.8218167 24.6217407,38.975473 L33.6378311,38.975473 Z M33.6378311,33.3249245 L24.6217407,33.3249245 C25.0174168,29.0468488 26.2971673,25.0230707 28.280138,21.4371987 L35.361914,21.4371987 C34.4181668,25.1029404 33.8223576,29.1010133 33.6378311,33.3249245 L33.6378311,33.3249245 Z M52.1602465,21.4371987 L52.1602465,33.3249245 L39.2920518,33.3249245 C39.5050375,29.0707179 40.193569,25.0405135 41.2483993,21.4371987 L52.1602465,21.4371987 Z M52.1602465,6.17383243 L52.1602465,15.7875682 L43.361732,15.7875682 C45.6550009,10.9100111 48.7331957,7.43063193 52.1602465,6.17383243 L52.1602465,6.17383243 Z M57.8098769,15.7875682 L57.8098769,6.17383243 C61.2378458,7.43063193 64.3160406,10.9100111 66.6093095,15.7875682 L57.8098769,15.7875682 Z M57.8098769,33.3249245 L57.8098769,21.4371987 L68.7226422,21.4371987 C69.7783905,25.0405135 70.4660039,29.0707179 70.6789897,33.3249245 L57.8098769,33.3249245 Z M57.8098769,52.2678031 L57.8098769,38.975473 L70.6789897,38.975473 C70.4384627,43.7915213 69.5874377,48.3202225 68.2847361,52.2678031 L57.8098769,52.2678031 Z M57.8098769,57.9174335 L65.9005811,57.9174335 C63.6991163,62.0541308 60.8972522,64.9927832 57.8098769,66.124729 L57.8098769,57.9174335 Z M41.6872234,52.2678031 C40.3845218,48.3202225 39.5334968,43.7915213 39.2920518,38.975473 L52.1602465,38.975473 L52.1602465,52.2678031 L41.6872234,52.2678031 Z M52.1602465,57.9174335 L52.1602465,66.124729 C49.0737893,64.9927832 46.2719251,62.0541308 44.0704604,57.9174335 L52.1602465,57.9174335 Z M107.574179,22.5865873 C105.869376,15.4194334 93.8760749,14.0065668 83.6362344,14.142437 C77.0208238,5.55139996 66.642359,0 54.9850617,0 C37.5064601,0 22.8875593,12.4706825 19.5532308,28.9816678 C9.50067094,33.6480753 -1.60396506,40.6343749 0.192643126,48.1714997 C1.81115117,54.9714368 12.6128333,56.6303387 22.7627056,56.6303387 C23.5806811,56.6303387 24.3922302,56.616568 25.196435,56.5963711 C31.7200414,66.0714826 42.6373968,72.2976434 54.9850617,72.2976434 C73.4459682,72.2976434 88.7084164,58.386553 90.8648971,40.4994227 C99.7139039,36.0707881 109.233999,29.5618704 107.574179,22.5865873 L107.574179,22.5865873 Z"></path>
                </g>
            </g>
        </g>
    </g>
</svg>