<?xml version="1.0" encoding="UTF-8" standalone="no"?>
<svg width="77px" height="68px" viewBox="0 0 77 68" version="1.1" xmlns="http://www.w3.org/2000/svg" xmlns:xlink="http://www.w3.org/1999/xlink">
    <defs></defs>
    <g id="Lot1" stroke="none" stroke-width="1" fill="none" fill-rule="evenodd">
        <g id="UI-Qui-sommes-nous" transform="translate(-678.000000, -386.000000)" fill="#FFC64C">
            <g id="QUI-SOMMES-NOUS" transform="translate(409.000000, 258.000000)">
                <g id="picto-experience" transform="translate(269.000000, 128.000000)">
                    <path d="M64.3383549,31.0409274 C62.6710554,31.0409274 61.3190238,32.3920758 61.3190238,34.0593753 L61.3190238,52.2009718 C61.3190238,57.2682201 57.1975795,61.3905475 52.1312144,61.3905475 L15.8480214,61.3905475 C10.7816562,61.3905475 6.66109502,57.2682201 6.66109502,52.2009718 L6.66109502,15.9177789 C6.66109502,10.8522968 10.7816562,6.7308525 15.8480214,6.7308525 L52.1312144,6.7308525 C54.387544,6.7308525 56.5564463,7.55567122 58.2405248,9.05518107 C59.4848177,10.163476 61.3914383,10.0539712 62.5023826,8.80879518 C63.6115607,7.56450226 63.5011727,5.65523236 62.2559967,4.54693738 C59.4662725,2.06188396 55.8702748,0.693073438 52.1312144,0.693073438 L15.8480214,0.693073438 C7.45323891,0.693073438 0.62331596,7.52299639 0.62331596,15.9177789 L0.62331596,52.2009718 C0.62331596,60.5975205 7.45323891,67.4283266 15.8480214,67.4283266 L52.1312144,67.4283266 C60.5268799,67.4283266 67.357686,60.5975205 67.357686,52.2009718 L67.357686,34.0593753 C67.357686,32.3920758 66.0056544,31.0409274 64.3383549,31.0409274" id="Fill-92"></path>
                    <path d="M75.6384598,7.96340014 C74.5160352,6.72970446 72.6067652,6.640511 71.3739527,7.76205253 L34.6121176,41.2193141 L16.546468,25.6687435 C15.2818637,24.5807599 13.3752431,24.7238227 12.2890257,25.9875439 C11.2010421,27.2503819 11.3432218,29.1570025 12.606943,30.244103 L32.6984321,47.5379201 C33.2662677,48.0262764 33.9665689,48.2691298 34.6677531,48.2691298 C35.3971966,48.2691298 36.124874,48.0068481 36.6997744,47.4831677 L75.4371122,12.2279072 C76.6708078,11.1054826 76.7608844,9.19621271 75.6384598,7.96340014" id="Fill-93"></path>
                </g>
            </g>
        </g>
    </g>
</svg>