<?xml version="1.0" encoding="utf-8"?>
<!-- Generator: Adobe Illustrator 20.1.0, SVG Export Plug-In . SVG Version: 6.00 Build 0)  -->
<svg version="1.1" id="Calque_1" xmlns="http://www.w3.org/2000/svg" xmlns:xlink="http://www.w3.org/1999/xlink" x="0px" y="0px"
	 viewBox="0 0 26 26" style="enable-background:new 0 0 26 26;" xml:space="preserve">
<path d="M12.9,0c2.3,0,4.5,0.6,6.5,1.7c2,1.1,3.5,2.7,4.7,4.7s1.7,4.1,1.7,6.5c0,2.8-0.8,5.3-2.5,7.6s-3.7,3.8-6.3,4.6
	c-0.3,0.1-0.5,0-0.7-0.1c-0.1-0.1-0.2-0.3-0.2-0.5c0,0,0-0.5,0-1.3s0-1.6,0-2.3c0-1.1-0.3-1.9-0.9-2.4c0.6-0.1,1.2-0.2,1.7-0.3
	s1-0.4,1.6-0.7c0.5-0.3,1-0.7,1.4-1.1s0.7-1,0.9-1.8c0.2-0.7,0.3-1.6,0.3-2.5c0-1.3-0.4-2.5-1.3-3.4c0.4-1,0.4-2.2-0.1-3.4
	c-0.3-0.1-0.8,0-1.4,0.2c-0.6,0.2-1.1,0.5-1.5,0.7l-0.6,0.4c-1-0.3-2.1-0.4-3.2-0.4s-2.2,0.1-3.2,0.4C9.5,6.5,9.2,6.4,8.9,6.2
	C8.6,6,8.2,5.8,7.5,5.6C6.9,5.3,6.4,5.2,6.1,5.3C5.6,6.6,5.6,7.7,6,8.7c-0.9,1-1.3,2.1-1.3,3.4c0,0.9,0.1,1.8,0.3,2.5
	c0.2,0.7,0.5,1.3,0.9,1.8c0.4,0.4,0.8,0.8,1.3,1.1c0.5,0.3,1.1,0.5,1.6,0.7s1.1,0.2,1.7,0.3c-0.4,0.4-0.7,1-0.8,1.7
	c-0.2,0.1-0.5,0.2-0.8,0.3s-0.6,0.1-1,0.1c-0.4,0-0.7-0.1-1.1-0.4c-0.4-0.2-0.7-0.6-0.9-1c-0.2-0.4-0.5-0.6-0.8-0.9
	c-0.3-0.2-0.6-0.4-0.8-0.4L4,17.9c-0.2,0-0.4,0-0.5,0.1c-0.1,0.1-0.1,0.1-0.1,0.2c0,0.1,0.1,0.2,0.2,0.2c0.1,0.1,0.1,0.1,0.2,0.2
	l0.1,0.1c0.2,0.1,0.5,0.3,0.7,0.6s0.4,0.6,0.5,0.9l0.2,0.4c0.1,0.4,0.4,0.8,0.7,1s0.7,0.4,1.1,0.5c0.4,0.1,0.8,0.1,1.2,0.1
	c0.4,0,0.7,0,0.9-0.1l0.4-0.1c0,0.4,0,0.9,0,1.5c0,0.6,0,0.9,0,0.9c0,0.2-0.1,0.4-0.2,0.5c-0.1,0.1-0.4,0.2-0.7,0.1
	c-2.6-0.9-4.7-2.4-6.3-4.6C0.8,18.2,0,15.7,0,12.9c0-2.3,0.6-4.5,1.7-6.5s2.7-3.5,4.7-4.7C8.4,0.6,10.5,0,12.9,0z M4.9,18.5
	c0,0.1-0.1,0.1-0.2,0c-0.1-0.1-0.2-0.1-0.1-0.2c0-0.1,0.1-0.1,0.2,0C4.9,18.3,4.9,18.4,4.9,18.5z M5.4,19c-0.1,0.1-0.2,0.1-0.3-0.1
	c-0.1-0.1-0.1-0.2,0-0.3c0.1-0.1,0.2-0.1,0.3,0.1C5.5,18.9,5.5,19,5.4,19z M5.9,19.8c-0.1,0.1-0.2,0-0.3-0.1c-0.1-0.1-0.1-0.2,0-0.3
	c0.1-0.1,0.2,0,0.3,0.1C6,19.6,6,19.7,5.9,19.8z M6.6,20.5c-0.1,0.1-0.2,0.1-0.3-0.1c-0.1-0.1-0.2-0.2-0.1-0.3
	C6.3,20,6.4,20,6.5,20.2C6.7,20.3,6.7,20.4,6.6,20.5z M7.6,20.9c0,0.1-0.2,0.2-0.3,0.1C7,21,7,20.9,7,20.8c0-0.1,0.2-0.2,0.3-0.1
	C7.5,20.7,7.6,20.8,7.6,20.9z M8.6,21c0,0.1-0.1,0.2-0.3,0.2c-0.2,0-0.3,0-0.3-0.2c0-0.1,0.1-0.2,0.3-0.2C8.5,20.8,8.6,20.9,8.6,21z
	 M9.6,20.8c0,0.1-0.1,0.2-0.2,0.2c-0.2,0-0.3,0-0.3-0.1c0-0.1,0.1-0.2,0.2-0.3C9.5,20.7,9.6,20.7,9.6,20.8z"/>
</svg>
