<?xml version="1.0" encoding="UTF-8"?>
<svg width="39px" height="41px" viewBox="0 0 39 41" version="1.1" xmlns="http://www.w3.org/2000/svg" xmlns:xlink="http://www.w3.org/1999/xlink">
    <!-- Generator: Sketch 46 (44423) - http://www.bohemiancoding.com/sketch -->
    <title>Ico - Cart</title>
    <desc>Created with Sketch.</desc>
    <defs></defs>
    <g id="Lot1" stroke="none" stroke-width="1" fill="none" fill-rule="evenodd">
        <g id="UI---AUCHAN" transform="translate(-692.000000, -2144.000000)" fill="#8DE6AD">
            <path d="M723.819208,2178.52386 L723.819208,2178.69983 C723.819208,2180.02088 722.745283,2181.09524 721.424227,2181.09524 L700.832056,2181.09524 C699.511,2181.09524 698.436213,2180.02088 698.436213,2178.69983 L698.436213,2178.53593 L694.953076,2163.05547 C695.028121,2161.80169 696.071423,2160.80497 697.343312,2160.80497 L725.180374,2160.80497 C726.448812,2160.80497 727.489958,2161.79609 727.570179,2163.04469 L723.819208,2178.52386 Z M704.602435,2153.60752 C704.602435,2149.93591 707.589583,2146.94876 711.261627,2146.94876 C714.933671,2146.94876 717.921251,2149.93591 717.921251,2153.60752 L717.921251,2157.85621 L704.602435,2157.85621 L704.602435,2153.60752 Z M725.180374,2157.85621 L720.870445,2157.85621 L720.870445,2153.60752 C720.870445,2148.30993 716.559653,2144 711.261627,2144 C705.964033,2144 701.653241,2148.30993 701.653241,2153.60752 L701.653241,2157.85621 L697.343312,2157.85621 C694.397137,2157.85621 692,2160.25335 692,2163.19995 L692,2163.36384 L695.490038,2178.87666 C695.58406,2181.74175 697.944105,2184.044 700.832056,2184.044 L721.424227,2184.044 C724.307433,2184.044 726.664891,2181.74908 726.764951,2178.8896 L730.524117,2163.37592 L730.524117,2163.19995 C730.524117,2160.25335 728.126549,2157.85621 725.180374,2157.85621 L725.180374,2157.85621 Z" id="Ico---Cart"></path>
        </g>
    </g>
</svg>