<?xml version="1.0" encoding="UTF-8"?>
<svg width="91px" height="56px" viewBox="0 0 91 56" version="1.1" xmlns="http://www.w3.org/2000/svg" xmlns:xlink="http://www.w3.org/1999/xlink">
    <!-- Generator: Sketch 46 (44423) - http://www.bohemiancoding.com/sketch -->
    <title>Ico - Quote</title>
    <desc>Created with Sketch.</desc>
    <defs></defs>
    <g id="Lot1" stroke="none" stroke-width="1" fill="none" fill-rule="evenodd">
        <g id="UI---AUCHAN" transform="translate(-800.000000, -2136.000000)" fill="#FF838C">
            <path d="M832.039242,2175.45223 L815.960713,2191.53076 L816.102053,2178.15358 C806.871089,2175.93349 800,2167.46673 800,2157.36087 C800,2145.56359 809.363608,2136 820.914203,2136 C832.464798,2136 841.828406,2145.56359 841.828406,2157.36087 C841.828406,2164.98241 837.920321,2171.67166 832.039242,2175.45223 Z M880.929586,2175.45223 L864.851057,2191.53076 L864.992397,2178.15358 C855.761434,2175.93349 848.890344,2167.46673 848.890344,2157.36087 C848.890344,2145.56359 858.253952,2136 869.804547,2136 C881.355142,2136 890.71875,2145.56359 890.71875,2157.36087 C890.71875,2164.98241 886.810666,2171.67166 880.929586,2175.45223 Z" id="Ico---Quote"></path>
        </g>
    </g>
</svg>