<?xml version="1.0" encoding="UTF-8" standalone="no"?>
<svg
   xmlns:dc="http://purl.org/dc/elements/1.1/"
   xmlns:cc="http://creativecommons.org/ns#"
   xmlns:rdf="http://www.w3.org/1999/02/22-rdf-syntax-ns#"
   xmlns:svg="http://www.w3.org/2000/svg"
   xmlns="http://www.w3.org/2000/svg"
   xmlns:sodipodi="http://sodipodi.sourceforge.net/DTD/sodipodi-0.dtd"
   xmlns:inkscape="http://www.inkscape.org/namespaces/inkscape"
   width="25px"
   height="18px"
   viewBox="0 0 25 18"
   version="1.1"
   id="svg2"
   inkscape:version="0.48.4 r9939"
   sodipodi:docname="Link-arrow.svg">
  <metadata
     id="metadata16">
    <rdf:RDF>
      <cc:Work
         rdf:about="">
        <dc:format>image/svg+xml</dc:format>
        <dc:type
           rdf:resource="http://purl.org/dc/dcmitype/StillImage" />
        <dc:title>Link-arrow</dc:title>
      </cc:Work>
    </rdf:RDF>
  </metadata>
  <sodipodi:namedview
     pagecolor="#ffffff"
     bordercolor="#666666"
     borderopacity="1"
     objecttolerance="10"
     gridtolerance="10"
     guidetolerance="10"
     inkscape:pageopacity="0"
     inkscape:pageshadow="2"
     inkscape:window-width="1366"
     inkscape:window-height="692"
     id="namedview14"
     showgrid="false"
     inkscape:zoom="1.6388889"
     inkscape:cx="-299.17816"
     inkscape:cy="-106.20753"
     inkscape:window-x="0"
     inkscape:window-y="24"
     inkscape:window-maximized="1"
     inkscape:current-layer="UI" />
  <!-- Generator: Sketch 42 (36781) - http://www.bohemiancoding.com/sketch -->
  <title
     id="title4">Link-arrow</title>
  <desc
     id="desc6">Created with Sketch.</desc>
  <defs
     id="defs8" />
  <g
     id="Lot1"
     stroke="none"
     stroke-width="1"
     fill="none"
     fill-rule="evenodd">
    <g
       id="UI"
       transform="translate(-262.000000, -324.000000)"
       fill="#3B80FF">
      <g
         id="TRANSVERSE"
         transform="translate(189.000000, 201.000000)">
        <path
           d="M94.6735568,132.592094 L74.0006946,132.592094 C73.4480262,132.592094 73,132.148229 73,131.592094 C73,131.039809 73.4474692,130.592094 74.0006946,130.592094 L94.4665591,130.592094 L87.7496931,124.753211 C87.3356491,124.393288 87.2912015,123.766524 87.656059,123.346804 C88.0183904,122.929989 88.6439807,122.880578 89.0618112,123.243792 L97.5367185,130.610917 C97.8503161,130.883523 97.9518921,131.309205 97.8241934,131.682064 C97.9518921,132.054923 97.8503161,132.480605 97.5367185,132.753211 L89.0618112,140.120336 C88.6439807,140.483551 88.0183904,140.434139 87.656059,140.017325 C87.2912015,139.597604 87.3356491,138.97084 87.7496931,138.610917 L94.6735568,132.592094 Z"
           id="Link-arrow" />
      </g>
      <path
         style="fill:#3b80ff;fill-opacity:0"
         d="m 6.1297331,9.586035 c 2.8351205,-0.0054 7.4857559,-0.0054 10.3347459,-5e-7 2.848989,0.00539 0.529345,0.00981 -5.154765,0.00981 -5.6841102,3e-7 -8.0151017,-0.00441 -5.1799809,-0.00981 z"
         id="path3783"
         inkscape:connector-curvature="0"
         transform="translate(262,324)" />
      <path
         style="fill:#3b80ff;fill-opacity:1"
         d="m 15.275816,17.331595 c -0.240327,-0.05842 -0.354133,-0.115905 -0.505303,-0.255248 -0.241823,-0.222906 -0.328358,-0.410468 -0.328358,-0.711712 0,-0.283423 0.08753,-0.491295 0.292643,-0.694961 0.06921,-0.06873 1.66578,-1.463513 3.547931,-3.09953 L 21.70482,9.5955675 11.225487,9.5764997 0.74615464,9.5574319 0.54577768,9.4464081 C 0.09066384,9.1942419 -0.09957747,8.6317693 0.11813633,8.1820324 0.21491944,7.9821051 0.49130335,7.7277235 0.68427323,7.6609641 0.7931187,7.6233086 3.0137022,7.6090551 11.152008,7.5937753 L 21.481591,7.574381 18.052819,4.5930117 C 14.371908,1.3924026 14.504631,1.5203675 14.434151,1.1040798 c -0.05791,-0.34206666 0.21806,-0.81255303 0.579154,-0.98735607 0.221563,-0.10725679 0.554209,-0.10943637 0.786009,-0.00515 0.164577,0.074043 8.244819,7.06220299 8.711594,7.53418239 0.283882,0.2870466 0.388317,0.5589366 0.329648,0.858219 -0.01901,0.096986 -0.02098,0.2364018 -0.0044,0.3098128 0.04828,0.2134091 -0.0028,0.4732513 -0.134587,0.684106 -0.0935,0.1496388 -1.090931,1.0358372 -4.426062,3.9324512 -2.367952,2.056604 -4.367613,3.771036 -4.443691,3.809848 -0.147747,0.07537 -0.430645,0.121878 -0.556026,0.0914 z"
         id="path3785"
         inkscape:connector-curvature="0"
         transform="translate(262,324)" />
    </g>
    <path
       style="fill:#3b80ff;fill-opacity:0"
       d="m 15.275816,17.331595 c -0.240327,-0.05842 -0.354133,-0.115905 -0.505303,-0.255248 -0.241823,-0.222906 -0.328358,-0.410468 -0.328358,-0.711712 0,-0.283423 0.08753,-0.491295 0.292643,-0.694961 0.06921,-0.06873 1.66578,-1.463513 3.547931,-3.09953 L 21.70482,9.5955675 11.225487,9.5764997 0.74615464,9.5574319 0.54577768,9.4464081 C 0.09066384,9.1942419 -0.09957747,8.6317693 0.11813633,8.1820324 0.21491944,7.9821051 0.49130335,7.7277235 0.68427323,7.6609641 0.7931187,7.6233086 3.0137022,7.6090551 11.152008,7.5937753 L 21.481591,7.574381 18.052819,4.5930117 C 14.371908,1.3924026 14.504631,1.5203675 14.434151,1.1040798 c -0.05791,-0.34206666 0.21806,-0.81255303 0.579154,-0.98735607 0.221563,-0.10725679 0.554209,-0.10943637 0.786009,-0.00515 0.164577,0.074043 8.244819,7.06220299 8.711594,7.53418239 0.283882,0.2870466 0.388317,0.5589366 0.329648,0.858219 -0.01901,0.096986 -0.02098,0.2364018 -0.0044,0.3098128 0.04828,0.2134091 -0.0028,0.4732513 -0.134587,0.684106 -0.0935,0.1496388 -1.090931,1.0358372 -4.426062,3.9324512 -2.367952,2.056604 -4.367613,3.771036 -4.443691,3.809848 -0.147747,0.07537 -0.430645,0.121878 -0.556026,0.0914 z"
       id="path3761"
       inkscape:connector-curvature="0" />
    <path
       style="fill:#3b80ff;fill-opacity:0"
       d="m 15.275816,17.331595 c -0.240327,-0.05842 -0.354133,-0.115905 -0.505303,-0.255248 -0.241823,-0.222906 -0.328358,-0.410468 -0.328358,-0.711712 0,-0.283423 0.08753,-0.491295 0.292643,-0.694961 0.06921,-0.06873 1.66578,-1.463513 3.547931,-3.09953 L 21.70482,9.5955675 11.225487,9.5764997 0.74615464,9.5574319 0.54577768,9.4464081 C 0.09066384,9.1942419 -0.09957747,8.6317693 0.11813633,8.1820324 0.21491944,7.9821051 0.49130335,7.7277235 0.68427323,7.6609641 0.7931187,7.6233086 3.0137022,7.6090551 11.152008,7.5937753 L 21.481591,7.574381 18.052819,4.5930117 C 14.371908,1.3924026 14.504631,1.5203675 14.434151,1.1040798 c -0.05791,-0.34206666 0.21806,-0.81255303 0.579154,-0.98735607 0.221563,-0.10725679 0.554209,-0.10943637 0.786009,-0.00515 0.164577,0.074043 8.244819,7.06220299 8.711594,7.53418239 0.283882,0.2870466 0.388317,0.5589366 0.329648,0.858219 -0.01901,0.096986 -0.02098,0.2364018 -0.0044,0.3098128 0.04828,0.2134091 -0.0028,0.4732513 -0.134587,0.684106 -0.0935,0.1496388 -1.090931,1.0358372 -4.426062,3.9324512 -2.367952,2.056604 -4.367613,3.771036 -4.443691,3.809848 -0.147747,0.07537 -0.430645,0.121878 -0.556026,0.0914 z"
       id="path3763"
       inkscape:connector-curvature="0" />
    <path
       style="fill:#3b80ff;fill-opacity:0"
       d="m 15.214799,17.3223 c -0.65377,-0.170854 -0.974772,-0.880727 -0.649357,-1.436006 0.07361,-0.125596 1.009574,-0.959566 3.603866,-3.211125 1.927441,-1.672806 3.505571,-3.0543367 3.506956,-3.0700676 0.0014,-0.015731 -4.670744,-0.028602 -10.38251,-0.028602 -11.60624714,0 -10.63145206,0.0243 -10.95404974,-0.2730608 C -0.18707068,8.8178748 -0.02500006,7.9860876 0.65655094,7.6773018 0.78962849,7.6170094 1.5166616,7.6111945 11.140745,7.5934488 L 21.481945,7.574381 18.256626,4.7714149 C 16.4827,3.2297836 14.938602,1.884305 14.825297,1.7814625 14.580169,1.558971 14.47204,1.3630519 14.443901,1.0904069 c -0.07457,-0.72250647 0.715674,-1.28462679 1.367234,-0.9725493 0.0965,0.0462187 1.984344,1.6608969 4.494765,3.8443773 3.865599,3.3621681 4.339248,3.7861078 4.429941,3.9650167 0.09585,0.1890854 0.10155,0.2308191 0.101548,0.7436441 -2e-6,0.5832282 -0.04585,0.774665 -0.233563,0.9753094 -0.249257,0.2664225 -8.632232,7.5138719 -8.774967,7.5863429 -0.191522,0.09724 -0.444125,0.134163 -0.61406,0.08975 l 0,0 z"
       id="path3765"
       inkscape:connector-curvature="0" />
    <path
       style="fill:#3b80ff;fill-opacity:0"
       d="m 15.214799,17.3223 c -0.65377,-0.170854 -0.974772,-0.880727 -0.649357,-1.436006 0.07361,-0.125596 1.009574,-0.959566 3.603866,-3.211125 1.927441,-1.672806 3.505571,-3.0543367 3.506956,-3.0700676 0.0014,-0.015731 -4.670744,-0.028602 -10.38251,-0.028602 -11.60624714,0 -10.63145206,0.0243 -10.95404974,-0.2730608 C -0.18707068,8.8178748 -0.02500006,7.9860876 0.65655094,7.6773018 0.78962849,7.6170094 1.5166616,7.6111945 11.140745,7.5934488 L 21.481945,7.574381 18.256626,4.7714149 C 16.4827,3.2297836 14.938602,1.884305 14.825297,1.7814625 14.580169,1.558971 14.47204,1.3630519 14.443901,1.0904069 c -0.07457,-0.72250647 0.715674,-1.28462679 1.367234,-0.9725493 0.0965,0.0462187 1.984344,1.6608969 4.494765,3.8443773 3.865599,3.3621681 4.339248,3.7861078 4.429941,3.9650167 0.09585,0.1890854 0.10155,0.2308191 0.101548,0.7436441 -2e-6,0.5832282 -0.04585,0.774665 -0.233563,0.9753094 -0.249257,0.2664225 -8.632232,7.5138719 -8.774967,7.5863429 -0.191522,0.09724 -0.444125,0.134163 -0.61406,0.08975 l 0,0 z"
       id="path3767"
       inkscape:connector-curvature="0" />
    <path
       style="fill:#3b80ff;fill-opacity:0"
       d="m 15.275816,17.331595 c -0.240327,-0.05842 -0.354133,-0.115905 -0.505303,-0.255248 -0.241823,-0.222906 -0.328358,-0.410468 -0.328358,-0.711712 0,-0.283423 0.08753,-0.491295 0.292643,-0.694961 0.06921,-0.06873 1.66578,-1.463513 3.547931,-3.09953 L 21.70482,9.5955675 11.225487,9.5764997 0.74615464,9.5574319 0.54577768,9.4464081 C 0.09066384,9.1942419 -0.09957747,8.6317693 0.11813633,8.1820324 0.21491944,7.9821051 0.49130335,7.7277235 0.68427323,7.6609641 0.7931187,7.6233086 3.0137022,7.6090551 11.152008,7.5937753 L 21.481591,7.574381 18.052819,4.5930117 C 14.371908,1.3924026 14.504631,1.5203675 14.434151,1.1040798 c -0.05791,-0.34206666 0.21806,-0.81255303 0.579154,-0.98735607 0.221563,-0.10725679 0.554209,-0.10943637 0.786009,-0.00515 0.164577,0.074043 8.244819,7.06220299 8.711594,7.53418239 0.283882,0.2870466 0.388317,0.5589366 0.329648,0.858219 -0.01901,0.096986 -0.02098,0.2364018 -0.0044,0.3098128 0.04828,0.2134091 -0.0028,0.4732513 -0.134587,0.684106 -0.0935,0.1496388 -1.090931,1.0358372 -4.426062,3.9324512 -2.367952,2.056604 -4.367613,3.771036 -4.443691,3.809848 -0.147747,0.07537 -0.430645,0.121878 -0.556026,0.0914 z"
       id="path3769"
       inkscape:connector-curvature="0" />
    <path
       style="fill:#3b80ff;fill-opacity:0"
       d="m 15.275816,17.331595 c -0.240327,-0.05842 -0.354133,-0.115905 -0.505303,-0.255248 -0.241823,-0.222906 -0.328358,-0.410468 -0.328358,-0.711712 0,-0.283423 0.08753,-0.491295 0.292643,-0.694961 0.06921,-0.06873 1.66578,-1.463513 3.547931,-3.09953 L 21.70482,9.5955675 11.225487,9.5764997 0.74615464,9.5574319 0.54577768,9.4464081 C 0.09066384,9.1942419 -0.09957747,8.6317693 0.11813633,8.1820324 0.21491944,7.9821051 0.49130335,7.7277235 0.68427323,7.6609641 0.7931187,7.6233086 3.0137022,7.6090551 11.152008,7.5937753 L 21.481591,7.574381 18.052819,4.5930117 C 14.371908,1.3924026 14.504631,1.5203675 14.434151,1.1040798 c -0.05791,-0.34206666 0.21806,-0.81255303 0.579154,-0.98735607 0.221563,-0.10725679 0.554209,-0.10943637 0.786009,-0.00515 0.164577,0.074043 8.244819,7.06220299 8.711594,7.53418239 0.283882,0.2870466 0.388317,0.5589366 0.329648,0.858219 -0.01901,0.096986 -0.02098,0.2364018 -0.0044,0.3098128 0.04828,0.2134091 -0.0028,0.4732513 -0.134587,0.684106 -0.0935,0.1496388 -1.090931,1.0358372 -4.426062,3.9324512 -2.367952,2.056604 -4.367613,3.771036 -4.443691,3.809848 -0.147747,0.07537 -0.430645,0.121878 -0.556026,0.0914 z"
       id="path3771"
       inkscape:connector-curvature="0" />
    <path
       style="fill:#3b80ff;fill-opacity:0"
       d="m 15.275816,17.331595 c -0.240327,-0.05842 -0.354133,-0.115905 -0.505303,-0.255248 -0.241823,-0.222906 -0.328358,-0.410468 -0.328358,-0.711712 0,-0.283423 0.08753,-0.491295 0.292643,-0.694961 0.06921,-0.06873 1.66578,-1.463513 3.547931,-3.09953 L 21.70482,9.5955675 11.225487,9.5764997 0.74615464,9.5574319 0.54577768,9.4464081 C 0.09066384,9.1942419 -0.09957747,8.6317693 0.11813633,8.1820324 0.21491944,7.9821051 0.49130335,7.7277235 0.68427323,7.6609641 0.7931187,7.6233086 3.0137022,7.6090551 11.152008,7.5937753 L 21.481591,7.574381 18.052819,4.5930117 C 14.371908,1.3924026 14.504631,1.5203675 14.434151,1.1040798 c -0.05791,-0.34206666 0.21806,-0.81255303 0.579154,-0.98735607 0.221563,-0.10725679 0.554209,-0.10943637 0.786009,-0.00515 0.164577,0.074043 8.244819,7.06220299 8.711594,7.53418239 0.283882,0.2870466 0.388317,0.5589366 0.329648,0.858219 -0.01901,0.096986 -0.02098,0.2364018 -0.0044,0.3098128 0.04828,0.2134091 -0.0028,0.4732513 -0.134587,0.684106 -0.0935,0.1496388 -1.090931,1.0358372 -4.426062,3.9324512 -2.367952,2.056604 -4.367613,3.771036 -4.443691,3.809848 -0.147747,0.07537 -0.430645,0.121878 -0.556026,0.0914 z"
       id="path3773"
       inkscape:connector-curvature="0" />
    <path
       style="fill:#3b80ff;fill-opacity:0"
       d="m 15.275816,17.331595 c -0.240327,-0.05842 -0.354133,-0.115905 -0.505303,-0.255248 -0.241823,-0.222906 -0.328358,-0.410468 -0.328358,-0.711712 0,-0.283423 0.08753,-0.491295 0.292643,-0.694961 0.06921,-0.06873 1.66578,-1.463513 3.547931,-3.09953 L 21.70482,9.5955675 11.225487,9.5764997 0.74615464,9.5574319 0.54577768,9.4464081 C 0.09066384,9.1942419 -0.09957747,8.6317693 0.11813633,8.1820324 0.21491944,7.9821051 0.49130335,7.7277235 0.68427323,7.6609641 0.7931187,7.6233086 3.0137022,7.6090551 11.152008,7.5937753 L 21.481591,7.574381 18.052819,4.5930117 C 14.371908,1.3924026 14.504631,1.5203675 14.434151,1.1040798 c -0.05791,-0.34206666 0.21806,-0.81255303 0.579154,-0.98735607 0.221563,-0.10725679 0.554209,-0.10943637 0.786009,-0.00515 0.164577,0.074043 8.244819,7.06220299 8.711594,7.53418239 0.283882,0.2870466 0.388317,0.5589366 0.329648,0.858219 -0.01901,0.096986 -0.02098,0.2364018 -0.0044,0.3098128 0.04828,0.2134091 -0.0028,0.4732513 -0.134587,0.684106 -0.0935,0.1496388 -1.090931,1.0358372 -4.426062,3.9324512 -2.367952,2.056604 -4.367613,3.771036 -4.443691,3.809848 -0.147747,0.07537 -0.430645,0.121878 -0.556026,0.0914 z"
       id="path3775"
       inkscape:connector-curvature="0" />
    <path
       style="fill:#3b80ff;fill-opacity:0"
       d="m 15.275816,17.331595 c -0.240327,-0.05842 -0.354133,-0.115905 -0.505303,-0.255248 -0.241823,-0.222906 -0.328358,-0.410468 -0.328358,-0.711712 0,-0.283423 0.08753,-0.491295 0.292643,-0.694961 0.06921,-0.06873 1.66578,-1.463513 3.547931,-3.09953 L 21.70482,9.5955675 11.225487,9.5764997 0.74615464,9.5574319 0.54577768,9.4464081 C 0.09066384,9.1942419 -0.09957747,8.6317693 0.11813633,8.1820324 0.21491944,7.9821051 0.49130335,7.7277235 0.68427323,7.6609641 0.7931187,7.6233086 3.0137022,7.6090551 11.152008,7.5937753 L 21.481591,7.574381 18.052819,4.5930117 C 14.371908,1.3924026 14.504631,1.5203675 14.434151,1.1040798 c -0.05791,-0.34206666 0.21806,-0.81255303 0.579154,-0.98735607 0.221563,-0.10725679 0.554209,-0.10943637 0.786009,-0.00515 0.164577,0.074043 8.244819,7.06220299 8.711594,7.53418239 0.283882,0.2870466 0.388317,0.5589366 0.329648,0.858219 -0.01901,0.096986 -0.02098,0.2364018 -0.0044,0.3098128 0.04828,0.2134091 -0.0028,0.4732513 -0.134587,0.684106 -0.0935,0.1496388 -1.090931,1.0358372 -4.426062,3.9324512 -2.367952,2.056604 -4.367613,3.771036 -4.443691,3.809848 -0.147747,0.07537 -0.430645,0.121878 -0.556026,0.0914 z"
       id="path3777"
       inkscape:connector-curvature="0" />
    <path
       style="fill:#3b80ff;fill-opacity:0"
       d="m 15.275816,17.331595 c -0.240327,-0.05842 -0.354133,-0.115905 -0.505303,-0.255248 -0.241823,-0.222906 -0.328358,-0.410468 -0.328358,-0.711712 0,-0.283423 0.08753,-0.491295 0.292643,-0.694961 0.06921,-0.06873 1.66578,-1.463513 3.547931,-3.09953 L 21.70482,9.5955675 11.225487,9.5764997 0.74615464,9.5574319 0.54577768,9.4464081 C 0.09066384,9.1942419 -0.09957747,8.6317693 0.11813633,8.1820324 0.21491944,7.9821051 0.49130335,7.7277235 0.68427323,7.6609641 0.7931187,7.6233086 3.0137022,7.6090551 11.152008,7.5937753 L 21.481591,7.574381 18.052819,4.5930117 C 14.371908,1.3924026 14.504631,1.5203675 14.434151,1.1040798 c -0.05791,-0.34206666 0.21806,-0.81255303 0.579154,-0.98735607 0.221563,-0.10725679 0.554209,-0.10943637 0.786009,-0.00515 0.164577,0.074043 8.244819,7.06220299 8.711594,7.53418239 0.283882,0.2870466 0.388317,0.5589366 0.329648,0.858219 -0.01901,0.096986 -0.02098,0.2364018 -0.0044,0.3098128 0.04828,0.2134091 -0.0028,0.4732513 -0.134587,0.684106 -0.0935,0.1496388 -1.090931,1.0358372 -4.426062,3.9324512 -2.367952,2.056604 -4.367613,3.771036 -4.443691,3.809848 -0.147747,0.07537 -0.430645,0.121878 -0.556026,0.0914 z"
       id="path3779"
       inkscape:connector-curvature="0" />
    <path
       style="fill:#3b80ff;fill-opacity:0"
       d="m 15.275816,17.331595 c -0.240327,-0.05842 -0.354133,-0.115905 -0.505303,-0.255248 -0.241823,-0.222906 -0.328358,-0.410468 -0.328358,-0.711712 0,-0.283423 0.08753,-0.491295 0.292643,-0.694961 0.06921,-0.06873 1.66578,-1.463513 3.547931,-3.09953 L 21.70482,9.5955675 11.225487,9.5764997 0.74615464,9.5574319 0.54577768,9.4464081 C 0.09066384,9.1942419 -0.09957747,8.6317693 0.11813633,8.1820324 0.21491944,7.9821051 0.49130335,7.7277235 0.68427323,7.6609641 0.7931187,7.6233086 3.0137022,7.6090551 11.152008,7.5937753 L 21.481591,7.574381 18.052819,4.5930117 C 14.371908,1.3924026 14.504631,1.5203675 14.434151,1.1040798 c -0.05791,-0.34206666 0.21806,-0.81255303 0.579154,-0.98735607 0.221563,-0.10725679 0.554209,-0.10943637 0.786009,-0.00515 0.164577,0.074043 8.244819,7.06220299 8.711594,7.53418239 0.283882,0.2870466 0.388317,0.5589366 0.329648,0.858219 -0.01901,0.096986 -0.02098,0.2364018 -0.0044,0.3098128 0.04828,0.2134091 -0.0028,0.4732513 -0.134587,0.684106 -0.0935,0.1496388 -1.090931,1.0358372 -4.426062,3.9324512 -2.367952,2.056604 -4.367613,3.771036 -4.443691,3.809848 -0.147747,0.07537 -0.430645,0.121878 -0.556026,0.0914 z"
       id="path3781"
       inkscape:connector-curvature="0" />
  </g>
</svg>
