<?xml version="1.0" encoding="utf-8"?>
<!-- Generator: Adobe Illustrator 20.1.0, SVG Export Plug-In . SVG Version: 6.00 Build 0)  -->
<svg version="1.1" id="Calque_1" xmlns="http://www.w3.org/2000/svg" xmlns:xlink="http://www.w3.org/1999/xlink" x="0px" y="0px"
	 viewBox="0 0 26 25" style="enable-background:new 0 0 26 25;" xml:space="preserve">
<path d="M5.8,8.3v16.6H0.3V8.3H5.8z M6.2,3.2c0,0.8-0.3,1.5-0.8,2C4.8,5.8,4,6.1,3.1,6.1h0c-0.9,0-1.7-0.3-2.2-0.8S0,4,0,3.2
	c0-0.8,0.3-1.5,0.9-2.1c0.6-0.5,1.3-0.8,2.3-0.8s1.7,0.3,2.2,0.8S6.2,2.4,6.2,3.2z M14.4,10.7c0.2-0.3,0.4-0.6,0.7-0.9
	c0.2-0.3,0.5-0.6,0.9-0.9s0.9-0.6,1.5-0.7C18,8,18.7,7.9,19.4,7.9c1.9,0,3.4,0.6,4.6,1.9c1.2,1.3,1.7,3.1,1.7,5.6v9.5h-5.5V16
	c0-1.2-0.2-2.1-0.7-2.8s-1.2-1-2.1-1c-0.7,0-1.3,0.2-1.8,0.6s-0.8,0.9-1.1,1.4c-0.1,0.3-0.2,0.8-0.2,1.4v9.3H8.9c0-4.5,0-8.1,0-10.8
	c0-2.8,0-4.4,0-5l0-0.8h5.5V10.7L14.4,10.7z"/>
</svg>
