<?xml version="1.0" encoding="UTF-8" standalone="no"?>
<svg
   xmlns:dc="http://purl.org/dc/elements/1.1/"
   xmlns:cc="http://creativecommons.org/ns#"
   xmlns:rdf="http://www.w3.org/1999/02/22-rdf-syntax-ns#"
   xmlns:svg="http://www.w3.org/2000/svg"
   xmlns="http://www.w3.org/2000/svg"
   xmlns:sodipodi="http://sodipodi.sourceforge.net/DTD/sodipodi-0.dtd"
   xmlns:inkscape="http://www.inkscape.org/namespaces/inkscape"
   width="28px"
   height="19px"
   viewBox="0 0 28 19"
   version="1.1"
   id="svg2"
   inkscape:version="0.91 r13725"
   sodipodi:docname="burger.svg">
  <metadata
     id="metadata16">
    <rdf:RDF>
      <cc:Work
         rdf:about="">
        <dc:format>image/svg+xml</dc:format>
        <dc:type
           rdf:resource="http://purl.org/dc/dcmitype/StillImage" />
      </cc:Work>
    </rdf:RDF>
  </metadata>
  <sodipodi:namedview
     pagecolor="#ffffff"
     bordercolor="#666666"
     borderopacity="1"
     objecttolerance="10"
     gridtolerance="10"
     guidetolerance="10"
     inkscape:pageopacity="0"
     inkscape:pageshadow="2"
     inkscape:window-width="855"
     inkscape:window-height="480"
     id="namedview14"
     showgrid="false"
     inkscape:zoom="12.421053"
     inkscape:cx="14"
     inkscape:cy="9.5"
     inkscape:window-x="0"
     inkscape:window-y="24"
     inkscape:window-maximized="0"
     inkscape:current-layer="svg2" />
  <!-- Generator: Sketch 42 (36781) - http://www.bohemiancoding.com/sketch -->
  <title
     id="title4">burger</title>
  <desc
     id="desc6">Created with Sketch.</desc>
  <defs
     id="defs8" />
  <g
     id="Lot1"
     stroke="none"
     stroke-width="1"
     fill="none"
     fill-rule="evenodd"
     style="fill:#3b80ff;fill-opacity:1">
    <g
       id="UI"
       transform="translate(-320.000000, -322.000000)"
       fill="#000000"
       style="fill:#3b80ff;fill-opacity:1">
      <g
         id="TRANSVERSE"
         transform="translate(189.000000, 201.000000)"
         style="fill:#3b80ff;fill-opacity:1">
        <path
           d="M131.172761,121.998957 C131.172761,121.447248 131.61887,121 132.165727,121 L157.179796,121 C157.728196,121 158.172761,121.44266 158.172761,121.998957 L158.172761,123.001043 C158.172761,123.552752 157.726653,124 157.179796,124 L132.165727,124 C131.617327,124 131.172761,123.55734 131.172761,123.001043 L131.172761,121.998957 Z M131.172761,129.998957 C131.172761,129.447248 131.61887,129 132.165727,129 L157.179796,129 C157.728196,129 158.172761,129.44266 158.172761,129.998957 L158.172761,131.001043 C158.172761,131.552752 157.726653,132 157.179796,132 L132.165727,132 C131.617327,132 131.172761,131.55734 131.172761,131.001043 L131.172761,129.998957 Z M131.172761,137.998957 C131.172761,137.447248 131.61887,137 132.165727,137 L157.179796,137 C157.728196,137 158.172761,137.44266 158.172761,137.998957 L158.172761,139.001043 C158.172761,139.552752 157.726653,140 157.179796,140 L132.165727,140 C131.617327,140 131.172761,139.55734 131.172761,139.001043 L131.172761,137.998957 Z"
           id="burger"
           style="fill:#3b80ff;fill-opacity:1" />
      </g>
    </g>
  </g>
</svg>
