<svg xmlns="http://www.w3.org/2000/svg" viewBox="0 0 28 19" width="28" height="19">
	<style>
		tspan { white-space:pre }
		.shp0 { fill: #ffffff } 
	</style>
	<g id="Lot1">
		<g id="UI">
			<g id="TRANSVERSE">
				<path id="burger" fill-rule="evenodd" class="shp0" d="M0.17 1C0.17 0.45 0.62 0 1.17 0L26.18 0C26.73 0 27.17 0.44 27.17 1L27.17 2C27.17 2.55 26.73 3 26.18 3L1.17 3C0.62 3 0.17 2.56 0.17 2L0.17 1ZM0.17 9C0.17 8.45 0.62 8 1.17 8L26.18 8C26.73 8 27.17 8.44 27.17 9L27.17 10C27.17 10.55 26.73 11 26.18 11L1.17 11C0.62 11 0.17 10.56 0.17 10L0.17 9ZM0.17 17C0.17 16.45 0.62 16 1.17 16L26.18 16C26.73 16 27.17 16.44 27.17 17L27.17 18C27.17 18.55 26.73 19 26.18 19L1.17 19C0.62 19 0.17 18.56 0.17 18L0.17 17Z" />
			</g>
		</g>
	</g>
</svg>