<?xml version="1.0" encoding="UTF-8"?>
<svg width="32px" height="48px" viewBox="0 0 32 48" version="1.1" xmlns="http://www.w3.org/2000/svg" xmlns:xlink="http://www.w3.org/1999/xlink">
    <defs></defs>
    <g id="Lot1" stroke="none" stroke-width="1" fill="none" fill-rule="evenodd">
        <g id="UI-Page-404" transform="translate(-183.000000, -249.000000)" fill="#FFC64C">
            <path d="M211.823318,253.760871 L208.167842,269.400321 L204.991655,269.400321 L208.869188,253.11358 C209.023442,252.402328 209.650204,251.915793 210.346889,251.915793 C210.452833,251.915793 210.560471,251.92688 210.668534,251.950333 C211.483028,252.130704 212.00088,252.940457 211.823318,253.760871 L211.823318,253.760871 Z M210.910509,281.63659 C210.910509,288.158962 205.711223,293.464785 199.320285,293.464785 C193.024695,293.464785 187.8894,288.31716 187.735993,281.92996 C187.955932,281.964499 188.180109,281.987526 188.409794,281.987526 C189.55568,281.987526 190.598164,281.5415 191.382994,280.817456 C192.167824,281.5415 193.210308,281.987526 194.356617,281.987526 C196.788234,281.987526 198.766412,279.997042 198.766412,277.5503 L198.766412,276.249749 C199.366052,276.707287 200.028411,277.062487 200.707297,277.331978 C200.611948,277.424083 200.51787,277.519599 200.425488,277.617673 C197.177682,281.088653 197.577725,287.162441 197.595947,287.419566 L200.485664,287.207214 C200.384805,285.812852 200.55601,281.731679 202.535036,279.616684 C203.33724,278.758747 204.361502,278.293107 205.652742,278.201002 C206.059565,278.189489 206.315101,278.184372 206.359598,278.181814 C207.133833,278.125954 207.727117,277.465445 207.704233,276.684687 C207.681349,275.90393 207.050773,275.279665 206.274419,275.269858 C206.018459,275.265594 205.76589,275.272417 205.519253,275.288194 C204.114442,275.273269 201.598495,274.975635 200.224195,273.683185 C199.850426,273.331397 199.577515,272.922043 199.402497,272.447022 L206.784219,272.447022 C206.808798,272.447022 206.8427,272.445743 206.866855,272.444464 C206.882959,272.443611 208.687389,272.366857 209.84175,273.471686 C210.551148,274.150105 210.910509,275.196942 210.910509,276.581922 L210.910509,281.63659 Z M186.897768,269.975122 C186.897768,269.136373 187.573688,268.455395 188.409794,268.455395 C189.243782,268.455395 189.921397,269.136373 189.921397,269.975122 L189.921397,277.5503 C189.921397,278.390755 189.243782,279.071732 188.409794,279.071732 C187.573688,279.071732 186.897768,278.390755 186.897768,277.5503 L186.897768,269.975122 Z M192.844591,268.005533 C192.844591,267.166357 193.521359,266.486233 194.356617,266.486233 C195.191029,266.486233 195.86822,267.166357 195.86822,268.005533 L195.86822,277.5503 C195.86822,278.390755 195.191029,279.072158 194.356617,279.072158 C193.521359,279.072158 192.844591,278.390755 192.844591,277.5503 L192.844591,268.005533 Z M197.017072,251.950333 C197.12471,251.92688 197.231502,251.915793 197.338293,251.915793 C198.034977,251.915793 198.661316,252.402328 198.815993,253.11358 L202.413412,266.661914 L201.712066,269.395204 L199.51734,269.400321 L195.861016,253.760871 C195.684726,252.940457 196.200883,252.130704 197.017072,251.950333 L197.017072,251.950333 Z M211.291058,249.102765 C210.973227,249.033686 210.659211,249 210.346889,249 C208.302179,249 206.499443,250.450648 206.046428,252.455202 L203.963155,261.204289 L201.627735,252.40915 C201.158193,250.428474 199.368171,249 197.338293,249 C197.025547,249 196.711531,249.034113 196.405142,249.100633 C194.026921,249.626397 192.51659,251.992547 193.029357,254.376607 C193.033171,254.39409 193.036985,254.411146 193.040375,254.428203 L195.197385,263.653589 C194.924899,263.600288 194.64436,263.570439 194.356617,263.570439 C192.631433,263.570439 191.138476,264.574209 190.414246,266.029974 C189.812063,265.719121 189.131905,265.540028 188.409794,265.540028 C185.978178,265.540028 184,267.529659 184,269.975122 L184,277.5503 C184,278.513987 184.310203,279.404332 184.830597,280.132641 L184.830597,281.63659 C184.830597,289.766102 191.33087,296.380578 199.320285,296.380578 C207.308852,296.380578 213.808277,289.766102 213.808277,281.63659 L213.808277,276.581922 C213.808277,274.350091 213.135747,272.5839 211.810181,271.331959 C211.493198,271.033046 211.156721,270.787433 210.814736,270.578492 C210.886354,270.415603 210.946529,270.245892 210.988059,270.067653 L214.644383,254.428203 L214.655825,254.378313 C215.169439,251.993827 213.660379,249.62725 211.291058,249.102765 L211.291058,249.102765 Z" id="peace"></path>
        </g>
    </g>
</svg>