<?xml version="1.0" encoding="UTF-8" standalone="no"?>
<svg
   xmlns:dc="http://purl.org/dc/elements/1.1/"
   xmlns:cc="http://creativecommons.org/ns#"
   xmlns:rdf="http://www.w3.org/1999/02/22-rdf-syntax-ns#"
   xmlns:svg="http://www.w3.org/2000/svg"
   xmlns="http://www.w3.org/2000/svg"
   xmlns:sodipodi="http://sodipodi.sourceforge.net/DTD/sodipodi-0.dtd"
   xmlns:inkscape="http://www.inkscape.org/namespaces/inkscape"
   width="22px"
   height="22px"
   viewBox="0 0 22 22"
   version="1.1"
   id="svg2"
   inkscape:version="0.48.4 r9939"
   sodipodi:docname="popin-close.svg">
  <metadata
     id="metadata12">
    <rdf:RDF>
      <cc:Work
         rdf:about="">
        <dc:format>image/svg+xml</dc:format>
        <dc:type
           rdf:resource="http://purl.org/dc/dcmitype/StillImage" />
      </cc:Work>
    </rdf:RDF>
  </metadata>
  <sodipodi:namedview
     pagecolor="#ffffff"
     bordercolor="#666666"
     borderopacity="1"
     objecttolerance="10"
     gridtolerance="10"
     guidetolerance="10"
     inkscape:pageopacity="0"
     inkscape:pageshadow="2"
     inkscape:window-width="640"
     inkscape:window-height="480"
     id="namedview10"
     showgrid="false"
     inkscape:zoom="10.727273"
     inkscape:cx="11"
     inkscape:cy="11"
     inkscape:window-x="473"
     inkscape:window-y="90"
     inkscape:window-maximized="0"
     inkscape:current-layer="svg2" />
  <defs
     id="defs4" />
  <g
     id="Lot1"
     stroke="none"
     stroke-width="1"
     fill="none"
     fill-rule="evenodd"
     style="fill:#3b80ff;fill-opacity:1">
    <g
       id="UI"
       transform="translate(-2187.000000, -336.000000)"
       fill="#000000"
       style="fill:#3b80ff;fill-opacity:1">
      <g
         id="SCENARIO"
         transform="translate(2178.000000, 201.000000)"
         style="fill:#3b80ff;fill-opacity:1">
        <path
           d="M18,144.196912 L7.99124431,144.196912 C6.89989752,144.196912 6,145.092343 6,146.196912 C6,147.309182 6.89151044,148.196912 7.99124431,148.196912 L18,148.196912 L18,158.205668 C18,159.297015 18.8954305,160.196912 20,160.196912 C21.1122704,160.196912 22,159.305402 22,158.205668 L22,148.196912 L32.0087557,148.196912 C33.1001025,148.196912 34,147.301482 34,146.196912 C34,145.084642 33.1084896,144.196912 32.0087557,144.196912 L22,144.196912 L22,134.188156 C22,133.09681 21.1045695,132.196912 20,132.196912 C18.8877296,132.196912 18,133.088423 18,134.188156 L18,144.196912 Z"
           id="X"
           transform="translate(20.000000, 146.196912) rotate(-315.000000) translate(-20.000000, -146.196912) "
           style="fill:#3b80ff;fill-opacity:1" />
      </g>
    </g>
  </g>
</svg>
