<?xml version="1.0" encoding="UTF-8" standalone="no"?>
<svg
   xmlns:dc="http://purl.org/dc/elements/1.1/"
   xmlns:cc="http://creativecommons.org/ns#"
   xmlns:rdf="http://www.w3.org/1999/02/22-rdf-syntax-ns#"
   xmlns:svg="http://www.w3.org/2000/svg"
   xmlns="http://www.w3.org/2000/svg"
   xmlns:sodipodi="http://sodipodi.sourceforge.net/DTD/sodipodi-0.dtd"
   xmlns:inkscape="http://www.inkscape.org/namespaces/inkscape"
   width="29px"
   height="29px"
   viewBox="0 0 29 29"
   version="1.1"
   id="svg2"
   inkscape:version="0.91 r13725"
   sodipodi:docname="search.svg">
  <metadata
     id="metadata16">
    <rdf:RDF>
      <cc:Work
         rdf:about="">
        <dc:format>image/svg+xml</dc:format>
        <dc:type
           rdf:resource="http://purl.org/dc/dcmitype/StillImage" />
      </cc:Work>
    </rdf:RDF>
  </metadata>
  <sodipodi:namedview
     pagecolor="#ffffff"
     bordercolor="#666666"
     borderopacity="1"
     objecttolerance="10"
     gridtolerance="10"
     guidetolerance="10"
     inkscape:pageopacity="0"
     inkscape:pageshadow="2"
     inkscape:window-width="1366"
     inkscape:window-height="692"
     id="namedview14"
     showgrid="false"
     inkscape:zoom="8.137931"
     inkscape:cx="14.5"
     inkscape:cy="14.5"
     inkscape:window-x="0"
     inkscape:window-y="24"
     inkscape:window-maximized="1"
     inkscape:current-layer="Lot1" />
  <!-- Generator: Sketch 42 (36781) - http://www.bohemiancoding.com/sketch -->
  <title
     id="title4">search</title>
  <desc
     id="desc6">Created with Sketch.</desc>
  <defs
     id="defs8" />
  <g
     id="Lot1"
     stroke="none"
     stroke-width="1"
     fill="none"
     fill-rule="evenodd"
     stroke-linejoin="round">
    <g
       id="UI"
       transform="translate(-201.000000, -318.000000)"
       stroke="#000000"
       stroke-width="2"
       style="stroke:#000000;stroke-opacity:1">
      <g
         id="TRANSVERSE"
         transform="translate(189.000000, 201.000000)"
         style="stroke:#000000;stroke-opacity:1">
        <path
           d="M33.9511916,128.475596 C33.9511916,134.260744 29.2607436,138.951192 23.4755958,138.951192 C17.690448,138.951192 13,134.260744 13,128.475596 C13,122.690448 17.690448,118 23.4755958,118 C29.2607436,118 33.9511916,122.690448 33.9511916,128.475596 Z M31.0554442,137.469658 L32.4696578,136.055444 L39.7051537,143.29094 L38.2909401,144.705154 L31.0554442,137.469658 Z"
           id="search"
           style="stroke:#000000;stroke-opacity:1" />
      </g>
    </g>
    <path
       style="opacity:1;fill:#3b80ff;fill-opacity:1;fill-rule:evenodd;stroke:#3b80ff;stroke-width:0.12288135;stroke-miterlimit:4;stroke-dasharray:none;stroke-opacity:1"
       d="m 22.049032,24.738258 -3.949127,-3.942249 -0.615076,0.37846 c -1.904767,1.172016 -3.686541,1.659778 -6.056863,1.658076 C 9.4923875,22.831154 8.3308027,22.578192 6.6548217,21.793081 5.2929821,21.15513 4.3137334,20.439091 3.1808214,19.252846 1.131921,17.107491 0.10658815,14.514094 0.10658815,11.477119 0.10658815,8.4401432 1.131921,5.846746 3.1808214,3.701392 4.30718,2.5220091 5.2607067,1.8226871 6.6443945,1.1611875 8.3347471,0.35308058 9.3529096,0.13340643 11.427966,0.12910563 c 1.473549,-0.003054 1.962456,0.0446608 2.82621,0.27582434 4.412749,1.18097003 7.68627,4.71983353 8.47261,9.15937563 0.285519,1.6119914 0.131925,3.7426654 -0.385918,5.3534914 -0.269831,0.839347 -0.957945,2.299109 -1.336581,2.835412 l -0.223342,0.316344 3.925206,3.925206 c 3.438656,3.438656 3.925205,3.971741 3.925205,4.30063 0,0.308809 -0.182669,0.553723 -1.029477,1.380272 -0.694052,0.677447 -1.123027,1.004847 -1.3166,1.004847 -0.212877,0 -1.308286,-1.019386 -4.236247,-3.94225 z m -8.163439,-4.061742 c 3.219274,-0.799479 5.836309,-3.381243 6.778645,-6.687283 0.395058,-1.386 0.395058,-3.638228 0,-5.0242287 C 19.465736,4.7602426 15.84185,2.0044077 11.489407,1.9878768 9.8302413,1.9815752 8.8174526,2.212429 7.3114407,2.9401973 4.8211103,4.1436296 2.9826123,6.3533715 2.2534878,9.0194915 c -0.3054307,1.1168395 -0.3044473,3.8045805 0.0018,4.9152545 1.3974611,5.068229 6.4876884,8.018894 11.6303062,6.74177 z"
       id="path4154"
       inkscape:connector-curvature="0" />
  </g>
</svg>
