<?xml version="1.0" encoding="UTF-8" standalone="no"?>
<svg width="101px" height="100px" viewBox="0 0 101 100" version="1.1" xmlns="http://www.w3.org/2000/svg" xmlns:xlink="http://www.w3.org/1999/xlink">
    <defs></defs>
    <g id="Lot1" stroke="none" stroke-width="1" fill="none" fill-rule="evenodd" opacity="0.2">
        <g id="UI-Offre-digitale" transform="translate(-1044.000000, -1311.000000)" fill="#508EFF">
            <g id="OFFRE-DIGITALE" transform="translate(673.000000, 121.000000)">
                <path d="M443.891338,1213.493 C442.753643,1213.493 441.681702,1213.93279 440.869718,1214.73142 C440.04703,1215.54074 439.589812,1216.61577 439.580637,1217.76562 C439.571462,1218.91547 440.01186,1220.00119 440.820785,1220.8212 C442.489099,1222.51162 445.224766,1222.53758 446.917546,1220.87465 C448.613384,1219.21019 448.637851,1216.47834 446.972596,1214.78181 C446.162141,1213.96027 445.081025,1213.50216 443.928038,1213.493 L443.891338,1213.493 L443.891338,1213.493 Z M443.900513,1229.80623 C440.787144,1229.80623 437.676832,1228.6121 435.321926,1226.22688 C433.067944,1223.93787 431.841558,1220.9113 431.866025,1217.70454 C431.89202,1214.49626 433.16734,1211.49107 435.458021,1209.24176 C437.744115,1206.99092 440.777969,1205.71738 443.992263,1205.79068 C447.203499,1205.81664 450.214415,1207.09018 452.469926,1209.37766 C452.469926,1209.37766 452.471455,1209.37919 452.472984,1209.38072 C457.120101,1214.10534 457.055876,1221.7252 452.327714,1226.36737 C449.992687,1228.66096 446.9466,1229.80623 443.900513,1229.80623 L443.900513,1229.80623 Z M383.677607,1234.31249 L395.751854,1237.70402 C397.421697,1233.28022 399.554875,1228.67623 402.27678,1224.19899 L393.806763,1224.36238 L383.677607,1234.31249 Z M400.264405,1248.86811 C403.007718,1249.83472 405.51707,1251.41519 407.566144,1253.49653 C407.569202,1253.50111 407.57379,1253.50569 407.578377,1253.51027 L407.659423,1253.59273 C409.645801,1255.63589 411.12297,1258.02874 412.034349,1260.6476 C421.973889,1258.27154 434.552759,1253.5347 444.14365,1244.11447 C459.149296,1229.37103 462.846805,1207.15126 463.74748,1197.98146 C454.613808,1198.84881 432.508272,1202.43122 417.551558,1217.13038 C415.811374,1218.84065 414.222577,1220.64712 412.769875,1222.51773 C412.749996,1222.54522 412.730117,1222.57118 412.708709,1222.59714 C406.165433,1231.05687 402.409816,1240.82373 400.264405,1248.86811 L400.264405,1248.86811 Z M422.943376,1265.48369 L426.078154,1277.34564 L436.20731,1267.39247 L436.493263,1259.3878 C431.991416,1261.95779 427.373353,1263.9475 422.943376,1265.48369 L422.943376,1265.48369 Z M424.044371,1288.5983 C423.704898,1288.5983 423.362366,1288.55402 423.024422,1288.46087 C421.69864,1288.09743 420.666457,1287.056 420.31628,1285.72902 L415.552946,1267.7101 C413.572684,1268.22165 411.673467,1268.64769 409.891996,1269.00043 C408.835347,1269.21116 407.738939,1268.96989 406.867318,1268.33312 C405.997226,1267.69941 405.432966,1266.72974 405.310633,1265.66083 C405.018563,1263.11985 403.917568,1260.80335 402.128451,1258.96481 L404.813656,1256.19631 L402.062697,1258.89762 C400.230764,1257.03465 397.777991,1255.8451 395.155482,1255.54427 C394.068249,1255.42058 393.084999,1254.84031 392.451927,1253.95006 C391.817326,1253.0598 391.592539,1251.94202 391.831088,1250.87615 C392.242432,1249.03761 392.734821,1247.07538 393.325077,1245.02458 L375.186182,1239.93195 C373.863459,1239.55935 372.837392,1238.51181 372.49486,1237.18177 C372.152329,1235.85173 372.545323,1234.43923 373.525514,1233.4772 L389.489944,1217.79464 C390.193358,1217.10442 391.13532,1216.70892 392.121628,1216.6906 L407.801634,1216.38672 C409.145766,1214.75127 410.589293,1213.16469 412.139861,1211.64072 C433.564921,1190.58607 466.463268,1190.01802 467.853275,1190.00427 C468.897691,1189.95083 469.893174,1190.40283 470.625642,1191.13885 C471.359639,1191.87488 471.764866,1192.87508 471.749574,1193.91346 C471.728166,1195.3168 470.995699,1228.53727 449.553818,1249.60566 C447.900796,1251.22889 446.177433,1252.72691 444.400549,1254.11039 L443.860755,1269.20047 C443.827114,1270.18388 443.414241,1271.11842 442.712356,1271.80864 L426.750985,1287.4912 C426.018517,1288.21043 425.044442,1288.5983 424.044371,1288.5983 L424.044371,1288.5983 Z M397.352885,1276.96541 L397.368176,1276.96541 L397.352885,1276.96541 Z M390.678101,1264.37202 C389.239162,1264.37202 387.798693,1264.90647 386.685465,1265.98456 C383.205097,1269.3547 380.934294,1275.9026 379.700262,1280.85933 C384.180701,1279.99197 390.616935,1278.12442 394.669209,1274.19996 C395.767146,1273.13562 396.384926,1271.70785 396.409393,1270.17777 C396.43233,1268.64922 395.858895,1267.20312 394.7946,1266.10824 C393.672197,1264.95229 392.175149,1264.37202 390.678101,1264.37202 L390.678101,1264.37202 Z M374.857413,1289.26408 C373.785471,1289.26408 372.757876,1288.81819 372.025408,1288.02566 C371.242478,1287.17969 370.878538,1286.02679 371.036042,1284.8861 C371.13085,1284.20352 373.432235,1268.08422 381.316584,1260.45214 C386.638061,1255.29995 395.167715,1255.42822 400.331688,1260.74227 C402.830335,1263.31531 404.177525,1266.70837 404.122476,1270.29688 C404.067426,1273.88234 402.616253,1277.23416 400.039619,1279.72933 L400.038089,1279.72933 C391.266828,1288.22418 375.739738,1289.21827 375.082199,1289.25797 C375.00727,1289.26256 374.932341,1289.26408 374.857413,1289.26408 L374.857413,1289.26408 Z" id="fusee-bleue"></path>
            </g>
        </g>
    </g>
</svg>