<?xml version="1.0" encoding="UTF-8" standalone="no"?>
<svg
   xmlns:dc="http://purl.org/dc/elements/1.1/"
   xmlns:cc="http://creativecommons.org/ns#"
   xmlns:rdf="http://www.w3.org/1999/02/22-rdf-syntax-ns#"
   xmlns:svg="http://www.w3.org/2000/svg"
   xmlns="http://www.w3.org/2000/svg"
   xmlns:sodipodi="http://sodipodi.sourceforge.net/DTD/sodipodi-0.dtd"
   xmlns:inkscape="http://www.inkscape.org/namespaces/inkscape"
   width="26px"
   height="29px"
   viewBox="0 0 26 29"
   version="1.1"
   id="svg2"
   inkscape:version="0.91 r13725"
   sodipodi:docname="Share.svg">
  <metadata
     id="metadata12">
    <rdf:RDF>
      <cc:Work
         rdf:about="">
        <dc:format>image/svg+xml</dc:format>
        <dc:type
           rdf:resource="http://purl.org/dc/dcmitype/StillImage" />
      </cc:Work>
    </rdf:RDF>
  </metadata>
  <sodipodi:namedview
     pagecolor="#ffffff"
     bordercolor="#666666"
     borderopacity="1"
     objecttolerance="10"
     gridtolerance="10"
     guidetolerance="10"
     inkscape:pageopacity="0"
     inkscape:pageshadow="2"
     inkscape:window-width="1366"
     inkscape:window-height="692"
     id="namedview10"
     showgrid="false"
     inkscape:zoom="8.137931"
     inkscape:cx="13"
     inkscape:cy="14.5"
     inkscape:window-x="0"
     inkscape:window-y="24"
     inkscape:window-maximized="1"
     inkscape:current-layer="TRANSVERSE" />
  <defs
     id="defs4" />
  <g
     id="Lot1"
     stroke="none"
     stroke-width="1"
     fill="none"
     fill-rule="evenodd">
    <g
       id="UI"
       transform="translate(-513.000000, -320.000000)"
       fill="#000000">
      <g
         id="TRANSVERSE"
         transform="translate(189.000000, 201.000000)">
        <path
           d="M345.331382,135.828732 C344.01492,135.828732 342.943993,134.750848 342.943993,133.425656 C342.943993,132.100791 344.01492,131.022907 345.331382,131.022907 C346.648171,131.022907 347.719423,132.100791 347.719423,133.425656 C347.719423,134.750848 346.648171,135.828732 345.331382,135.828732 M328.610222,145.615724 C327.294084,145.615724 326.223482,144.538167 326.223482,143.213629 C326.223482,141.889418 327.294084,140.812188 328.610222,140.812188 C329.926685,140.812188 330.997937,141.889418 330.997937,143.213629 C330.997937,144.538167 329.926685,145.615724 328.610222,145.615724 M328.610222,126.039778 C327.294084,126.039778 326.223482,124.962221 326.223482,123.637683 C326.223482,122.313799 327.294084,121.236569 328.610222,121.236569 C329.926685,121.236569 330.997937,122.313799 330.997937,123.637683 C330.997937,124.962221 329.926685,126.039778 328.610222,126.039778 M345.331382,128.786338 C344.214275,128.786338 343.189203,129.188377 342.39048,129.855717 L333.032796,124.941284 C333.153775,124.527141 333.22142,124.090427 333.22142,123.637683 C333.22142,121.080529 331.152739,119 328.610222,119 C326.068031,119 324,121.080529 324,123.637683 C324,126.19549 326.068031,128.276346 328.610222,128.276346 C329.902294,128.276346 331.070134,127.737568 331.908209,126.873298 L341.061659,131.681086 C340.843115,132.220192 340.72051,132.808367 340.72051,133.425656 C340.72051,134.067152 340.850595,134.678553 341.085724,135.234669 L332.350499,140.511886 C331.51275,139.341752 330.150106,138.57562 328.610222,138.57562 C326.068031,138.57562 324,140.656149 324,143.213629 C324,145.771437 326.068031,147.852293 328.610222,147.852293 C331.152739,147.852293 333.22142,145.771437 333.22142,143.213629 C333.22142,143.012119 333.204183,142.815188 333.179467,142.620221 L342.433408,137.029616 C343.225952,137.67602 344.233788,138.065301 345.331382,138.065301 C347.874224,138.065301 349.942905,135.984118 349.942905,133.425656 C349.942905,130.867521 347.874224,128.786338 345.331382,128.786338"
           id="Share"
           style="fill:#ffffff;fill-opacity:1" />
      </g>
    </g>
  </g>
</svg>
