<?xml version="1.0" encoding="utf-8"?>
<!-- Generator: Adobe Illustrator 20.1.0, SVG Export Plug-In . SVG Version: 6.00 Build 0)  -->
<svg version="1.1" id="Calque_1" xmlns="http://www.w3.org/2000/svg" xmlns:xlink="http://www.w3.org/1999/xlink" x="0px" y="0px"
	 viewBox="0 0 30 31" style="enable-background:new 0 0 30 31;" xml:space="preserve">
<path d="M14.6,13.3c0,0.9-0.4,1.7-1.1,2.4s-1.6,1-2.6,1c-1,0-1.8-0.3-2.6-1c-0.7-0.7-1.1-1.5-1.1-2.4c0-0.9,0.4-1.7,1.1-2.4
	c0.7-0.7,1.6-1,2.6-1c1,0,1.8,0.3,2.6,1S14.6,12.3,14.6,13.3z M23,13.3c0,0.9-0.4,1.7-1.1,2.4s-1.6,1-2.6,1c-1,0-1.8-0.3-2.6-1
	s-1.1-1.5-1.1-2.4c0-0.9,0.4-1.7,1.1-2.4s1.6-1,2.6-1c1,0,1.9,0.3,2.6,1S23,12.3,23,13.3z M26.8,16.3V5.1c0-1-0.2-1.7-0.5-2.1
	c-0.4-0.4-1-0.6-1.9-0.6H5.8C4.8,2.4,4.2,2.6,3.9,3C3.6,3.4,3.4,4.1,3.4,5.1v11.3c0.5,0.3,1,0.5,1.5,0.7c0.5,0.2,1,0.3,1.4,0.5
	s0.8,0.2,1.4,0.3S8.5,18,8.8,18c0.3,0,0.7,0.1,1.2,0.1c0.5,0,0.8,0,1,0s0.5,0,0.9,0s0.7,0,0.7,0c0.8,0,1.3,0.1,1.6,0.5
	c0.1,0.1,0.1,0.1,0.2,0.2c0.3,0.3,0.6,0.6,1,0.9c0.1-1,0.7-1.5,2-1.5c0.1,0,0.3,0,0.6,0c0.4,0,0.6,0,0.7,0c0.1,0,0.4,0,0.8,0
	c0.4,0,0.7,0,0.9,0c0.2,0,0.5,0,0.9-0.1s0.7-0.1,1-0.1c0.3-0.1,0.6-0.1,1-0.2c0.4-0.1,0.8-0.2,1.1-0.3c0.3-0.1,0.7-0.3,1.1-0.5
	C26,16.7,26.4,16.5,26.8,16.3z M29.5,16.2c-1.4,1.7-3.4,3.1-6.2,4.2c0.9,3.2,0.8,5.8-0.4,7.8c-0.7,1.3-1.8,2.1-3.1,2.5
	c-1.2,0.4-2.2,0.3-3-0.3c-1-0.6-1.4-1.5-1.4-2.7l0-5.5v0c-0.1,0-0.2-0.1-0.4-0.1c-0.2,0-0.3-0.1-0.4-0.1l0,5.7
	c0,1.3-0.4,2.2-1.4,2.7c-0.9,0.5-1.9,0.6-3.1,0.3c-1.3-0.4-2.3-1.2-3-2.5c-1.2-2-1.3-4.6-0.4-7.8c-2.8-1.1-4.9-2.6-6.2-4.2
	c-0.3-0.4-0.3-0.8-0.1-1.1c0.2-0.3,0.6-0.3,1,0c0,0,0.1,0.1,0.2,0.1c0.1,0.1,0.2,0.1,0.2,0.1V3.8c0-0.8,0.3-1.5,0.8-2.1
	c0.5-0.6,1.2-0.9,1.9-0.9h21c0.7,0,1.4,0.3,1.9,0.9C28,2.3,28.2,3,28.2,3.8v11.6l0.4-0.3c0.4-0.3,0.8-0.3,1,0
	C29.8,15.4,29.8,15.8,29.5,16.2z"/>
</svg>
