<?xml version="1.0" encoding="UTF-8" standalone="no"?>
<svg width="75px" height="81px" viewBox="0 0 75 81" version="1.1" xmlns="http://www.w3.org/2000/svg" xmlns:xlink="http://www.w3.org/1999/xlink">
    <defs></defs>
    <g id="Lot1" stroke="none" stroke-width="1" fill="none" fill-rule="evenodd">
        <g id="UI-Qui-sommes-nous" transform="translate(-949.000000, -376.000000)" fill="#C0D5FB">
            <g id="QUI-SOMMES-NOUS" transform="translate(409.000000, 258.000000)">
                <g id="etoiles" transform="translate(540.000000, 118.000000)">
                    <path d="M31.4884667,53.283459 C29.6195874,55.1615604 28.2538678,57.7803558 27.2556246,60.6149504 C26.2476897,57.8298436 24.877932,55.254857 23.0187443,53.3864909 C21.2241678,51.5846494 19.006388,50.2411781 16.7046135,49.2400649 C19.0936131,48.2641012 21.3913494,46.9230637 23.2222696,45.0839035 C25.0184613,43.2804394 26.3437989,40.7460166 27.3218511,37.9674 C28.3047492,40.7103205 29.6365478,43.2220276 31.438393,45.0327932 C33.2515452,46.8532941 35.4895161,48.1886526 37.8147121,49.1686727 C35.4984001,50.1576168 33.2741591,51.4905415 31.4884667,53.283459 M51.8506905,46.3089286 C51.8313072,46.3097399 51.8151544,46.3089286 51.7796182,46.3097399 C48.6395132,46.3519262 39.6860144,45.4725042 35.3425256,41.1110903 C31.0103437,36.7561666 30.0702506,24.3550183 30.0710582,19.8483862 L30.0710582,19.7737489 C30.0710582,18.2436844 28.836984,17.0024338 27.3145823,17 L27.3097365,17 C25.7889501,17 24.5540682,18.236383 24.5492224,19.7648249 L24.5492224,19.8386509 C24.5363002,24.3874693 23.5776313,36.8859706 19.3181371,41.1613893 C14.250195,46.2521394 3.17017961,46.3089286 2.79058873,46.3089286 L2.75909077,46.3089286 C1.24799602,46.3089286 0.0171524081,47.5307086 0.000191964667,49.0510378 C-0.017576119,50.5786685 1.20034525,51.8328995 2.72113168,51.8556152 C2.83339366,51.8572377 13.9077556,52.0819609 19.1146117,57.3090051 C23.4403325,61.6541935 24.5039946,73.6002166 24.5492224,77.8366941 C24.5653752,79.3570233 25.7970265,80.5804259 27.3097365,80.5804259 L27.31539,80.5804259 C28.8297153,80.577992 30.0597512,79.3480993 30.0710582,77.8261476 C30.1009409,73.548295 31.1153369,61.5049189 35.3925993,57.2051619 C40.5017309,52.076282 51.5777082,51.8604828 51.867651,51.8556152 L51.8846114,51.8556152 C53.4070131,51.8369559 54.6265498,50.5835361 54.6112046,49.0542829 C54.5950518,47.5323312 53.3625929,46.3089286 51.8506905,46.3089286" id="Fill-58"></path>
                    <path d="M59.2375325,20.9625324 C58.6309948,21.5717998 58.1100669,22.2978909 57.6634418,23.0994305 C57.2200474,22.3238517 56.7071959,21.6164199 56.1135804,21.0193216 C55.5522705,20.4562968 54.9328104,19.9662868 54.2770066,19.5395562 C54.9772307,19.1014677 55.6370727,18.5919871 56.2274576,17.9989451 C56.8008821,17.4229399 57.2975808,16.7406577 57.7264378,15.9877946 C58.1520641,16.7292999 58.6423017,17.4018468 59.2076498,17.9705505 C59.7826896,18.5481782 60.4191101,19.046301 61.0918743,19.477088 C60.4279941,19.9046299 59.8012654,20.3962625 59.2375325,20.9625324 M71.6517695,16.6489837 L71.6283479,16.6489837 C71.6041187,16.6481724 71.5774666,16.6489837 71.5508145,16.6489837 C69.8547701,16.6489837 65.2447601,16.1898021 63.11259,14.0496589 C61.2849003,12.2104987 60.4659532,6.38392226 60.4659532,2.81350138 L60.4659532,2.77293764 C60.4659532,1.24287316 59.2326867,0.00243382473 57.7094773,0 L57.7054391,0 C56.1838451,0 54.9489632,1.23638296 54.944925,2.76482489 L54.944925,2.79646461 C54.9352334,6.40582668 54.1187092,12.2745894 52.3233251,14.0764309 C50.2186148,16.1914246 45.5060344,16.6489837 43.8188741,16.6489837 C43.7970679,16.6481724 43.7776845,16.6489837 43.7574935,16.6489837 C42.248014,16.6489837 41.0195933,17.8683299 41.00021,19.3870365 C40.9816342,20.9138559 42.1979403,22.1697094 43.7179191,22.194859 C45.3461217,22.2224423 50.0449722,22.7700529 52.2086402,24.9418358 C54.0322917,26.7745058 54.9061583,32.3747365 54.944925,35.7682995 C54.9594626,37.2894399 56.1911138,38.5136537 57.7054391,38.5136537 L57.7078621,38.5136537 C59.222995,38.5128425 60.4546463,37.2829497 60.4659532,35.760998 C60.4926053,32.3341728 61.3398199,26.6941896 63.1408574,24.8850466 C65.2754504,22.7424695 70.01226,22.2175747 71.6654994,22.1956702 L71.6856904,22.1956702 C71.6889209,22.1956702 71.697805,22.1972928 71.6961897,22.194859 L71.7002279,22.194859 L71.7042661,22.194859 L71.7083043,22.194859 L71.7123425,22.194859 C71.8488337,22.1916139 71.982902,22.1786335 72.112932,22.156729 L72.1137397,22.156729 C72.1145473,22.156729 72.1161626,22.1559178 72.1169702,22.1559178 C72.1185855,22.1551065 72.1193931,22.1551065 72.1210084,22.1551065 C72.1234313,22.1551065 72.124239,22.1551065 72.1250466,22.1542952 C72.1266619,22.1542952 72.1266619,22.1534839 72.1282772,22.1542952 C73.4374619,21.9247044 74.4260135,20.7710715 74.4122836,19.3927154 C74.3961308,17.871575 73.1636719,16.6489837 71.6517695,16.6489837" id="Fill-59"></path>
                </g>
            </g>
        </g>
    </g>
</svg>