<?xml version="1.0" encoding="UTF-8" standalone="no"?>
<svg width="130px" height="107px" viewBox="0 0 130 107" version="1.1" xmlns="http://www.w3.org/2000/svg" xmlns:xlink="http://www.w3.org/1999/xlink">
    <defs></defs>
    <g id="Lot1" stroke="none" stroke-width="1" fill="none" fill-rule="evenodd" opacity="0.2">
        <g id="UI-Offre-digitale" transform="translate(-854.000000, -1308.000000)" fill="#FFC64C">
            <g id="OFFRE-DIGITALE" transform="translate(673.000000, 121.000000)">
                <path d="M296.242472,1261.61905 C295.806437,1263.29297 293.657059,1264.52101 290.392959,1265.0482 L277.61247,1256.64653 C279.035125,1254.08082 280.250848,1251.38702 281.241163,1248.58728 C284.464615,1249.48152 287.447879,1250.76006 289.796799,1252.30466 C295.000882,1255.72765 296.786899,1259.53249 296.242472,1261.61905 L296.242472,1261.61905 Z M284.608729,1278.04424 C282.907702,1279.37451 278.709947,1279.23902 273.500937,1275.81726 C271.317069,1274.38229 269.133202,1272.3413 267.150108,1269.97021 C269.248985,1268.02777 271.186505,1265.91534 272.951582,1263.66126 L285.586727,1271.96686 C286.198899,1274.85158 285.877416,1277.05269 284.608729,1278.04424 L284.608729,1278.04424 Z M264.471083,1248.00714 C266.991214,1247.32475 269.83406,1247.08333 272.760663,1247.22129 C272.114002,1248.86442 271.382351,1250.46445 270.554625,1252.00658 L264.471083,1248.00714 Z M233.930198,1227.92861 C231.985287,1226.65007 229.375239,1227.18957 228.099161,1229.13448 C226.821851,1231.07693 227.361351,1233.68821 229.303799,1234.96552 L233.580385,1237.77757 C232.77483,1238.07935 231.907688,1238.25179 230.998667,1238.25179 C226.932707,1238.25179 223.626729,1234.94335 223.626729,1230.87616 C223.626729,1226.8102 226.932707,1223.50422 230.998667,1223.50422 C235.058467,1223.50422 238.360751,1226.79665 238.375531,1230.85152 L233.930198,1227.92861 Z M254.673857,1241.56639 L245.982731,1235.85237 C246.504987,1234.2856 246.79814,1232.6166 246.79814,1230.87616 C246.79814,1222.16779 239.710733,1215.08161 230.998667,1215.08161 C222.290296,1215.08161 215.204121,1222.16779 215.204121,1230.87616 C215.204121,1239.58699 222.290296,1246.6744 230.998667,1246.6744 C234.927903,1246.6744 238.517181,1245.22464 241.284891,1242.84247 L249.996957,1248.56881 C245.246153,1253.66573 238.498705,1256.87563 230.998667,1256.87563 C216.663727,1256.87563 205.000423,1245.21356 205.000423,1230.87616 C205.000423,1216.54368 216.663727,1204.88284 230.998667,1204.88284 C245.33607,1204.88284 256.999374,1216.54368 256.999374,1230.87616 C256.999374,1234.68838 256.154404,1238.30106 254.673857,1241.56639 L254.673857,1241.56639 Z M262.414084,1262.85694 C261.060407,1260.22842 260.071323,1257.50505 259.610654,1254.89007 L265.893737,1259.02132 C264.807346,1260.36514 263.64582,1261.64614 262.414084,1262.85694 L262.414084,1262.85694 Z M230.998667,1275.73474 C206.264183,1275.73474 186.14255,1255.61187 186.14255,1230.87616 C186.14255,1206.1429 206.264183,1186.02127 230.998667,1186.02127 C255.73315,1186.02127 275.856015,1206.1429 275.856015,1230.87616 C275.856015,1233.6451 275.591192,1236.35245 275.108352,1238.98467 C271.440243,1238.6558 267.768439,1238.78144 264.342982,1239.43672 C265.046303,1236.69857 265.421983,1233.82986 265.421983,1230.87616 C265.421983,1211.90004 249.978481,1196.46146 230.998667,1196.46146 C212.018852,1196.46146 196.577814,1211.90004 196.577814,1230.87616 C196.577814,1249.85597 212.018852,1265.29824 230.998667,1265.29824 C238.791858,1265.29824 245.986426,1262.69189 251.762034,1258.30814 C252.598383,1261.68186 253.998866,1265.05805 255.788578,1268.23839 C248.681464,1272.96949 240.157853,1275.73474 230.998667,1275.73474 L230.998667,1275.73474 Z M294.423198,1245.27022 C291.35864,1243.25264 287.532869,1241.60088 283.396701,1240.46891 C283.965763,1237.35509 284.278623,1234.15257 284.278623,1230.87616 C284.278623,1201.49926 260.378025,1177.59866 230.998667,1177.59866 C201.621772,1177.59866 177.719942,1201.49926 177.719942,1230.87616 C177.719942,1260.25551 201.621772,1284.15734 230.998667,1284.15734 C241.927857,1284.15734 252.095835,1280.84521 260.560322,1275.17799 C263.124796,1278.28689 265.982422,1280.95237 268.875769,1282.85417 C273.308786,1285.76845 277.814475,1287.25146 281.817616,1287.25146 C284.846454,1287.25146 287.588297,1286.40157 289.789409,1284.6833 C291.539705,1283.3173 294.853074,1279.75019 294.22612,1272.82661 C301.668267,1270.8041 303.801633,1266.00156 304.390403,1263.74502 C306.028611,1257.46686 302.208999,1250.38808 294.423198,1245.27022 L294.423198,1245.27022 Z" id="cible-jaune" transform="translate(241.242170, 1232.425064) rotate(-60.000000) translate(-241.242170, -1232.425064) "></path>
            </g>
        </g>
    </g>
</svg>