<?xml version="1.0" encoding="utf-8"?>
<!-- Generator: Adobe Illustrator 20.1.0, SVG Export Plug-In . SVG Version: 6.00 Build 0)  -->
<svg version="1.1" id="Calque_1" xmlns="http://www.w3.org/2000/svg" xmlns:xlink="http://www.w3.org/1999/xlink" x="0px" y="0px"
	 viewBox="0 0 28 22" style="enable-background:new 0 0 28 22;" xml:space="preserve">
<path fill="#FFFFFF" d="M27.1,2.7c-0.7,1.1-1.7,2-2.7,2.8c0,0.2,0,0.4,0,0.7c0,1.5-0.2,2.9-0.6,4.3c-0.4,1.4-1.1,2.8-1.9,4.2
	C21,16,20,17.2,18.8,18.2c-1.2,1-2.6,1.8-4.3,2.4c-1.7,0.6-3.5,0.9-5.4,0.9c-3,0-5.8-0.8-8.3-2.4c0.4,0,0.8,0.1,1.3,0.1
	c2.5,0,4.7-0.8,6.7-2.3c-1.2,0-2.2-0.4-3.1-1.1c-0.9-0.7-1.6-1.6-1.9-2.7c0.4,0.1,0.7,0.1,1,0.1c0.5,0,1-0.1,1.4-0.2
	c-1.3-0.3-2.3-0.9-3.1-1.9S1.8,9.1,1.8,7.7V7.7c0.8,0.4,1.6,0.7,2.4,0.7C3.5,7.9,2.9,7.2,2.5,6.4S1.8,4.8,1.8,3.9
	c0-1,0.2-1.9,0.7-2.7c1.4,1.7,3,3,4.9,4s4,1.6,6.2,1.7c-0.1-0.4-0.1-0.8-0.1-1.2c0-1.5,0.5-2.8,1.6-3.8s2.3-1.6,3.8-1.6
	c1.6,0,2.9,0.6,4,1.7c1.2-0.2,2.4-0.7,3.4-1.3c-0.4,1.3-1.2,2.3-2.4,3C25,3.4,26.1,3.1,27.1,2.7z"/>
</svg>
