<?xml version="1.0" encoding="utf-8"?>
<!-- Generator: Adobe Illustrator 20.1.0, SVG Export Plug-In . SVG Version: 6.00 Build 0)  -->
<svg version="1.1" id="Calque_1" xmlns="http://www.w3.org/2000/svg" xmlns:xlink="http://www.w3.org/1999/xlink" x="0px" y="0px"
	 viewBox="0 0 26 31" style="enable-background:new 0 0 26 31;" xml:space="preserve">
<path d="M16.3,21.7v3.5c0,0.7-0.2,1.1-0.7,1.1c-0.3,0-0.5-0.1-0.8-0.4v-5c0.2-0.2,0.5-0.4,0.8-0.4C16,20.6,16.3,20.9,16.3,21.7z
	 M21.9,21.7v0.8h-1.5v-0.8c0-0.8,0.3-1.1,0.8-1.1C21.7,20.6,21.9,20.9,21.9,21.7z M5.7,18.1h1.8v-1.6H2.3v1.6h1.8v9.5h1.7V18.1z
	 M10.6,27.6h1.5v-8.3h-1.5v6.3c-0.3,0.5-0.7,0.7-1,0.7c-0.2,0-0.3-0.1-0.4-0.4c0,0,0-0.2,0-0.6v-6.1H7.8v6.5c0,0.5,0,1,0.1,1.2
	c0.1,0.4,0.5,0.6,1,0.6c0.5,0,1.1-0.3,1.7-1V27.6z M17.7,25.1v-3.3c0-0.8-0.1-1.4-0.2-1.7c-0.2-0.6-0.6-0.9-1.2-0.9
	c-0.6,0-1.1,0.3-1.6,0.9v-3.6h-1.5v11.1h1.5v-0.8c0.5,0.6,1,0.9,1.6,0.9c0.6,0,1-0.3,1.2-0.9C17.7,26.5,17.7,25.9,17.7,25.1z
	 M23.4,24.9v-0.2h-1.5c0,0.6,0,0.9,0,1c-0.1,0.4-0.3,0.6-0.7,0.6c-0.5,0-0.8-0.4-0.8-1.2v-1.5h3V22c0-0.9-0.2-1.5-0.5-1.9
	c-0.4-0.6-1-0.9-1.8-0.9c-0.8,0-1.4,0.3-1.8,0.9c-0.3,0.4-0.5,1.1-0.5,1.9v2.9c0,0.9,0.2,1.5,0.5,1.9c0.4,0.6,1,0.9,1.8,0.9
	c0.8,0,1.4-0.3,1.8-0.9c0.2-0.3,0.3-0.6,0.4-0.9C23.4,25.8,23.4,25.5,23.4,24.9z M13.2,9.7V6.1C13.2,5.4,13,5,12.5,5
	c-0.5,0-0.7,0.4-0.7,1.2v3.5c0,0.8,0.2,1.2,0.7,1.2C13,10.8,13.2,10.4,13.2,9.7z M25.3,22.2c0,2.6-0.1,4.6-0.4,5.9
	c-0.2,0.7-0.5,1.2-1,1.7c-0.5,0.4-1.1,0.7-1.7,0.8c-2.1,0.2-5.2,0.4-9.3,0.4c-4.1,0-7.2-0.1-9.3-0.4c-0.6-0.1-1.2-0.3-1.7-0.8
	c-0.5-0.4-0.8-1-1-1.7c-0.3-1.2-0.4-3.2-0.4-5.9c0-2.6,0.1-4.6,0.4-5.9c0.2-0.7,0.5-1.2,1-1.7c0.5-0.4,1.1-0.7,1.7-0.8
	c2-0.2,5.1-0.3,9.3-0.3c4.1,0,7.2,0.1,9.3,0.3c0.6,0.1,1.2,0.3,1.7,0.8c0.5,0.4,0.8,1,1,1.7C25.1,17.6,25.3,19.6,25.3,22.2z
	 M8.6,0.9h1.7l-2,6.7v4.5H6.6V7.5c-0.2-0.8-0.5-2-1-3.5C5.1,2.8,4.8,1.8,4.5,0.9h1.8l1.2,4.4L8.6,0.9z M14.7,6.4v2.9
	c0,0.9-0.2,1.6-0.5,2c-0.4,0.6-1,0.9-1.8,0.9c-0.7,0-1.3-0.3-1.8-0.9c-0.3-0.4-0.5-1.1-0.5-2V6.4c0-0.9,0.2-1.5,0.5-2
	c0.4-0.6,1-0.9,1.8-0.9c0.8,0,1.4,0.3,1.8,0.9C14.6,4.9,14.7,5.5,14.7,6.4z M20.4,3.7v8.4h-1.5v-0.9c-0.6,0.7-1.2,1-1.7,1
	c-0.5,0-0.8-0.2-1-0.6C16,11.3,16,10.9,16,10.3V3.7h1.5v6.1c0,0.4,0,0.6,0,0.6c0,0.2,0.2,0.4,0.4,0.4c0.3,0,0.6-0.2,1-0.7V3.7H20.4z
	"/>
</svg>
